<?xml version="1.0" encoding="UTF-8" standalone="no"?>
<!-- Generator: Adobe Illustrator 17.1.0, SVG Export Plug-In . SVG Version: 6.00 Build 0)  -->

<svg
   xmlns:dc="http://purl.org/dc/elements/1.1/"
   xmlns:cc="http://creativecommons.org/ns#"
   xmlns:rdf="http://www.w3.org/1999/02/22-rdf-syntax-ns#"
   xmlns:svg="http://www.w3.org/2000/svg"
   xmlns="http://www.w3.org/2000/svg"
   xmlns:xlink="http://www.w3.org/1999/xlink"
   xmlns:sodipodi="http://sodipodi.sourceforge.net/DTD/sodipodi-0.dtd"
   xmlns:inkscape="http://www.inkscape.org/namespaces/inkscape"
   version="1.1"
   id="Layer_1"
   x="0px"
   y="0px"
   width="224px"
   height="64px"
   viewBox="0 0 224 64"
   enable-background="new 0 0 224 64"
   xml:space="preserve"
   inkscape:version="0.92.1 r15371"
   sodipodi:docname="socials-icons.svg"><metadata
   id="metadata3053"><rdf:RDF><cc:Work
       rdf:about=""><dc:format>image/svg+xml</dc:format><dc:type
         rdf:resource="http://purl.org/dc/dcmitype/StillImage" /></cc:Work></rdf:RDF></metadata><defs
   id="defs3051"><clipPath
     id="clipPath3754"
     clipPathUnits="userSpaceOnUse"><path
       inkscape:connector-curvature="0"
       id="path3756"
       d="m 89.1001,506.487 123.8089,0 0,-103.174 -123.8089,0 0,103.174 z" /></clipPath><mask
     id="mask3724"
     height="1"
     width="1"
     y="0"
     x="0"
     maskUnits="userSpaceOnUse"><g
       id="g3726"><g
         id="g3728"
         clip-path="url(#clipPath3712)"><path
           inkscape:connector-curvature="0"
           id="path3730"
           style="fill:#000000;fill-opacity:1;fill-rule:nonzero;stroke:none"
           d="m 89.1,506.487 123.809,0 0,-103.173 -123.809,0 0,103.173 z" /><g
           id="g3732"><g
             id="g3734" /><g
             id="g3736"><g
               id="g3738"
               clip-path="url(#clipPath3716)"><path
                 inkscape:connector-curvature="0"
                 id="path3740"
                 style="fill:#000000;fill-opacity:1;fill-rule:nonzero;stroke:none"
                 d="m 79.386,403.313 133.522,0 0,82.464 -133.522,0 0,-82.464 z" /><g
                 id="g3742"><g
                   id="g3744"
                   clip-path="url(#clipPath3720)"><g
                     id="g3746"
                     transform="matrix(0,-97.017441,133.52258,0,79.386108,573.09375)"><image
                       sodipodi:absref="D:\itchio/itchio_img10.png"
                       xlink:href="itchio/itchio_img10.png"
                       id="image3748"
                       transform="matrix(1,0,0,-1,0,1)"
                       height="1"
                       width="1" /></g></g></g></g></g></g></g></g></mask><clipPath
     id="clipPath3720"
     clipPathUnits="userSpaceOnUse"><path
       inkscape:connector-curvature="0"
       id="path3722"
       d="m 79.386,476.077 133.522,0 0,97.017 -133.522,0 0,-97.017 z" /></clipPath><clipPath
     id="clipPath3716"
     clipPathUnits="userSpaceOnUse"><path
       inkscape:connector-curvature="0"
       id="path3718"
       d="m 89.1001,506.487 123.8089,0 0,-103.174 -123.8089,0 0,103.174 z" /></clipPath><clipPath
     id="clipPath3712"
     clipPathUnits="userSpaceOnUse"><path
       inkscape:connector-curvature="0"
       id="path3714"
       d="m 89.1001,506.487 123.8089,0 0,-103.174 -123.8089,0 0,103.174 z" /></clipPath><clipPath
     id="clipPath3696"
     clipPathUnits="userSpaceOnUse"><path
       inkscape:connector-curvature="0"
       id="path3698"
       d="m 473.069,584.186 50.393,0 0,-18.91 -50.393,0 0,18.91 z" /></clipPath><mask
     id="mask3666"
     height="1"
     width="1"
     y="0"
     x="0"
     maskUnits="userSpaceOnUse"><g
       id="g3668"><g
         id="g3670"
         clip-path="url(#clipPath3654)"><path
           inkscape:connector-curvature="0"
           id="path3672"
           style="fill:#000000;fill-opacity:1;fill-rule:nonzero;stroke:none"
           d="m 473.069,584.186 50.393,0 0,-18.909 -50.393,0 0,18.909 z" /><g
           id="g3674"><g
             id="g3676" /><g
             id="g3678"><g
               id="g3680"
               clip-path="url(#clipPath3658)"><g
                 id="g3682"><g
                   id="g3684"
                   clip-path="url(#clipPath3662)"><g
                     id="g3686"><g
                       id="g3688"
                       transform="matrix(13.33493,-123.09059,296.71326,32.144226,224.88245,628.72005)"><image
                         sodipodi:absref="D:\itchio/itchio_img9.png"
                         xlink:href="itchio/itchio_img9.png"
                         id="image3690"
                         transform="matrix(1,0,0,-1,0,1)"
                         height="1"
                         width="1" /></g></g></g></g></g></g></g></g></g></mask><clipPath
     id="clipPath3662"
     clipPathUnits="userSpaceOnUse"><path
       inkscape:connector-curvature="0"
       id="path3664"
       d="m 362.514,643.63 -7.297,-0.79 -118.867,-12.878 0,-107.095 0,-0.004 160.944,0 126.168,13.668 0,107.099 -160.948,0 z" /></clipPath><clipPath
     id="clipPath3658"
     clipPathUnits="userSpaceOnUse"><path
       inkscape:connector-curvature="0"
       id="path3660"
       d="m 473.069,584.186 50.393,0 0,-18.91 -50.393,0 0,18.91 z" /></clipPath><clipPath
     id="clipPath3654"
     clipPathUnits="userSpaceOnUse"><path
       inkscape:connector-curvature="0"
       id="path3656"
       d="m 473.069,584.186 50.393,0 0,-18.91 -50.393,0 0,18.91 z" /></clipPath><clipPath
     id="clipPath3638"
     clipPathUnits="userSpaceOnUse"><path
       inkscape:connector-curvature="0"
       id="path3640"
       d="m 445.769,605.711 20.245,0 0,-43.351 -20.245,0 0,43.351 z" /></clipPath><mask
     id="mask3608"
     height="1"
     width="1"
     y="0"
     x="0"
     maskUnits="userSpaceOnUse"><g
       id="g3610"><g
         id="g3612"
         clip-path="url(#clipPath3596)"><path
           inkscape:connector-curvature="0"
           id="path3614"
           style="fill:#000000;fill-opacity:1;fill-rule:nonzero;stroke:none"
           d="m 445.769,605.711 20.245,0 0,-43.351 -20.245,0 0,43.351 z" /><g
           id="g3616"><g
             id="g3618" /><g
             id="g3620"><g
               id="g3622"
               clip-path="url(#clipPath3600)"><g
                 id="g3624"><g
                   id="g3626"
                   clip-path="url(#clipPath3604)"><g
                     id="g3628"><g
                       id="g3630"
                       transform="matrix(13.137772,-121.27063,183.14748,19.841156,281.76366,633.96158)"><image
                         sodipodi:absref="D:\itchio/itchio_img8.png"
                         xlink:href="itchio/itchio_img8.png"
                         id="image3632"
                         transform="matrix(1,0,0,-1,0,1)"
                         height="1"
                         width="1" /></g></g></g></g></g></g></g></g></g></mask><clipPath
     id="clipPath3604"
     clipPathUnits="userSpaceOnUse"><path
       inkscape:connector-curvature="0"
       id="path3606"
       d="m 371.016,643.63 -77.216,-8.364 0,-112.403 94.997,0 77.217,8.365 0,112.397 -0.001,0.005 -94.997,0 z" /></clipPath><clipPath
     id="clipPath3600"
     clipPathUnits="userSpaceOnUse"><path
       inkscape:connector-curvature="0"
       id="path3602"
       d="m 445.769,605.711 20.245,0 0,-43.351 -20.245,0 0,43.351 z" /></clipPath><clipPath
     id="clipPath3596"
     clipPathUnits="userSpaceOnUse"><path
       inkscape:connector-curvature="0"
       id="path3598"
       d="m 445.769,605.711 20.245,0 0,-43.351 -20.245,0 0,43.351 z" /></clipPath><clipPath
     id="clipPath3580"
     clipPathUnits="userSpaceOnUse"><path
       inkscape:connector-curvature="0"
       id="path3582"
       d="m 360.751,603.384 54.103,0 0,-47.115 -54.103,0 0,47.115 z" /></clipPath><mask
     id="mask3550"
     height="1"
     width="1"
     y="0"
     x="0"
     maskUnits="userSpaceOnUse"><g
       id="g3552"><g
         id="g3554"
         clip-path="url(#clipPath3538)"><path
           inkscape:connector-curvature="0"
           id="path3556"
           style="fill:#000000;fill-opacity:1;fill-rule:nonzero;stroke:none"
           d="m 360.751,603.384 54.104,0 0,-47.115 -54.104,0 0,47.115 z" /><g
           id="g3558"><g
             id="g3560" /><g
             id="g3562"><g
               id="g3564"
               clip-path="url(#clipPath3542)"><g
                 id="g3566"><g
                   id="g3568"
                   clip-path="url(#clipPath3546)"><g
                     id="g3570"><g
                       id="g3572"
                       transform="matrix(13.192658,-121.77733,82.016251,8.8851776,332.30211,639.69296)"><image
                         sodipodi:absref="D:\itchio/itchio_img7.png"
                         xlink:href="itchio/itchio_img7.png"
                         id="image3574"
                         transform="matrix(1,0,0,-1,0,1)"
                         height="1"
                         width="1" /></g></g></g></g></g></g></g></g></g></mask><clipPath
     id="clipPath3546"
     clipPathUnits="userSpaceOnUse"><path
       inkscape:connector-curvature="0"
       id="path3548"
       d="m 368.649,643.63 -1.777,-0.192 -21.914,-2.374 0,-118.197 10e-4,-0.004 46.204,0 23.691,2.567 0,118.2 -46.205,0 z" /></clipPath><clipPath
     id="clipPath3542"
     clipPathUnits="userSpaceOnUse"><path
       inkscape:connector-curvature="0"
       id="path3544"
       d="m 360.751,603.384 54.103,0 0,-47.115 -54.103,0 0,47.115 z" /></clipPath><clipPath
     id="clipPath3538"
     clipPathUnits="userSpaceOnUse"><path
       inkscape:connector-curvature="0"
       id="path3540"
       d="m 360.751,603.384 54.103,0 0,-47.115 -54.103,0 0,47.115 z" /></clipPath><clipPath
     id="clipPath3522"
     clipPathUnits="userSpaceOnUse"><path
       inkscape:connector-curvature="0"
       id="path3524"
       d="m 304.689,584.186 51.541,0 0,-29.747 -51.541,0 0,29.747 z" /></clipPath><mask
     id="mask3492"
     height="1"
     width="1"
     y="0"
     x="0"
     maskUnits="userSpaceOnUse"><g
       id="g3494"><g
         id="g3496"
         clip-path="url(#clipPath3480)"><path
           inkscape:connector-curvature="0"
           id="path3498"
           style="fill:#000000;fill-opacity:1;fill-rule:nonzero;stroke:none"
           d="m 304.689,584.186 51.541,0 0,-29.747 -51.541,0 0,29.747 z" /><g
           id="g3500"><g
             id="g3502" /><g
             id="g3504"><g
               id="g3506"
               clip-path="url(#clipPath3484)"><g
                 id="g3508"><g
                   id="g3510"
                   clip-path="url(#clipPath3488)"><g
                     id="g3512"><g
                       id="g3514"
                       transform="matrix(13.208954,-121.92781,161.62099,17.509094,292.49132,635.45624)"><image
                         sodipodi:absref="D:\itchio/itchio_img6.png"
                         xlink:href="itchio/itchio_img6.png"
                         id="image3516"
                         transform="matrix(1,0,0,-1,0,1)"
                         height="1"
                         width="1" /></g></g></g></g></g></g></g></g></g></mask><clipPath
     id="clipPath3488"
     clipPathUnits="userSpaceOnUse"><path
       inkscape:connector-curvature="0"
       id="path3490"
       d="m 367.947,643.63 -63.257,-6.853 0,-113.914 87.175,0 9.261,1.003 53.998,5.851 0,113.911 -0.001,0.002 -87.176,0 z" /></clipPath><clipPath
     id="clipPath3484"
     clipPathUnits="userSpaceOnUse"><path
       inkscape:connector-curvature="0"
       id="path3486"
       d="m 304.689,584.186 51.541,0 0,-29.747 -51.541,0 0,29.747 z" /></clipPath><clipPath
     id="clipPath3480"
     clipPathUnits="userSpaceOnUse"><path
       inkscape:connector-curvature="0"
       id="path3482"
       d="m 304.689,584.186 51.541,0 0,-29.747 -51.541,0 0,29.747 z" /></clipPath><clipPath
     id="clipPath3464"
     clipPathUnits="userSpaceOnUse"><path
       inkscape:connector-curvature="0"
       id="path3466"
       d="m 261.888,596.868 39.559,0 0,-42.796 -39.559,0 0,42.796 z" /></clipPath><mask
     id="mask3434"
     height="1"
     width="1"
     y="0"
     x="0"
     maskUnits="userSpaceOnUse"><g
       id="g3436"><g
         id="g3438"
         clip-path="url(#clipPath3422)"><path
           inkscape:connector-curvature="0"
           id="path3440"
           style="fill:#000000;fill-opacity:1;fill-rule:nonzero;stroke:none"
           d="m 261.888,596.868 39.559,0 0,-42.795 -39.559,0 0,42.795 z" /><g
           id="g3442"><g
             id="g3444" /><g
             id="g3446"><g
               id="g3448"
               clip-path="url(#clipPath3426)"><g
                 id="g3450"><g
                   id="g3452"
                   clip-path="url(#clipPath3430)"><g
                     id="g3454"><g
                       id="g3456"
                       transform="matrix(13.162506,-121.4989,246.22993,26.67514,250.21049,630.65884)"><image
                         sodipodi:absref="D:\itchio/itchio_img5.png"
                         xlink:href="itchio/itchio_img5.png"
                         id="image3458"
                         transform="matrix(1,0,0,-1,0,1)"
                         height="1"
                         width="1" /></g></g></g></g></g></g></g></g></g></mask><clipPath
     id="clipPath3430"
     clipPathUnits="userSpaceOnUse"><path
       inkscape:connector-curvature="0"
       id="path3432"
       d="m 369.948,643.63 -108.06,-11.706 0,-109.057 0.001,-0.004 127.976,0 8.096,0.877 99.964,10.83 0,109.056 -0.001,0.004 -127.976,0 z" /></clipPath><clipPath
     id="clipPath3426"
     clipPathUnits="userSpaceOnUse"><path
       inkscape:connector-curvature="0"
       id="path3428"
       d="m 261.888,596.868 39.559,0 0,-42.796 -39.559,0 0,42.796 z" /></clipPath><clipPath
     id="clipPath3422"
     clipPathUnits="userSpaceOnUse"><path
       inkscape:connector-curvature="0"
       id="path3424"
       d="m 261.888,596.868 39.559,0 0,-42.796 -39.559,0 0,42.796 z" /></clipPath><clipPath
     id="clipPath3406"
     clipPathUnits="userSpaceOnUse"><path
       inkscape:connector-curvature="0"
       id="path3408"
       d="m 238.636,605.711 20.244,0 0,-51.636 -20.244,0 0,51.636 z" /></clipPath><mask
     id="mask3376"
     height="1"
     width="1"
     y="0"
     x="0"
     maskUnits="userSpaceOnUse"><g
       id="g3378"><g
         id="g3380"
         clip-path="url(#clipPath3364)"><path
           inkscape:connector-curvature="0"
           id="path3382"
           style="fill:#000000;fill-opacity:1;fill-rule:nonzero;stroke:none"
           d="m 238.636,605.711 20.245,0 0,-51.636 -20.245,0 0,51.636 z" /><g
           id="g3384"><g
             id="g3386" /><g
             id="g3388"><g
               id="g3390"
               clip-path="url(#clipPath3368)"><g
                 id="g3392"><g
                   id="g3394"
                   clip-path="url(#clipPath3372)"><g
                     id="g3396"><g
                       id="g3398"
                       transform="matrix(13.291458,-122.68929,292.1955,31.654785,227.1629,628.76416)"><image
                         sodipodi:absref="D:\itchio/itchio_img4.png"
                         xlink:href="itchio/itchio_img4.png"
                         id="image3400"
                         transform="matrix(1,0,0,-1,0,1)"
                         height="1"
                         width="1" /></g></g></g></g></g></g></g></g></g></mask><clipPath
     id="clipPath3372"
     clipPathUnits="userSpaceOnUse"><path
       inkscape:connector-curvature="0"
       id="path3374"
       d="m 364.388,643.63 -125.752,-13.623 0,-107.144 0,0 156.78,0 125.76,13.624 0,107.143 -156.788,0 z" /></clipPath><clipPath
     id="clipPath3368"
     clipPathUnits="userSpaceOnUse"><path
       inkscape:connector-curvature="0"
       id="path3370"
       d="m 238.636,605.711 20.244,0 0,-51.636 -20.244,0 0,51.636 z" /></clipPath><clipPath
     id="clipPath3364"
     clipPathUnits="userSpaceOnUse"><path
       inkscape:connector-curvature="0"
       id="path3366"
       d="m 238.636,605.711 20.244,0 0,-51.636 -20.244,0 0,51.636 z" /></clipPath><clipPath
     id="clipPath3292"
     clipPathUnits="userSpaceOnUse"><path
       inkscape:connector-curvature="0"
       id="path3294"
       d="m 0,0 595.275,0 0,841.89 L 0,841.89 0,0 z" /></clipPath><linearGradient
     id="linearGradient3280"
     spreadMethod="pad"
     gradientTransform="matrix(-9.7993164,28.855469,28.420776,9.6517029,154.10742,549.75439)"
     gradientUnits="userSpaceOnUse"
     y2="0"
     x2="1"
     y1="0"
     x1="0"><stop
       id="stop3282"
       offset="0"
       style="stop-opacity:1;stop-color:#ff3b3b" /><stop
       id="stop3284"
       offset="1"
       style="stop-opacity:1;stop-color:#fefefe" /></linearGradient><clipPath
     id="clipPath3272"
     clipPathUnits="userSpaceOnUse"><path
       inkscape:connector-curvature="0"
       id="path3274"
       d="m 141.913,561.6 -10.031,-10.76 9.882,0 0,-11.093 19.7,0 0,11.093 10.539,0 -10.031,10.76 -10.03,10.759 -10.029,-10.759 z" /></clipPath><clipPath
     id="clipPath3256"
     clipPathUnits="userSpaceOnUse"><path
       inkscape:connector-curvature="0"
       id="path3258"
       d="m 105.826,584.266 94.755,0 0,-27.337 -94.755,0 0,27.337 z" /></clipPath><mask
     id="mask3218"
     height="1"
     width="1"
     y="0"
     x="0"
     maskUnits="userSpaceOnUse"><g
       id="g3220"><g
         id="g3222"
         clip-path="url(#clipPath3202)"><path
           inkscape:connector-curvature="0"
           id="path3224"
           style="fill:#000000;fill-opacity:1;fill-rule:nonzero;stroke:none"
           d="m 105.826,584.266 94.755,0 0,-27.337 -94.755,0 0,27.337 z" /><g
           id="g3226"><g
             id="g3228" /><g
             id="g3230"><g
               id="g3232"
               clip-path="url(#clipPath3206)"><g
                 id="g3234"><g
                   id="g3236"
                   clip-path="url(#clipPath3210)"><g
                     id="g3238"
                     transform="translate(289.0581,586.3975)"><path
                       inkscape:connector-curvature="0"
                       id="path3240"
                       style="fill:#000000;fill-opacity:1;fill-rule:nonzero;stroke:none"
                       d="M 0,0 -4.479,27.249 -196.761,-4.359 -192.282,-31.608 0,0 z" /></g></g></g><g
                 id="g3242"><g
                   id="g3244"
                   clip-path="url(#clipPath3214)"><g
                     id="g3246"><g
                       id="g3248"
                       transform="matrix(-11.750565,71.481995,-192.2814,-31.608154,299.63345,522.06323)"><image
                         sodipodi:absref="D:\itchio/itchio_img3.png"
                         xlink:href="itchio/itchio_img3.png"
                         id="image3250"
                         transform="matrix(1,0,0,-1,0,1)"
                         height="1"
                         width="1" /></g></g></g></g></g></g></g></g></g></mask><clipPath
     id="clipPath3214"
     clipPathUnits="userSpaceOnUse"><path
       inkscape:connector-curvature="0"
       id="path3216"
       d="m 231.432,584.266 -125.605,-20.649 0,-63.881 0,-10e-4 0,0 57.972,0 125.609,20.648 0,63.882 0,10e-4 -57.976,0 z" /></clipPath><clipPath
     id="clipPath3210"
     clipPathUnits="userSpaceOnUse"><path
       inkscape:connector-curvature="0"
       id="path3212"
       clip-rule="evenodd"
       d="m 105.826,499.735 183.582,0 0,84.53 -183.582,0 0,-84.53 z" /></clipPath><clipPath
     id="clipPath3206"
     clipPathUnits="userSpaceOnUse"><path
       inkscape:connector-curvature="0"
       id="path3208"
       d="m 105.826,584.266 94.755,0 0,-27.337 -94.755,0 0,27.337 z" /></clipPath><clipPath
     id="clipPath3202"
     clipPathUnits="userSpaceOnUse"><path
       inkscape:connector-curvature="0"
       id="path3204"
       d="m 105.826,584.266 94.755,0 0,-27.337 -94.755,0 0,27.337 z" /></clipPath><clipPath
     id="clipPath3174"
     clipPathUnits="userSpaceOnUse"><path
       inkscape:connector-curvature="0"
       id="path3176"
       d="m 89.8042,612.269 122.9278,0 0,-56.07 -122.9278,0 0,56.07 z" /></clipPath><mask
     id="mask3142"
     height="1"
     width="1"
     y="0"
     x="0"
     maskUnits="userSpaceOnUse"><g
       id="g3144"><g
         id="g3146"
         clip-path="url(#clipPath3130)"><path
           inkscape:connector-curvature="0"
           id="path3148"
           style="fill:#000000;fill-opacity:1;fill-rule:nonzero;stroke:none"
           d="m 89.804,612.269 122.928,0 0,-56.07 -122.928,0 0,56.07 z" /><g
           id="g3150"><g
             id="g3152" /><g
             id="g3154"><g
               id="g3156"
               clip-path="url(#clipPath3134)"><g
                 id="g3158"
                 transform="translate(89.8038,612.2682)"><path
                   inkscape:connector-curvature="0"
                   id="path3160"
                   style="fill:#000000;fill-opacity:1;fill-rule:nonzero;stroke:none"
                   d="M 0,0 0,-42.761 252.378,-28.869 252.378,0 0,0 z" /></g><g
                 id="g3162"><g
                   id="g3164"
                   clip-path="url(#clipPath3138)"><g
                     id="g3166"
                     transform="matrix(-2.9685516,53.932251,-257.92093,-14.196503,346.43802,534.94749)"><image
                       sodipodi:absref="D:\itchio/itchio_img2.png"
                       xlink:href="itchio/itchio_img2.png"
                       id="image3168"
                       transform="matrix(1,0,0,-1,0,1)"
                       height="1"
                       width="1" /></g></g></g></g></g></g></g></g></mask><clipPath
     id="clipPath3138"
     clipPathUnits="userSpaceOnUse"><path
       inkscape:connector-curvature="0"
       id="path3140"
       d="m 89.804,574.917 0,-54.095 252.378,13.891 0,54.096 -252.378,-13.892 z" /></clipPath><clipPath
     id="clipPath3134"
     clipPathUnits="userSpaceOnUse"><path
       inkscape:connector-curvature="0"
       id="path3136"
       d="m 89.8042,612.269 122.9278,0 0,-56.07 -122.9278,0 0,56.07 z" /></clipPath><clipPath
     id="clipPath3130"
     clipPathUnits="userSpaceOnUse"><path
       inkscape:connector-curvature="0"
       id="path3132"
       d="m 89.8042,612.269 122.9278,0 0,-56.07 -122.9278,0 0,56.07 z" /></clipPath><clipPath
     id="clipPath3122"
     clipPathUnits="userSpaceOnUse"><path
       inkscape:connector-curvature="0"
       id="path3124"
       d="m 0,0 595.275,0 0,841.89 L 0,841.89 0,0 z" /></clipPath><linearGradient
     id="linearGradient3110"
     spreadMethod="pad"
     gradientTransform="matrix(-45.096283,66.742752,69.362305,46.866257,174.09131,527.11914)"
     gradientUnits="userSpaceOnUse"
     y2="0"
     x2="1"
     y1="0"
     x1="0"><stop
       id="stop3112"
       offset="0"
       style="stop-opacity:1;stop-color:#9bdee3" /><stop
       id="stop3114"
       offset="1"
       style="stop-opacity:1;stop-color:#ffffff" /></linearGradient><clipPath
     id="clipPath3102"
     clipPathUnits="userSpaceOnUse"><path
       inkscape:connector-curvature="0"
       id="path3104"
       d="m 89.806,612.268 0,-18.478 c 1.063,-0.308 2.188,-0.472 3.35,-0.472 l 0,0 c 3.327,0 6.349,1.352 8.543,3.534 l 0,0 c 2.2,2.187 3.573,5.202 3.596,8.512 l 0,0 -0.009,0 0,0.016 4.144,0.008 0,-0.008 0.008,0 0,-0.016 -0.007,-0.007 c 0.023,-3.307 1.394,-6.315 3.588,-8.5 l 0,0 c 2.195,-2.184 5.22,-3.539 8.549,-3.539 l 0,0 c 3.327,0 6.35,1.352 8.543,3.534 l 0,0 c 2.2,2.187 3.573,5.202 3.596,8.512 l 0,0 -0.008,0 0,0.016 4.144,0.008 0,-0.008 0.007,0 0,-0.016 -0.007,-0.007 c 0.024,-3.307 1.395,-6.315 3.588,-8.5 l 0,0 c 2.195,-2.184 5.221,-3.539 8.549,-3.539 l 0,0 c 3.327,0 6.35,1.352 8.544,3.533 l 0,0 c 2.2,2.188 3.572,5.203 3.595,8.513 l 0,0 -0.008,0 0,0.016 4.144,0.008 0,-0.008 0.007,0 0,-0.016 -0.007,-0.007 c 0.024,-3.307 1.396,-6.315 3.588,-8.5 l 0,0 c 2.196,-2.184 5.222,-3.539 8.55,-3.539 l 0,0 c 3.327,0 6.349,1.352 8.543,3.533 l 0,0 c 2.2,2.188 3.573,5.203 3.595,8.513 l 0,0 -0.008,0 0,0.016 4.144,0.008 0,-0.008 0.008,0 0,-0.016 -0.008,-0.007 c 0.025,-3.307 1.395,-6.315 3.589,-8.5 l 0,0 c 2.195,-2.184 5.221,-3.539 8.55,-3.539 l 0,0 c 2.147,0 4.17,0.567 5.926,1.559 l 0,0 0,17.39 0,10e-4 -122.926,0 z m 100.051,-18.352 c -2.95,-2.931 -7.007,-4.751 -11.464,-4.751 l 0,0 c -4.46,0 -8.52,1.823 -11.469,4.758 l 0,0 c -1.069,1.065 -1.994,2.278 -2.737,3.603 l 0,0 c -0.745,-1.328 -1.671,-2.543 -2.743,-3.61 l 0,0 c -2.95,-2.931 -7.006,-4.751 -11.464,-4.751 l 0,0 c -4.46,0 -8.519,1.823 -11.468,4.758 l 0,0 c -1.07,1.063 -1.994,2.278 -2.737,3.603 l 0,0 c -0.745,-1.328 -1.671,-2.543 -2.744,-3.609 l 0,0 c -2.949,-2.933 -7.006,-4.752 -11.463,-4.752 l 0,0 c -4.46,0 -8.52,1.823 -11.469,4.758 l 0,0 c -1.069,1.063 -1.993,2.278 -2.737,3.603 l 0,0 c -0.744,-1.328 -1.671,-2.543 -2.742,-3.609 l 0,0 c -2.95,-2.933 -7.007,-4.752 -11.464,-4.752 l 0,0 c -1.147,0 -2.269,0.121 -3.35,0.35 l 0,0 0,-79.686 122.926,0 0,10e-4 0,80.457 c -1.839,-0.723 -3.838,-1.122 -5.926,-1.122 l 0,0 c -4.462,0 -8.521,1.823 -11.471,4.758 l 0,0 c -1.069,1.065 -1.993,2.277 -2.736,3.603 l 0,0 c -0.745,-1.329 -1.671,-2.543 -2.742,-3.61" /></clipPath><clipPath
     id="clipPath3086"
     clipPathUnits="userSpaceOnUse"><path
       inkscape:connector-curvature="0"
       id="path3088"
       d="m 69.7139,645.352 461.0151,0 0,-147.157 -461.0151,0 0,147.157 z" /></clipPath><mask
     id="mask3064"
     height="1"
     width="1"
     y="0"
     x="0"
     maskUnits="userSpaceOnUse"><g
       id="g3066"><g
         style="opacity:0.69799799"
         id="g3068"
         clip-path="url(#clipPath3040)"><path
           inkscape:connector-curvature="0"
           id="path3070"
           style="fill:#000000;fill-opacity:1;fill-rule:nonzero;stroke:none"
           d="m 69.714,645.352 461.016,0 0,-147.156 -461.016,0 0,147.156 z" /><g
           id="g3072"><g
             id="g3074" /><g
             id="g3076"><g
               id="g3078"
               clip-path="url(#clipPath3044)"><path
                 inkscape:connector-curvature="0"
                 id="path3080"
                 style="fill:url(#pattern3052);fill-opacity:1;fill-rule:evenodd;stroke:none"
                 d="m 69.714,498.195 461.016,0 0,147.156 -461.016,0 0,-147.156 z" /></g></g></g></g></g></mask><pattern
     id="pattern3052"
     height="289.754"
     width="936.382"
     y="0"
     x="0"
     patternUnits="userSpaceOnUse"
     patternTransform="matrix(0.49234,-0.00238037,0,-0.500183,69.7139,500.422)"><g
       id="g3054"><g
         id="g3056"
         clip-path="url(#clipPath3048)"><g
           id="g3058"><g
             id="g3060"
             transform="matrix(936.3819,0,0,-289.75383,0,289.75383)"><image
               sodipodi:absref="D:\itchio/itchio_img1.png"
               xlink:href="itchio/itchio_img1.png"
               id="image3062"
               height="1"
               width="1" /></g></g></g></g></pattern><clipPath
     id="clipPath3048"
     clipPathUnits="userSpaceOnUse"><path
       inkscape:connector-curvature="0"
       id="path3050"
       d="m 0,0 936.382,0 0,289.754 L 0,289.754 0,0 z" /></clipPath><clipPath
     id="clipPath3044"
     clipPathUnits="userSpaceOnUse"><path
       inkscape:connector-curvature="0"
       id="path3046"
       d="m 69.7139,645.352 461.0151,0 0,-147.157 -461.0151,0 0,147.157 z" /></clipPath><clipPath
     id="clipPath3040"
     clipPathUnits="userSpaceOnUse"><path
       inkscape:connector-curvature="0"
       id="path3042"
       d="m 69.7139,645.352 461.0151,0 0,-147.157 -461.0151,0 0,147.157 z" /></clipPath><clipPath
     id="clipPath3032"
     clipPathUnits="userSpaceOnUse"><path
       inkscape:connector-curvature="0"
       id="path3034"
       d="m 0,0 595.275,0 0,841.89 L 0,841.89 0,0 z" /></clipPath><clipPath
     id="clipPath3018"
     clipPathUnits="userSpaceOnUse"><path
       inkscape:connector-curvature="0"
       id="path3020"
       d="m 11.248,336.111 578.139,0 0,477.307 -578.139,0 0,-477.307 z" /></clipPath></defs><sodipodi:namedview
   pagecolor="#ffffff"
   bordercolor="#666666"
   borderopacity="1"
   objecttolerance="10"
   gridtolerance="10"
   guidetolerance="10"
   inkscape:pageopacity="0"
   inkscape:pageshadow="2"
   inkscape:window-width="1280"
   inkscape:window-height="972"
   id="namedview3049"
   showgrid="false"
   inkscape:zoom="2.7053572"
   inkscape:cx="123.91092"
   inkscape:cy="61.637052"
   inkscape:window-x="1272"
   inkscape:window-y="-8"
   inkscape:window-maximized="1"
   inkscape:current-layer="Layer_1" />
<path
   fill="#383838"
   d="M24,11c-0.6,0.3-1.2,0.4-1.9,0.5c0.7-0.4,1.2-1,1.4-1.8c-0.6,0.4-1.3,0.6-2.1,0.8c-0.6-0.6-1.5-1-2.4-1  c-1.8,0-3.3,1.5-3.3,3.3c0,0.3,0,0.5,0.1,0.7c-2.7-0.1-5.1-1.4-6.8-3.4c-0.3,0.5-0.4,1-0.4,1.7c0,1.1,0.6,2.1,1.5,2.7  c-0.5,0-1-0.2-1.5-0.4l0,0c0,1.6,1.1,2.9,2.6,3.2c-0.4,0.3-1,0.3-1.5,0c0.4,1.3,1.6,2.3,3.1,2.3c-1.1,0.9-2.5,1.4-4.1,1.4  c-0.3,0-0.5,0-0.8,0c1.5,0.9,3.2,1.5,5,1.5c6,0,9.3-5,9.3-9.3c0-0.1,0-0.3,0-0.4C23,12.3,23.6,11.7,24,11z"
   id="path3021"
   style="fill:#494d7e;fill-opacity:1" />
<path
   fill="#383838"
   d="M78,16v8h3v-8h2l1-3h-3c0,0,0-0.5,0-1.3c0-0.3,0.2-0.7,0.7-0.7c1,0,2.9,0,2.3,0V8c0,0-1.6,0-3.3,0  C79,8,78,9.3,78,10.8s0,2.3,0,2.3h-2v3h2V16z"
   id="path3023"
   style="fill:#494d7e;fill-opacity:1" />

<path
   fill="#383838"
   d="M170,20c-1.1,0-2,0.9-2,2c0,1.1,0.9,2,2,2c1.1,0,2-0.9,2-2C172.1,21,171.1,20,170,20z M168,13.4v3.1  c4.2,0,7.5,3.6,7.5,7.5h3.1C178.6,18.2,173.8,13.4,168,13.4z M168,8v3.1c7.1,0,12.9,5.8,12.9,12.9h3.1C184,15.2,176.8,8,168,8z"
   id="path3027"
   style="fill:#494d7e;fill-opacity:1" />
<path
   fill="#383838"
   d="M50.8,17.1c-0.6,0-1.1,0.7-1.1,1.6c0,0.9,0.5,1.6,1.1,1.6c0.6,0,1.1-0.7,1.1-1.6  C51.9,17.8,51.4,17.1,50.8,17.1z M54.7,13.1c0.1-0.3,0.1-2.1-0.6-3.8c0,0-1.6,0.2-4,1.8c-0.5-0.1-1.3-0.2-2.2-0.2s-1.7,0.1-2.2,0.2  c-2.4-1.6-4-1.8-4-1.8c-0.7,1.7-0.7,3.5-0.6,3.8C40.5,13.9,40,15,40,16.4c0,6.2,5.2,6.3,6.5,6.3c0.3,0,0.9,0,1.5,0  c0.6,0,1.2,0,1.5,0c1.3,0,6.5-0.1,6.5-6.3C56,15,55.5,13.9,54.7,13.1z M48,22L48,22c-3.3,0-5.9-0.4-5.9-3.6c0-0.8,0.3-1.5,0.9-2.1  c1.1-1,2.9-0.5,4.9-0.5c0,0,0,0,0,0c0,0,0,0,0,0c2.1,0,3.9-0.5,4.9,0.5c0.6,0.6,0.9,1.3,0.9,2.1C53.9,21.6,51.3,22,48,22z   M45.2,17.1c-0.6,0-1.1,0.7-1.1,1.6c0,0.9,0.5,1.6,1.1,1.6c0.6,0,1.1-0.7,1.1-1.6C46.4,17.8,45.9,17.1,45.2,17.1z"
   id="path3029"
   style="fill:#494d7e;fill-opacity:1" />
<path
   fill="#383838"
   d="M143.1,11.8c-0.2-1.7-1.4-3-2.5-3s-2,1.3-1.8,2.9c0.2,1.7,1.4,3,2.5,3.1C142.4,14.8,143.2,13.4,143.1,11.8z   M141.2,18c-1.8,0-3.4,1.1-3.4,2.6s1.3,2.6,3,2.6c2.5,0,3.4-1.1,3.4-2.6c0-0.2,0-0.3-0.1-0.5c-0.2-0.8-0.9-1.2-1.8-1.9  C142,18.1,141.6,18,141.2,18z M143.2,8.8c1,0.4,1.5,1.6,1.5,2.9c0,1-0.6,1.9-1.3,2.6c-0.7,0.6-0.9,0.9-0.9,1.4  c0,0.5,0.8,1.2,1.2,1.5c1.2,1,1.6,1.8,1.6,3.2c0,1.8-1.6,3.6-4.5,3.6c-2.6,0-4.7-1.1-4.7-2.9c0-1.8,2-3.6,4.5-3.6h0.8  c-0.3-0.4-0.6-0.8-0.6-1.4c0-0.3,0.1-0.6,0.2-1c-0.2,0-0.3,0-0.4,0c-2.1,0-3.5-1.6-3.5-3.6c0-1.9,1.9-3.6,4-3.6h4.6l-1,0.8H143.2  L143.2,8.8z M151,12h-2v2h-1v-2h-2v-1h2V9h1v2h2V12z"
   id="path3031"
   style="fill:#494d7e;fill-opacity:1" />

<path
   fill="#FFFFFF"
   d="M24,43c-0.6,0.3-1.2,0.4-1.9,0.5c0.7-0.4,1.2-1,1.4-1.8c-0.6,0.4-1.3,0.6-2.1,0.8c-0.6-0.6-1.5-1-2.4-1  c-1.8,0-3.3,1.5-3.3,3.3c0,0.3,0,0.5,0.1,0.7c-2.7-0.1-5.1-1.4-6.8-3.4c-0.3,0.5-0.4,1-0.4,1.7c0,1.1,0.6,2.1,1.5,2.7  c-0.5,0-1-0.2-1.5-0.4l0,0c0,1.6,1.1,2.9,2.6,3.2c-0.4,0.3-1,0.3-1.5,0c0.4,1.3,1.6,2.3,3.1,2.3c-1.1,0.9-2.5,1.4-4.1,1.4  c-0.3,0-0.5,0-0.8,0c1.5,0.9,3.2,1.5,5,1.5c6,0,9.3-5,9.3-9.3c0-0.1,0-0.3,0-0.4C23,44.3,23.6,43.7,24,43z"
   id="path3035" />
<path
   fill="#FFFFFF"
   d="M78,48v8h3v-8h2l1-3h-3c0,0,0-0.5,0-1.3c0-0.3,0.2-0.7,0.7-0.7c1,0,2.9,0,2.3,0v-3c0,0-1.6,0-3.3,0  C79,40,78,41.3,78,42.8s0,2.3,0,2.3h-2v3L78,48L78,48z"
   id="path3037" />

<path
   fill="#FFFFFF"
   d="M170,52c-1.1,0-2,0.9-2,2c0,1.1,0.9,2,2,2c1.1,0,2-0.9,2-2C172.1,53,171.1,52,170,52z M168,45.4v3.1  c4.2,0,7.5,3.6,7.5,7.5h3.1C178.6,50.2,173.8,45.4,168,45.4z M168,40v3.1c7.1,0,12.9,5.8,12.9,12.9h3.1C184,47.2,176.8,40,168,40z"
   id="path3041" />
<path
   fill="#FFFFFF"
   d="M50.8,49.1c-0.6,0-1.1,0.7-1.1,1.6c0,0.9,0.5,1.6,1.1,1.6c0.6,0,1.1-0.7,1.1-1.6  C51.9,49.8,51.4,49.1,50.8,49.1z M54.7,45.1c0.1-0.3,0.1-2.1-0.6-3.8c0,0-1.6,0.2-4,1.8c-0.5-0.1-1.3-0.2-2.2-0.2s-1.7,0.1-2.2,0.2  c-2.4-1.6-4-1.8-4-1.8c-0.7,1.7-0.7,3.5-0.6,3.8C40.5,45.9,40,47,40,48.4c0,6.2,5.2,6.3,6.5,6.3c0.3,0,0.9,0,1.5,0  c0.6,0,1.2,0,1.5,0c1.3,0,6.5-0.1,6.5-6.3C56,47,55.5,45.9,54.7,45.1z M48,54L48,54c-3.3,0-5.9-0.4-5.9-3.6c0-0.8,0.3-1.5,0.9-2.1  c1.1-1,2.9-0.5,4.9-0.5c0,0,0,0,0,0c0,0,0,0,0,0c2.1,0,3.9-0.5,4.9,0.5c0.6,0.6,0.9,1.3,0.9,2.1C53.9,53.6,51.3,54,48,54z   M45.2,49.1c-0.6,0-1.1,0.7-1.1,1.6c0,0.9,0.5,1.6,1.1,1.6c0.6,0,1.1-0.7,1.1-1.6C46.4,49.8,45.9,49.1,45.2,49.1z"
   id="path3043" />
<path
   fill="#FFFFFF"
   d="M143.1,43.8c-0.2-1.7-1.4-3-2.5-3s-2,1.3-1.8,2.9c0.2,1.7,1.4,3,2.5,3.1C142.4,46.8,143.2,45.4,143.1,43.8z   M141.2,50c-1.8,0-3.4,1.1-3.4,2.6c0,1.4,1.3,2.6,3,2.6c2.5,0,3.4-1.1,3.4-2.6c0-0.2,0-0.3-0.1-0.5c-0.2-0.8-0.9-1.2-1.8-1.9  C142,50.1,141.6,50,141.2,50z M143.2,40.8c1,0.4,1.5,1.6,1.5,2.9c0,1-0.6,1.9-1.3,2.6c-0.7,0.6-0.9,0.9-0.9,1.4  c0,0.5,0.8,1.2,1.2,1.5c1.2,1,1.6,1.8,1.6,3.2c0,1.8-1.6,3.6-4.5,3.6c-2.6,0-4.7-1.1-4.7-2.9c0-1.8,2-3.6,4.5-3.6h0.8  c-0.3-0.4-0.6-0.8-0.6-1.4c0-0.3,0.1-0.6,0.2-1c-0.2,0-0.3,0-0.4,0c-2.1,0-3.5-1.6-3.5-3.6c0-1.9,1.9-3.6,4-3.6h4.6l-1,0.8H143.2  L143.2,40.8z M151,44h-2v2h-1v-2h-2v-1h2v-2h1v2h2V44z"
   id="path3045" />

<path
   id="path3286-9"
   style="fill:#494d7e;fill-opacity:1;stroke:none"
   d="m 110.70808,17.652702 -1.26933,1.361583 1.25047,0 0,1.40372 2.49286,0 0,-1.40372 1.33362,0 -1.26933,-1.361583 -1.26921,-1.361456 z m -4.12404,-4.738241 c -0.0941,0.168046 -0.22511,0.311707 -0.36064,0.4466 -0.37329,0.371145 -0.88806,0.60107 -1.45206,0.60107 -0.14514,0 -0.51565,-0.08542 -0.51565,-0.08542 l 0,10.123287 15.58986,0 0,-10.18023 c -0.23271,0.09149 -0.42859,0.142359 -0.69281,0.142359 -0.56463,0 -1.07877,-0.229672 -1.45206,-0.60107 -0.13527,-0.134766 -0.25081,-0.287755 -0.34483,-0.455548 -0.0943,0.168173 -0.21246,0.320529 -0.34798,0.455548 -0.3733,0.370891 -0.88491,0.60107 -1.4489,0.60107 -0.56437,0 -1.07889,-0.229672 -1.45206,-0.60107 -0.13527,-0.134766 -0.25397,-0.287881 -0.34799,-0.455548 -0.0943,0.168047 -0.20917,0.320529 -0.34482,0.455548 -0.3733,0.370891 -0.88794,0.60107 -1.45206,0.60107 -0.56437,0 -1.07889,-0.229672 -1.45206,-0.60107 -0.1354,-0.134513 -0.2508,-0.287881 -0.34482,-0.455548 -0.0943,0.168047 -0.21221,0.320655 -0.34799,0.455548 -0.37317,0.371145 -0.8849,0.60107 -1.4489,0.60107 -0.56437,0 -1.07889,-0.229672 -1.45205,-0.60107 -0.13528,-0.134513 -0.23803,-0.278933 -0.33218,-0.4466 z m 2.24295,1.870187 c 0.68003,0 1.16367,0.440236 1.335,1.104071 l 3.75827,0 c 0.17121,-0.663835 0.65182,-1.104071 1.33185,-1.104071 1.08015,0 2.26774,1.109133 2.63838,2.464388 l 0.88579,3.236289 c 0.37076,1.355254 -0.21044,2.464386 -1.29072,2.464386 -0.9483,0 -1.9791,-0.854658 -2.46755,-1.980368 l -5.95692,0 c -0.48845,1.12571 -1.51913,1.980368 -2.46755,1.980368 -1.08029,0 -1.66149,-1.109132 -1.29072,-2.464386 l 0.88578,-3.236289 c 0.37077,-1.355255 1.5581,-2.464388 2.63839,-2.464388 z m -3.45774,-6.7794376 -2.32836,2.7332866 0,0.778228 c 0,0.986676 0.90692,1.853826 1.73045,1.853826 0.9888,0 1.81263,-0.8334 1.8127,-1.822191 0,0.988791 0.79544,1.822191 1.78423,1.822191 0.9888,0 1.75893,-0.8334 1.75893,-1.822191 -1.1e-4,0.988791 0.84605,1.822191 1.83484,1.822191 0.98867,0 1.80954,-0.8334 1.80954,-1.822191 0,0.988791 0.79873,1.822191 1.78739,1.822191 0.98879,0 1.75576,-0.8334 1.75576,-1.822191 0,0.988791 0.84934,1.822191 1.83801,1.822191 0.98879,0 1.80637,-0.8334 1.80637,-1.822191 l 0,-0.809863 -2.53082,-2.7332866 c -4.41847,-0.01172 -13.05904,0 -13.05904,0 z"
   inkscape:connector-curvature="0" /><path
   d="m 213.56579,21.634111 -2.37156,0 0,-3.713189 c 0,-0.8859 -0.0162,-2.024833 -1.23314,-2.024833 -1.23494,0 -1.42404,0.964722 -1.42404,1.960677 l 0,3.777345 -2.3714,0 0,-7.635633 2.27647,0 0,1.043233 0.0316,0 c 0.31663,-0.6003 1.09079,-1.233289 2.24536,-1.233289 2.40309,0 2.84675,1.581511 2.84675,3.637322 l 0,4.188367 z m -10.07462,-8.679467 c -0.76064,0 -1.3763,-0.616755 -1.3763,-1.376311 0,-0.758889 0.61566,-1.375555 1.3763,-1.375555 0.75863,0 1.37516,0.616666 1.37516,1.375555 0,0.759556 -0.61653,1.376311 -1.37516,1.376311 z m 1.18606,8.679467 -2.37326,0 0,-7.635633 2.37326,0 0,7.635633 z m 10.07045,-13.6341107 -13.6349,0 c -0.65156,0 -1.18099,0.516444 -1.18099,1.153222 l 0,13.6922217 c 0,0.637325 0.52943,1.154556 1.18099,1.154556 l 13.6349,0 c 0.65267,0 1.18433,-0.517231 1.18433,-1.154556 l 0,-13.6922217 c 0,-0.636778 -0.53166,-1.153222 -1.18433,-1.153222"
   style="fill:#494d7e;fill-opacity:1;fill-rule:nonzero;stroke:none"
   id="path14-4"
   inkscape:connector-curvature="0" /><path
   id="path3286-9-8"
   style="fill:#ffffff;fill-opacity:1;stroke:none"
   d="m 110.70808,49.652702 -1.26933,1.361582 1.25047,0 0,1.40372 2.49286,0 0,-1.40372 1.33362,0 -1.26933,-1.361582 -1.26921,-1.361456 z m -4.12404,-4.738241 c -0.0941,0.168046 -0.22511,0.311707 -0.36064,0.4466 -0.37329,0.371145 -0.88806,0.60107 -1.45206,0.60107 -0.14514,0 -0.51565,-0.08542 -0.51565,-0.08542 l 0,10.123287 15.58986,0 0,-10.18023 c -0.23271,0.09149 -0.42859,0.142359 -0.69281,0.142359 -0.56463,0 -1.07877,-0.229672 -1.45206,-0.60107 -0.13527,-0.134766 -0.25081,-0.287755 -0.34483,-0.455548 -0.0943,0.168173 -0.21246,0.320529 -0.34798,0.455548 -0.3733,0.370891 -0.88491,0.60107 -1.4489,0.60107 -0.56437,0 -1.07889,-0.229672 -1.45206,-0.60107 -0.13527,-0.134766 -0.25397,-0.287881 -0.34799,-0.455548 -0.0943,0.168047 -0.20917,0.320529 -0.34482,0.455548 -0.3733,0.370891 -0.88794,0.60107 -1.45206,0.60107 -0.56437,0 -1.07889,-0.229672 -1.45206,-0.60107 -0.1354,-0.134513 -0.2508,-0.287881 -0.34482,-0.455548 -0.0943,0.168047 -0.21221,0.320655 -0.34799,0.455548 -0.37317,0.371145 -0.8849,0.60107 -1.4489,0.60107 -0.56437,0 -1.07889,-0.229672 -1.45205,-0.60107 -0.13528,-0.134513 -0.23803,-0.278933 -0.33218,-0.4466 z m 2.24295,1.870187 c 0.68003,0 1.16367,0.440236 1.335,1.104071 l 3.75827,0 c 0.17121,-0.663835 0.65182,-1.104071 1.33185,-1.104071 1.08015,0 2.26774,1.109133 2.63838,2.464388 l 0.88579,3.236288 c 0.37076,1.355255 -0.21044,2.464387 -1.29072,2.464387 -0.9483,0 -1.9791,-0.854658 -2.46755,-1.980368 l -5.95692,0 c -0.48845,1.12571 -1.51913,1.980368 -2.46755,1.980368 -1.08029,0 -1.66149,-1.109132 -1.29072,-2.464387 l 0.88578,-3.236288 c 0.37077,-1.355255 1.5581,-2.464388 2.63839,-2.464388 z m -3.45774,-6.779438 -2.32836,2.733287 0,0.778228 c 0,0.986676 0.90692,1.853826 1.73045,1.853826 0.9888,0 1.81263,-0.8334 1.8127,-1.822191 0,0.988791 0.79544,1.822191 1.78423,1.822191 0.9888,0 1.75893,-0.8334 1.75893,-1.822191 -1.1e-4,0.988791 0.84605,1.822191 1.83484,1.822191 0.98867,0 1.80954,-0.8334 1.80954,-1.822191 0,0.988791 0.79873,1.822191 1.78739,1.822191 0.98879,0 1.75576,-0.8334 1.75576,-1.822191 0,0.988791 0.84934,1.822191 1.83801,1.822191 0.98879,0 1.80637,-0.8334 1.80637,-1.822191 l 0,-0.809863 -2.53082,-2.733287 c -4.41847,-0.01172 -13.05904,0 -13.05904,0 z"
   inkscape:connector-curvature="0" /><path
   d="m 213.56579,53.634111 -2.37156,0 0,-3.713189 c 0,-0.885899 -0.0162,-2.024832 -1.23314,-2.024832 -1.23494,0 -1.42404,0.964721 -1.42404,1.960676 l 0,3.777345 -2.3714,0 0,-7.635632 2.27647,0 0,1.043233 0.0316,0 c 0.31663,-0.600301 1.09079,-1.233289 2.24536,-1.233289 2.40309,0 2.84675,1.581511 2.84675,3.637321 l 0,4.188367 z m -10.07462,-8.679467 c -0.76064,0 -1.3763,-0.616754 -1.3763,-1.376311 0,-0.758889 0.61566,-1.375555 1.3763,-1.375555 0.75863,0 1.37516,0.616667 1.37516,1.375555 0,0.759557 -0.61653,1.376311 -1.37516,1.376311 z m 1.18606,8.679467 -2.37326,0 0,-7.635632 2.37326,0 0,7.635632 z m 10.07045,-13.63411 -13.6349,0 c -0.65156,0 -1.18099,0.516444 -1.18099,1.153222 l 0,13.692221 c 0,0.637325 0.52943,1.154556 1.18099,1.154556 l 13.6349,0 c 0.65267,0 1.18433,-0.517231 1.18433,-1.154556 l 0,-13.692222 C 215.93201,40.516444 215.40035,40 214.74768,40"
   style="fill:#ffffff;fill-opacity:1;fill-rule:nonzero;stroke:none"
   id="path14-4-8"
   inkscape:connector-curvature="0" /></svg>