<?xml version="1.0" encoding="UTF-8" standalone="no"?>
<!-- Generator: Adobe Illustrator 17.1.0, SVG Export Plug-In . SVG Version: 6.00 Build 0)  -->

<svg
   version="1.1"
   id="Layer_1"
   x="0px"
   y="0px"
   width="224px"
   height="64px"
   viewBox="0 0 224 64"
   enable-background="new 0 0 224 64"
   xml:space="preserve"
   inkscape:version="1.1.2 (0a00cf5339, 2022-02-04)"
   sodipodi:docname="socials-icons.svg"
   inkscape:export-filename="/home/nemo/workspace/mode13h.io/assets/css/images/socials-icons.png"
   inkscape:export-xdpi="96"
   inkscape:export-ydpi="96"
   xmlns:inkscape="http://www.inkscape.org/namespaces/inkscape"
   xmlns:sodipodi="http://sodipodi.sourceforge.net/DTD/sodipodi-0.dtd"
   xmlns:xlink="http://www.w3.org/1999/xlink"
   xmlns="http://www.w3.org/2000/svg"
   xmlns:svg="http://www.w3.org/2000/svg"
   xmlns:rdf="http://www.w3.org/1999/02/22-rdf-syntax-ns#"
   xmlns:cc="http://creativecommons.org/ns#"
   xmlns:dc="http://purl.org/dc/elements/1.1/"><metadata
   id="metadata3053"><rdf:RDF><cc:Work
       rdf:about=""><dc:format>image/svg+xml</dc:format><dc:type
         rdf:resource="http://purl.org/dc/dcmitype/StillImage" /></cc:Work></rdf:RDF></metadata><defs
   id="defs3051"><clipPath
     id="clipPath3754"
     clipPathUnits="userSpaceOnUse"><path
       inkscape:connector-curvature="0"
       id="path3756"
       d="m 89.1001,506.487 123.8089,0 0,-103.174 -123.8089,0 0,103.174 z" /></clipPath><mask
     id="mask3724"
     height="1"
     width="1"
     y="0"
     x="0"
     maskUnits="userSpaceOnUse"><g
       id="g3726"><g
         id="g3728"
         clip-path="url(#clipPath3712)"><path
           inkscape:connector-curvature="0"
           id="path3730"
           style="fill:#000000;fill-opacity:1;fill-rule:nonzero;stroke:none"
           d="m 89.1,506.487 123.809,0 0,-103.173 -123.809,0 0,103.173 z" /><g
           id="g3732"><g
             id="g3734" /><g
             id="g3736"><g
               id="g3738"
               clip-path="url(#clipPath3716)"><path
                 inkscape:connector-curvature="0"
                 id="path3740"
                 style="fill:#000000;fill-opacity:1;fill-rule:nonzero;stroke:none"
                 d="m 79.386,403.313 133.522,0 0,82.464 -133.522,0 0,-82.464 z" /><g
                 id="g3742"><g
                   id="g3744"
                   clip-path="url(#clipPath3720)"><g
                     id="g3746"
                     transform="matrix(0,-97.017441,133.52258,0,79.386108,573.09375)"><image
                       xlink:href="itchio/itchio_img10.png"
                       id="image3748"
                       transform="matrix(1,0,0,-1,0,1)"
                       height="1"
                       width="1" /></g></g></g></g></g></g></g></g></mask><clipPath
     id="clipPath3720"
     clipPathUnits="userSpaceOnUse"><path
       inkscape:connector-curvature="0"
       id="path3722"
       d="m 79.386,476.077 133.522,0 0,97.017 -133.522,0 0,-97.017 z" /></clipPath><clipPath
     id="clipPath3716"
     clipPathUnits="userSpaceOnUse"><path
       inkscape:connector-curvature="0"
       id="path3718"
       d="m 89.1001,506.487 123.8089,0 0,-103.174 -123.8089,0 0,103.174 z" /></clipPath><clipPath
     id="clipPath3712"
     clipPathUnits="userSpaceOnUse"><path
       inkscape:connector-curvature="0"
       id="path3714"
       d="m 89.1001,506.487 123.8089,0 0,-103.174 -123.8089,0 0,103.174 z" /></clipPath><clipPath
     id="clipPath3696"
     clipPathUnits="userSpaceOnUse"><path
       inkscape:connector-curvature="0"
       id="path3698"
       d="m 473.069,584.186 50.393,0 0,-18.91 -50.393,0 0,18.91 z" /></clipPath><mask
     id="mask3666"
     height="1"
     width="1"
     y="0"
     x="0"
     maskUnits="userSpaceOnUse"><g
       id="g3668"><g
         id="g3670"
         clip-path="url(#clipPath3654)"><path
           inkscape:connector-curvature="0"
           id="path3672"
           style="fill:#000000;fill-opacity:1;fill-rule:nonzero;stroke:none"
           d="m 473.069,584.186 50.393,0 0,-18.909 -50.393,0 0,18.909 z" /><g
           id="g3674"><g
             id="g3676" /><g
             id="g3678"><g
               id="g3680"
               clip-path="url(#clipPath3658)"><g
                 id="g3682"><g
                   id="g3684"
                   clip-path="url(#clipPath3662)"><g
                     id="g3686"><g
                       id="g3688"
                       transform="matrix(13.33493,-123.09059,296.71326,32.144226,224.88245,628.72005)"><image
                         xlink:href="itchio/itchio_img9.png"
                         id="image3690"
                         transform="matrix(1,0,0,-1,0,1)"
                         height="1"
                         width="1" /></g></g></g></g></g></g></g></g></g></mask><clipPath
     id="clipPath3662"
     clipPathUnits="userSpaceOnUse"><path
       inkscape:connector-curvature="0"
       id="path3664"
       d="m 362.514,643.63 -7.297,-0.79 -118.867,-12.878 0,-107.095 0,-0.004 160.944,0 126.168,13.668 0,107.099 -160.948,0 z" /></clipPath><clipPath
     id="clipPath3658"
     clipPathUnits="userSpaceOnUse"><path
       inkscape:connector-curvature="0"
       id="path3660"
       d="m 473.069,584.186 50.393,0 0,-18.91 -50.393,0 0,18.91 z" /></clipPath><clipPath
     id="clipPath3654"
     clipPathUnits="userSpaceOnUse"><path
       inkscape:connector-curvature="0"
       id="path3656"
       d="m 473.069,584.186 50.393,0 0,-18.91 -50.393,0 0,18.91 z" /></clipPath><clipPath
     id="clipPath3638"
     clipPathUnits="userSpaceOnUse"><path
       inkscape:connector-curvature="0"
       id="path3640"
       d="m 445.769,605.711 20.245,0 0,-43.351 -20.245,0 0,43.351 z" /></clipPath><mask
     id="mask3608"
     height="1"
     width="1"
     y="0"
     x="0"
     maskUnits="userSpaceOnUse"><g
       id="g3610"><g
         id="g3612"
         clip-path="url(#clipPath3596)"><path
           inkscape:connector-curvature="0"
           id="path3614"
           style="fill:#000000;fill-opacity:1;fill-rule:nonzero;stroke:none"
           d="m 445.769,605.711 20.245,0 0,-43.351 -20.245,0 0,43.351 z" /><g
           id="g3616"><g
             id="g3618" /><g
             id="g3620"><g
               id="g3622"
               clip-path="url(#clipPath3600)"><g
                 id="g3624"><g
                   id="g3626"
                   clip-path="url(#clipPath3604)"><g
                     id="g3628"><g
                       id="g3630"
                       transform="matrix(13.137772,-121.27063,183.14748,19.841156,281.76366,633.96158)"><image
                         xlink:href="itchio/itchio_img8.png"
                         id="image3632"
                         transform="matrix(1,0,0,-1,0,1)"
                         height="1"
                         width="1" /></g></g></g></g></g></g></g></g></g></mask><clipPath
     id="clipPath3604"
     clipPathUnits="userSpaceOnUse"><path
       inkscape:connector-curvature="0"
       id="path3606"
       d="m 371.016,643.63 -77.216,-8.364 0,-112.403 94.997,0 77.217,8.365 0,112.397 -0.001,0.005 -94.997,0 z" /></clipPath><clipPath
     id="clipPath3600"
     clipPathUnits="userSpaceOnUse"><path
       inkscape:connector-curvature="0"
       id="path3602"
       d="m 445.769,605.711 20.245,0 0,-43.351 -20.245,0 0,43.351 z" /></clipPath><clipPath
     id="clipPath3596"
     clipPathUnits="userSpaceOnUse"><path
       inkscape:connector-curvature="0"
       id="path3598"
       d="m 445.769,605.711 20.245,0 0,-43.351 -20.245,0 0,43.351 z" /></clipPath><clipPath
     id="clipPath3580"
     clipPathUnits="userSpaceOnUse"><path
       inkscape:connector-curvature="0"
       id="path3582"
       d="m 360.751,603.384 54.103,0 0,-47.115 -54.103,0 0,47.115 z" /></clipPath><mask
     id="mask3550"
     height="1"
     width="1"
     y="0"
     x="0"
     maskUnits="userSpaceOnUse"><g
       id="g3552"><g
         id="g3554"
         clip-path="url(#clipPath3538)"><path
           inkscape:connector-curvature="0"
           id="path3556"
           style="fill:#000000;fill-opacity:1;fill-rule:nonzero;stroke:none"
           d="m 360.751,603.384 54.104,0 0,-47.115 -54.104,0 0,47.115 z" /><g
           id="g3558"><g
             id="g3560" /><g
             id="g3562"><g
               id="g3564"
               clip-path="url(#clipPath3542)"><g
                 id="g3566"><g
                   id="g3568"
                   clip-path="url(#clipPath3546)"><g
                     id="g3570"><g
                       id="g3572"
                       transform="matrix(13.192658,-121.77733,82.016251,8.8851776,332.30211,639.69296)"><image
                         xlink:href="itchio/itchio_img7.png"
                         id="image3574"
                         transform="matrix(1,0,0,-1,0,1)"
                         height="1"
                         width="1" /></g></g></g></g></g></g></g></g></g></mask><clipPath
     id="clipPath3546"
     clipPathUnits="userSpaceOnUse"><path
       inkscape:connector-curvature="0"
       id="path3548"
       d="m 368.649,643.63 -1.777,-0.192 -21.914,-2.374 0,-118.197 10e-4,-0.004 46.204,0 23.691,2.567 0,118.2 -46.205,0 z" /></clipPath><clipPath
     id="clipPath3542"
     clipPathUnits="userSpaceOnUse"><path
       inkscape:connector-curvature="0"
       id="path3544"
       d="m 360.751,603.384 54.103,0 0,-47.115 -54.103,0 0,47.115 z" /></clipPath><clipPath
     id="clipPath3538"
     clipPathUnits="userSpaceOnUse"><path
       inkscape:connector-curvature="0"
       id="path3540"
       d="m 360.751,603.384 54.103,0 0,-47.115 -54.103,0 0,47.115 z" /></clipPath><clipPath
     id="clipPath3522"
     clipPathUnits="userSpaceOnUse"><path
       inkscape:connector-curvature="0"
       id="path3524"
       d="m 304.689,584.186 51.541,0 0,-29.747 -51.541,0 0,29.747 z" /></clipPath><mask
     id="mask3492"
     height="1"
     width="1"
     y="0"
     x="0"
     maskUnits="userSpaceOnUse"><g
       id="g3494"><g
         id="g3496"
         clip-path="url(#clipPath3480)"><path
           inkscape:connector-curvature="0"
           id="path3498"
           style="fill:#000000;fill-opacity:1;fill-rule:nonzero;stroke:none"
           d="m 304.689,584.186 51.541,0 0,-29.747 -51.541,0 0,29.747 z" /><g
           id="g3500"><g
             id="g3502" /><g
             id="g3504"><g
               id="g3506"
               clip-path="url(#clipPath3484)"><g
                 id="g3508"><g
                   id="g3510"
                   clip-path="url(#clipPath3488)"><g
                     id="g3512"><g
                       id="g3514"
                       transform="matrix(13.208954,-121.92781,161.62099,17.509094,292.49132,635.45624)"><image
                         xlink:href="itchio/itchio_img6.png"
                         id="image3516"
                         transform="matrix(1,0,0,-1,0,1)"
                         height="1"
                         width="1" /></g></g></g></g></g></g></g></g></g></mask><clipPath
     id="clipPath3488"
     clipPathUnits="userSpaceOnUse"><path
       inkscape:connector-curvature="0"
       id="path3490"
       d="m 367.947,643.63 -63.257,-6.853 0,-113.914 87.175,0 9.261,1.003 53.998,5.851 0,113.911 -0.001,0.002 -87.176,0 z" /></clipPath><clipPath
     id="clipPath3484"
     clipPathUnits="userSpaceOnUse"><path
       inkscape:connector-curvature="0"
       id="path3486"
       d="m 304.689,584.186 51.541,0 0,-29.747 -51.541,0 0,29.747 z" /></clipPath><clipPath
     id="clipPath3480"
     clipPathUnits="userSpaceOnUse"><path
       inkscape:connector-curvature="0"
       id="path3482"
       d="m 304.689,584.186 51.541,0 0,-29.747 -51.541,0 0,29.747 z" /></clipPath><clipPath
     id="clipPath3464"
     clipPathUnits="userSpaceOnUse"><path
       inkscape:connector-curvature="0"
       id="path3466"
       d="m 261.888,596.868 39.559,0 0,-42.796 -39.559,0 0,42.796 z" /></clipPath><mask
     id="mask3434"
     height="1"
     width="1"
     y="0"
     x="0"
     maskUnits="userSpaceOnUse"><g
       id="g3436"><g
         id="g3438"
         clip-path="url(#clipPath3422)"><path
           inkscape:connector-curvature="0"
           id="path3440"
           style="fill:#000000;fill-opacity:1;fill-rule:nonzero;stroke:none"
           d="m 261.888,596.868 39.559,0 0,-42.795 -39.559,0 0,42.795 z" /><g
           id="g3442"><g
             id="g3444" /><g
             id="g3446"><g
               id="g3448"
               clip-path="url(#clipPath3426)"><g
                 id="g3450"><g
                   id="g3452"
                   clip-path="url(#clipPath3430)"><g
                     id="g3454"><g
                       id="g3456"
                       transform="matrix(13.162506,-121.4989,246.22993,26.67514,250.21049,630.65884)"><image
                         xlink:href="itchio/itchio_img5.png"
                         id="image3458"
                         transform="matrix(1,0,0,-1,0,1)"
                         height="1"
                         width="1" /></g></g></g></g></g></g></g></g></g></mask><clipPath
     id="clipPath3430"
     clipPathUnits="userSpaceOnUse"><path
       inkscape:connector-curvature="0"
       id="path3432"
       d="m 369.948,643.63 -108.06,-11.706 0,-109.057 0.001,-0.004 127.976,0 8.096,0.877 99.964,10.83 0,109.056 -0.001,0.004 -127.976,0 z" /></clipPath><clipPath
     id="clipPath3426"
     clipPathUnits="userSpaceOnUse"><path
       inkscape:connector-curvature="0"
       id="path3428"
       d="m 261.888,596.868 39.559,0 0,-42.796 -39.559,0 0,42.796 z" /></clipPath><clipPath
     id="clipPath3422"
     clipPathUnits="userSpaceOnUse"><path
       inkscape:connector-curvature="0"
       id="path3424"
       d="m 261.888,596.868 39.559,0 0,-42.796 -39.559,0 0,42.796 z" /></clipPath><clipPath
     id="clipPath3406"
     clipPathUnits="userSpaceOnUse"><path
       inkscape:connector-curvature="0"
       id="path3408"
       d="m 238.636,605.711 20.244,0 0,-51.636 -20.244,0 0,51.636 z" /></clipPath><mask
     id="mask3376"
     height="1"
     width="1"
     y="0"
     x="0"
     maskUnits="userSpaceOnUse"><g
       id="g3378"><g
         id="g3380"
         clip-path="url(#clipPath3364)"><path
           inkscape:connector-curvature="0"
           id="path3382"
           style="fill:#000000;fill-opacity:1;fill-rule:nonzero;stroke:none"
           d="m 238.636,605.711 20.245,0 0,-51.636 -20.245,0 0,51.636 z" /><g
           id="g3384"><g
             id="g3386" /><g
             id="g3388"><g
               id="g3390"
               clip-path="url(#clipPath3368)"><g
                 id="g3392"><g
                   id="g3394"
                   clip-path="url(#clipPath3372)"><g
                     id="g3396"><g
                       id="g3398"
                       transform="matrix(13.291458,-122.68929,292.1955,31.654785,227.1629,628.76416)"><image
                         xlink:href="itchio/itchio_img4.png"
                         id="image3400"
                         transform="matrix(1,0,0,-1,0,1)"
                         height="1"
                         width="1" /></g></g></g></g></g></g></g></g></g></mask><clipPath
     id="clipPath3372"
     clipPathUnits="userSpaceOnUse"><path
       inkscape:connector-curvature="0"
       id="path3374"
       d="m 364.388,643.63 -125.752,-13.623 0,-107.144 0,0 156.78,0 125.76,13.624 0,107.143 -156.788,0 z" /></clipPath><clipPath
     id="clipPath3368"
     clipPathUnits="userSpaceOnUse"><path
       inkscape:connector-curvature="0"
       id="path3370"
       d="m 238.636,605.711 20.244,0 0,-51.636 -20.244,0 0,51.636 z" /></clipPath><clipPath
     id="clipPath3364"
     clipPathUnits="userSpaceOnUse"><path
       inkscape:connector-curvature="0"
       id="path3366"
       d="m 238.636,605.711 20.244,0 0,-51.636 -20.244,0 0,51.636 z" /></clipPath><clipPath
     id="clipPath3292"
     clipPathUnits="userSpaceOnUse"><path
       inkscape:connector-curvature="0"
       id="path3294"
       d="m 0,0 595.275,0 0,841.89 L 0,841.89 0,0 z" /></clipPath><linearGradient
     id="linearGradient3280"
     spreadMethod="pad"
     gradientTransform="matrix(-9.7993164,28.855469,28.420776,9.6517029,154.10742,549.75439)"
     gradientUnits="userSpaceOnUse"
     y2="0"
     x2="1"
     y1="0"
     x1="0"><stop
       id="stop3282"
       offset="0"
       style="stop-opacity:1;stop-color:#ff3b3b" /><stop
       id="stop3284"
       offset="1"
       style="stop-opacity:1;stop-color:#fefefe" /></linearGradient><clipPath
     id="clipPath3272"
     clipPathUnits="userSpaceOnUse"><path
       inkscape:connector-curvature="0"
       id="path3274"
       d="m 141.913,561.6 -10.031,-10.76 9.882,0 0,-11.093 19.7,0 0,11.093 10.539,0 -10.031,10.76 -10.03,10.759 -10.029,-10.759 z" /></clipPath><clipPath
     id="clipPath3256"
     clipPathUnits="userSpaceOnUse"><path
       inkscape:connector-curvature="0"
       id="path3258"
       d="m 105.826,584.266 94.755,0 0,-27.337 -94.755,0 0,27.337 z" /></clipPath><mask
     id="mask3218"
     height="1"
     width="1"
     y="0"
     x="0"
     maskUnits="userSpaceOnUse"><g
       id="g3220"><g
         id="g3222"
         clip-path="url(#clipPath3202)"><path
           inkscape:connector-curvature="0"
           id="path3224"
           style="fill:#000000;fill-opacity:1;fill-rule:nonzero;stroke:none"
           d="m 105.826,584.266 94.755,0 0,-27.337 -94.755,0 0,27.337 z" /><g
           id="g3226"><g
             id="g3228" /><g
             id="g3230"><g
               id="g3232"
               clip-path="url(#clipPath3206)"><g
                 id="g3234"><g
                   id="g3236"
                   clip-path="url(#clipPath3210)"><g
                     id="g3238"
                     transform="translate(289.0581,586.3975)"><path
                       inkscape:connector-curvature="0"
                       id="path3240"
                       style="fill:#000000;fill-opacity:1;fill-rule:nonzero;stroke:none"
                       d="M 0,0 -4.479,27.249 -196.761,-4.359 -192.282,-31.608 0,0 z" /></g></g></g><g
                 id="g3242"><g
                   id="g3244"
                   clip-path="url(#clipPath3214)"><g
                     id="g3246"><g
                       id="g3248"
                       transform="matrix(-11.750565,71.481995,-192.2814,-31.608154,299.63345,522.06323)"><image
                         xlink:href="itchio/itchio_img3.png"
                         id="image3250"
                         transform="matrix(1,0,0,-1,0,1)"
                         height="1"
                         width="1" /></g></g></g></g></g></g></g></g></g></mask><clipPath
     id="clipPath3214"
     clipPathUnits="userSpaceOnUse"><path
       inkscape:connector-curvature="0"
       id="path3216"
       d="m 231.432,584.266 -125.605,-20.649 0,-63.881 0,-10e-4 0,0 57.972,0 125.609,20.648 0,63.882 0,10e-4 -57.976,0 z" /></clipPath><clipPath
     id="clipPath3210"
     clipPathUnits="userSpaceOnUse"><path
       inkscape:connector-curvature="0"
       id="path3212"
       clip-rule="evenodd"
       d="m 105.826,499.735 183.582,0 0,84.53 -183.582,0 0,-84.53 z" /></clipPath><clipPath
     id="clipPath3206"
     clipPathUnits="userSpaceOnUse"><path
       inkscape:connector-curvature="0"
       id="path3208"
       d="m 105.826,584.266 94.755,0 0,-27.337 -94.755,0 0,27.337 z" /></clipPath><clipPath
     id="clipPath3202"
     clipPathUnits="userSpaceOnUse"><path
       inkscape:connector-curvature="0"
       id="path3204"
       d="m 105.826,584.266 94.755,0 0,-27.337 -94.755,0 0,27.337 z" /></clipPath><clipPath
     id="clipPath3174"
     clipPathUnits="userSpaceOnUse"><path
       inkscape:connector-curvature="0"
       id="path3176"
       d="m 89.8042,612.269 122.9278,0 0,-56.07 -122.9278,0 0,56.07 z" /></clipPath><mask
     id="mask3142"
     height="1"
     width="1"
     y="0"
     x="0"
     maskUnits="userSpaceOnUse"><g
       id="g3144"><g
         id="g3146"
         clip-path="url(#clipPath3130)"><path
           inkscape:connector-curvature="0"
           id="path3148"
           style="fill:#000000;fill-opacity:1;fill-rule:nonzero;stroke:none"
           d="m 89.804,612.269 122.928,0 0,-56.07 -122.928,0 0,56.07 z" /><g
           id="g3150"><g
             id="g3152" /><g
             id="g3154"><g
               id="g3156"
               clip-path="url(#clipPath3134)"><g
                 id="g3158"
                 transform="translate(89.8038,612.2682)"><path
                   inkscape:connector-curvature="0"
                   id="path3160"
                   style="fill:#000000;fill-opacity:1;fill-rule:nonzero;stroke:none"
                   d="M 0,0 0,-42.761 252.378,-28.869 252.378,0 0,0 z" /></g><g
                 id="g3162"><g
                   id="g3164"
                   clip-path="url(#clipPath3138)"><g
                     id="g3166"
                     transform="matrix(-2.9685516,53.932251,-257.92093,-14.196503,346.43802,534.94749)"><image
                       xlink:href="itchio/itchio_img2.png"
                       id="image3168"
                       transform="matrix(1,0,0,-1,0,1)"
                       height="1"
                       width="1" /></g></g></g></g></g></g></g></g></mask><clipPath
     id="clipPath3138"
     clipPathUnits="userSpaceOnUse"><path
       inkscape:connector-curvature="0"
       id="path3140"
       d="m 89.804,574.917 0,-54.095 252.378,13.891 0,54.096 -252.378,-13.892 z" /></clipPath><clipPath
     id="clipPath3134"
     clipPathUnits="userSpaceOnUse"><path
       inkscape:connector-curvature="0"
       id="path3136"
       d="m 89.8042,612.269 122.9278,0 0,-56.07 -122.9278,0 0,56.07 z" /></clipPath><clipPath
     id="clipPath3130"
     clipPathUnits="userSpaceOnUse"><path
       inkscape:connector-curvature="0"
       id="path3132"
       d="m 89.8042,612.269 122.9278,0 0,-56.07 -122.9278,0 0,56.07 z" /></clipPath><clipPath
     id="clipPath3122"
     clipPathUnits="userSpaceOnUse"><path
       inkscape:connector-curvature="0"
       id="path3124"
       d="m 0,0 595.275,0 0,841.89 L 0,841.89 0,0 z" /></clipPath><linearGradient
     id="linearGradient3110"
     spreadMethod="pad"
     gradientTransform="matrix(-45.096283,66.742752,69.362305,46.866257,174.09131,527.11914)"
     gradientUnits="userSpaceOnUse"
     y2="0"
     x2="1"
     y1="0"
     x1="0"><stop
       id="stop3112"
       offset="0"
       style="stop-opacity:1;stop-color:#9bdee3" /><stop
       id="stop3114"
       offset="1"
       style="stop-opacity:1;stop-color:#ffffff" /></linearGradient><clipPath
     id="clipPath3102"
     clipPathUnits="userSpaceOnUse"><path
       inkscape:connector-curvature="0"
       id="path3104"
       d="m 89.806,612.268 0,-18.478 c 1.063,-0.308 2.188,-0.472 3.35,-0.472 l 0,0 c 3.327,0 6.349,1.352 8.543,3.534 l 0,0 c 2.2,2.187 3.573,5.202 3.596,8.512 l 0,0 -0.009,0 0,0.016 4.144,0.008 0,-0.008 0.008,0 0,-0.016 -0.007,-0.007 c 0.023,-3.307 1.394,-6.315 3.588,-8.5 l 0,0 c 2.195,-2.184 5.22,-3.539 8.549,-3.539 l 0,0 c 3.327,0 6.35,1.352 8.543,3.534 l 0,0 c 2.2,2.187 3.573,5.202 3.596,8.512 l 0,0 -0.008,0 0,0.016 4.144,0.008 0,-0.008 0.007,0 0,-0.016 -0.007,-0.007 c 0.024,-3.307 1.395,-6.315 3.588,-8.5 l 0,0 c 2.195,-2.184 5.221,-3.539 8.549,-3.539 l 0,0 c 3.327,0 6.35,1.352 8.544,3.533 l 0,0 c 2.2,2.188 3.572,5.203 3.595,8.513 l 0,0 -0.008,0 0,0.016 4.144,0.008 0,-0.008 0.007,0 0,-0.016 -0.007,-0.007 c 0.024,-3.307 1.396,-6.315 3.588,-8.5 l 0,0 c 2.196,-2.184 5.222,-3.539 8.55,-3.539 l 0,0 c 3.327,0 6.349,1.352 8.543,3.533 l 0,0 c 2.2,2.188 3.573,5.203 3.595,8.513 l 0,0 -0.008,0 0,0.016 4.144,0.008 0,-0.008 0.008,0 0,-0.016 -0.008,-0.007 c 0.025,-3.307 1.395,-6.315 3.589,-8.5 l 0,0 c 2.195,-2.184 5.221,-3.539 8.55,-3.539 l 0,0 c 2.147,0 4.17,0.567 5.926,1.559 l 0,0 0,17.39 0,10e-4 -122.926,0 z m 100.051,-18.352 c -2.95,-2.931 -7.007,-4.751 -11.464,-4.751 l 0,0 c -4.46,0 -8.52,1.823 -11.469,4.758 l 0,0 c -1.069,1.065 -1.994,2.278 -2.737,3.603 l 0,0 c -0.745,-1.328 -1.671,-2.543 -2.743,-3.61 l 0,0 c -2.95,-2.931 -7.006,-4.751 -11.464,-4.751 l 0,0 c -4.46,0 -8.519,1.823 -11.468,4.758 l 0,0 c -1.07,1.063 -1.994,2.278 -2.737,3.603 l 0,0 c -0.745,-1.328 -1.671,-2.543 -2.744,-3.609 l 0,0 c -2.949,-2.933 -7.006,-4.752 -11.463,-4.752 l 0,0 c -4.46,0 -8.52,1.823 -11.469,4.758 l 0,0 c -1.069,1.063 -1.993,2.278 -2.737,3.603 l 0,0 c -0.744,-1.328 -1.671,-2.543 -2.742,-3.609 l 0,0 c -2.95,-2.933 -7.007,-4.752 -11.464,-4.752 l 0,0 c -1.147,0 -2.269,0.121 -3.35,0.35 l 0,0 0,-79.686 122.926,0 0,10e-4 0,80.457 c -1.839,-0.723 -3.838,-1.122 -5.926,-1.122 l 0,0 c -4.462,0 -8.521,1.823 -11.471,4.758 l 0,0 c -1.069,1.065 -1.993,2.277 -2.736,3.603 l 0,0 c -0.745,-1.329 -1.671,-2.543 -2.742,-3.61" /></clipPath><clipPath
     id="clipPath3086"
     clipPathUnits="userSpaceOnUse"><path
       inkscape:connector-curvature="0"
       id="path3088"
       d="m 69.7139,645.352 461.0151,0 0,-147.157 -461.0151,0 0,147.157 z" /></clipPath><mask
     id="mask3064"
     height="1"
     width="1"
     y="0"
     x="0"
     maskUnits="userSpaceOnUse"><g
       id="g3066"><g
         style="opacity:0.69799799"
         id="g3068"
         clip-path="url(#clipPath3040)"><path
           inkscape:connector-curvature="0"
           id="path3070"
           style="fill:#000000;fill-opacity:1;fill-rule:nonzero;stroke:none"
           d="m 69.714,645.352 461.016,0 0,-147.156 -461.016,0 0,147.156 z" /><g
           id="g3072"><g
             id="g3074" /><g
             id="g3076"><g
               id="g3078"
               clip-path="url(#clipPath3044)"><path
                 inkscape:connector-curvature="0"
                 id="path3080"
                 style="fill:url(#pattern3052);fill-opacity:1;fill-rule:evenodd;stroke:none"
                 d="m 69.714,498.195 461.016,0 0,147.156 -461.016,0 0,-147.156 z" /></g></g></g></g></g></mask><pattern
     id="pattern3052"
     height="289.754"
     width="936.382"
     y="0"
     x="0"
     patternUnits="userSpaceOnUse"
     patternTransform="matrix(0.49234,-0.00238037,0,-0.500183,69.7139,500.422)"><g
       id="g3054"><g
         id="g3056"
         clip-path="url(#clipPath3048)"><g
           id="g3058"><g
             id="g3060"
             transform="matrix(936.3819,0,0,-289.75383,0,289.75383)"><image
               xlink:href="itchio/itchio_img1.png"
               id="image3062"
               height="1"
               width="1" /></g></g></g></g></pattern><clipPath
     id="clipPath3048"
     clipPathUnits="userSpaceOnUse"><path
       inkscape:connector-curvature="0"
       id="path3050"
       d="m 0,0 936.382,0 0,289.754 L 0,289.754 0,0 z" /></clipPath><clipPath
     id="clipPath3044"
     clipPathUnits="userSpaceOnUse"><path
       inkscape:connector-curvature="0"
       id="path3046"
       d="m 69.7139,645.352 461.0151,0 0,-147.157 -461.0151,0 0,147.157 z" /></clipPath><clipPath
     id="clipPath3040"
     clipPathUnits="userSpaceOnUse"><path
       inkscape:connector-curvature="0"
       id="path3042"
       d="m 69.7139,645.352 461.0151,0 0,-147.157 -461.0151,0 0,147.157 z" /></clipPath><clipPath
     id="clipPath3032"
     clipPathUnits="userSpaceOnUse"><path
       inkscape:connector-curvature="0"
       id="path3034"
       d="m 0,0 595.275,0 0,841.89 L 0,841.89 0,0 z" /></clipPath><clipPath
     id="clipPath3018"
     clipPathUnits="userSpaceOnUse"><path
       inkscape:connector-curvature="0"
       id="path3020"
       d="m 11.248,336.111 578.139,0 0,477.307 -578.139,0 0,-477.307 z" /></clipPath><clipPath
     id="clip0"><rect
       width="292"
       height="56.4706"
       fill="white"
       transform="translate(0 11.7646)"
       id="rect4341" /></clipPath></defs><sodipodi:namedview
   pagecolor="#ffffff"
   bordercolor="#666666"
   borderopacity="1"
   objecttolerance="10"
   gridtolerance="10"
   guidetolerance="10"
   inkscape:pageopacity="0"
   inkscape:pageshadow="2"
   inkscape:window-width="1556"
   inkscape:window-height="991"
   id="namedview3049"
   showgrid="false"
   inkscape:zoom="2.7053572"
   inkscape:cx="13.491749"
   inkscape:cy="37.148514"
   inkscape:window-x="26"
   inkscape:window-y="23"
   inkscape:window-maximized="0"
   inkscape:current-layer="Layer_1"
   inkscape:pagecheckerboard="true" />
<path
   fill="#383838"
   d="M24,11c-0.6,0.3-1.2,0.4-1.9,0.5c0.7-0.4,1.2-1,1.4-1.8c-0.6,0.4-1.3,0.6-2.1,0.8c-0.6-0.6-1.5-1-2.4-1  c-1.8,0-3.3,1.5-3.3,3.3c0,0.3,0,0.5,0.1,0.7c-2.7-0.1-5.1-1.4-6.8-3.4c-0.3,0.5-0.4,1-0.4,1.7c0,1.1,0.6,2.1,1.5,2.7  c-0.5,0-1-0.2-1.5-0.4l0,0c0,1.6,1.1,2.9,2.6,3.2c-0.4,0.3-1,0.3-1.5,0c0.4,1.3,1.6,2.3,3.1,2.3c-1.1,0.9-2.5,1.4-4.1,1.4  c-0.3,0-0.5,0-0.8,0c1.5,0.9,3.2,1.5,5,1.5c6,0,9.3-5,9.3-9.3c0-0.1,0-0.3,0-0.4C23,12.3,23.6,11.7,24,11z"
   id="path3021"
   style="fill:#494d7e;fill-opacity:1" />
<path
   fill="#383838"
   d="M78,16v8h3v-8h2l1-3h-3c0,0,0-0.5,0-1.3c0-0.3,0.2-0.7,0.7-0.7c1,0,2.9,0,2.3,0V8c0,0-1.6,0-3.3,0  C79,8,78,9.3,78,10.8s0,2.3,0,2.3h-2v3h2V16z"
   id="path3023"
   style="fill:#494d7e;fill-opacity:1" />












<path
   d="m 213.56579,21.634111 -2.37156,0 0,-3.713189 c 0,-0.8859 -0.0162,-2.024833 -1.23314,-2.024833 -1.23494,0 -1.42404,0.964722 -1.42404,1.960677 l 0,3.777345 -2.3714,0 0,-7.635633 2.27647,0 0,1.043233 0.0316,0 c 0.31663,-0.6003 1.09079,-1.233289 2.24536,-1.233289 2.40309,0 2.84675,1.581511 2.84675,3.637322 l 0,4.188367 z m -10.07462,-8.679467 c -0.76064,0 -1.3763,-0.616755 -1.3763,-1.376311 0,-0.758889 0.61566,-1.375555 1.3763,-1.375555 0.75863,0 1.37516,0.616666 1.37516,1.375555 0,0.759556 -0.61653,1.376311 -1.37516,1.376311 z m 1.18606,8.679467 -2.37326,0 0,-7.635633 2.37326,0 0,7.635633 z m 10.07045,-13.6341107 -13.6349,0 c -0.65156,0 -1.18099,0.516444 -1.18099,1.153222 l 0,13.6922217 c 0,0.637325 0.52943,1.154556 1.18099,1.154556 l 13.6349,0 c 0.65267,0 1.18433,-0.517231 1.18433,-1.154556 l 0,-13.6922217 c 0,-0.636778 -0.53166,-1.153222 -1.18433,-1.153222"
   style="fill:#494d7e;fill-opacity:1;fill-rule:nonzero;stroke:none"
   id="path14-4"
   inkscape:connector-curvature="0" /><path
   d="M 106.08598,8.8923111 C 105.38807,9.3067041 104.01304,10.886346 104,11.300606 v 0.685718 c 0,0.869211 0.81248,1.633178 1.55017,1.633178 0.88577,0 1.62379,-0.734102 1.62385,-1.6054 0,0.871298 0.71272,1.6054 1.59856,1.6054 0.8859,0 1.57573,-0.734102 1.57573,-1.6054 0,0.871298 0.75783,1.6054 1.64367,1.6054 h 0.016 c 0.88591,0 1.64374,-0.734102 1.64374,-1.6054 0,0.871298 0.68989,1.6054 1.57567,1.6054 0.88584,0 1.59855,-0.734102 1.59855,-1.6054 0,0.871298 0.73815,1.6054 1.62385,1.6054 0.73769,0 1.55017,-0.763836 1.55017,-1.633178 v -0.685718 c -0.013,-0.414326 -1.38806,-1.9940329 -2.08584,-2.4082949 -2.16918,-0.07616 -3.67299,-0.08933 -5.91422,-0.08901 -2.24117,1.79e-4 -5.29665,0.03522 -5.91409,0.08901 z m 4.25111,4.3178209 a 1.8274296,1.8274296 0 0 1 -0.31169,0.40135 c -0.33438,0.326948 -0.79272,0.529612 -1.29801,0.529612 a 1.8572292,1.8572292 0 0 1 -1.30075,-0.529873 c -0.12116,-0.118677 -0.21323,-0.245571 -0.29754,-0.393329 l -4e-4,2.68e-4 c -0.0842,0.14802 -0.20162,0.274848 -0.32304,0.393655 a 1.858403,1.858403 0 0 1 -1.30075,0.529482 c -0.0609,0 -0.12428,-0.01682 -0.17554,-0.03443 -0.0712,0.741535 -0.10126,1.450206 -0.11189,1.966907 l -9e-5,0.0029 c -10e-4,0.262394 -0.003,0.478163 -0.004,0.77792 0.0137,1.555843 -0.15409,5.042728 0.68598,5.899484 1.30179,0.303539 3.69724,0.441778 6.10045,0.442626 h 3.7e-4 c 2.40313,-8.47e-4 4.79858,-0.139087 6.10038,-0.442626 0.84006,-0.856822 0.67229,-4.343707 0.68598,-5.899549 -0.001,-0.299692 -0.003,-0.515461 -0.004,-0.777921 l -1.8e-4,-0.0029 c -0.0106,-0.516833 -0.0406,-1.225438 -0.11183,-1.966973 -0.0513,0.01761 -0.11457,0.03443 -0.17554,0.03443 a 1.858403,1.858403 0 0 1 -1.30075,-0.529483 c -0.12141,-0.118806 -0.23879,-0.245569 -0.3231,-0.393654 l -3.7e-4,-2.68e-4 c -0.0844,0.147758 -0.17638,0.274717 -0.29754,0.393329 a 1.8570988,1.8570988 0 0 1 -1.30071,0.529809 c -0.50523,0 -0.96363,-0.202795 -1.29802,-0.529678 a 1.8274296,1.8274296 0 0 1 -0.31169,-0.40135 1.8251473,1.8251473 0 0 1 -0.30882,0.40135 1.8577509,1.8577509 0 0 1 -1.30088,0.529742 c -0.0176,0 -0.0352,-7.8e-4 -0.0528,-0.0013 H 112 c -0.0176,5.08e-4 -0.0352,0.0013 -0.053,0.0013 a 1.8577509,1.8577509 0 0 1 -1.30089,-0.529678 1.8252777,1.8252777 0 0 1 -0.30882,-0.401349 z m -1.33583,1.727336 -1.3e-4,6.61e-4 h 9.6e-4 c 0.52903,0.0011 0.99898,0 1.58128,0.635509 0.45827,-0.04806 0.93715,-0.07205 1.41643,-0.07134 h 3.6e-4 c 0.47927,-6.61e-4 0.95815,0.02328 1.4165,0.07134 0.5823,-0.635575 1.05224,-0.634466 1.58127,-0.635509 h 9e-4 l -1.3e-4,-6.61e-4 c 0.24994,0 1.24976,0 1.94644,1.956671 l 0.74831,2.684251 c 0.55452,1.996903 -0.17756,2.045743 -1.09072,2.047503 -1.35422,-0.05041 -2.10404,-1.033859 -2.10404,-2.017181 -0.74962,0.122849 -1.62411,0.184274 -2.4986,0.184339 h -3.7e-4 c -0.87456,0 -1.74905,-0.06149 -2.4986,-0.184339 0,0.983322 -0.74989,1.966776 -2.10404,2.017181 -0.91316,-0.0017 -1.64518,-0.05054 -1.09066,-2.047503 l 0.74852,-2.684186 c 0.69667,-1.95667 1.69649,-1.95667 1.94643,-1.95667 z m 2.99855,1.537715 v 3.67e-4 c -10e-4,0.0013 -1.42563,1.309358 -1.68169,1.774611 l 0.93272,-0.03736 v 0.813394 c 0,0.03808 0.37429,0.02256 0.74897,0.0052 h 3.6e-4 c 0.37455,0.01734 0.74891,0.03287 0.74891,-0.0052 v -0.813394 l 0.93272,0.03736 c -0.25613,-0.465253 -1.68169,-1.774611 -1.68169,-1.774611 v -3.67e-4 l -1.9e-4,1.25e-4 z"
   color="#000000"
   id="path2511"
   style="stroke-width:0.065;stroke-miterlimit:4;stroke-dasharray:none;fill:#494d7e;fill-opacity:1" /><path
   d="m 47.999242,8.1974625 c -4.417078,0 -7.999261,3.5816925 -7.999261,8.0002445 0,3.534053 2.292026,6.532797 5.471007,7.591146 0.400259,0.07318 0.54612,-0.173854 0.54612,-0.386016 0,-0.190061 -0.0069,-0.69296 -0.01079,-1.360384 -2.225236,0.483256 -2.694742,-1.072593 -2.694742,-1.072593 -0.363915,-0.924278 -0.888425,-1.170326 -0.888425,-1.170326 -0.726357,-0.496023 0.05501,-0.486203 0.05501,-0.486203 0.802971,0.05648 1.225327,0.824581 1.225327,0.824581 0.713591,1.222384 1.872617,0.869272 2.328373,0.664477 0.07268,-0.516653 0.279442,-0.869271 0.50781,-1.069156 -1.776357,-0.202337 -3.644064,-0.888425 -3.644064,-3.953955 0,-0.873692 0.311858,-1.587283 0.823598,-2.146659 -0.08251,-0.202341 -0.357039,-1.015626 0.07858,-2.117192 0,0 0.671354,-0.215108 2.199699,0.819668 0.637957,-0.177291 1.322571,-0.265691 2.002761,-0.269132 0.679704,0.0033 1.363824,0.09184 2.002765,0.269132 1.527361,-1.034776 2.197732,-0.819668 2.197732,-0.819668 0.436603,1.101566 0.162068,1.914851 0.08005,2.117192 0.512723,0.559376 0.822125,1.272967 0.822125,2.146659 0,3.073391 -1.870654,3.749654 -3.652414,3.947572 0.286808,0.247031 0.542679,0.735197 0.542679,1.481692 0,1.069152 -0.0098,1.93204 -0.0098,2.194295 0,0.214125 0.144387,0.46312 0.55005,0.385032 3.176524,-1.060312 5.466587,-4.056599 5.466587,-7.590162 0,-4.418552 -3.582183,-8.0002445 -8.000735,-8.0002445"
   style="fill:#494d7e;fill-opacity:1;fill-rule:evenodd;stroke:none;stroke-width:0.0491113"
   id="path14" /><path
   d="m 149.10352,10.844509 c -1.03571,-0.484583 -2.14314,-0.836757 -3.30092,-1.0372878 -0.14219,0.2570738 -0.30831,0.6028438 -0.42285,0.8779018 -1.23075,-0.18509 -2.45019,-0.18509 -3.65831,0 -0.11451,-0.275058 -0.2844,-0.620828 -0.42787,-0.8779018 -1.15903,0.2005308 -2.26773,0.5539988 -3.30344,1.0398538 -2.08904,3.156803 -2.65534,6.235196 -2.37219,9.269878 1.38556,1.0347 2.72833,1.663248 4.04844,2.074553 0.32594,-0.44859 0.61664,-0.925452 0.86707,-1.428019 -0.47695,-0.181231 -0.93377,-0.404879 -1.3654,-0.664519 0.11451,-0.08484 0.22652,-0.173532 0.33474,-0.264794 2.63267,1.231371 5.49314,1.231371 8.09437,0 0.10948,0.09126 0.22147,0.179958 0.33473,0.264794 -0.4329,0.260912 -0.89097,0.48456 -1.36792,0.665813 0.25043,0.501273 0.53987,0.979429 0.86707,1.427997 1.32138,-0.411304 2.6654,-1.039831 4.05096,-2.075825 0.33223,-3.51797 -0.56756,-6.568092 -2.37848,-9.272444 z m -8.2114,7.406142 c -0.79031,0 -1.43842,-0.737796 -1.43842,-1.636249 0,-0.898453 0.63427,-1.637521 1.43842,-1.637521 0.80416,0 1.45225,0.737774 1.43841,1.637521 10e-4,0.898453 -0.63425,1.636249 -1.43841,1.636249 z m 5.31571,0 c -0.79031,0 -1.43842,-0.737796 -1.43842,-1.636249 0,-0.898453 0.63425,-1.637521 1.43842,-1.637521 0.80414,0 1.45225,0.737774 1.43841,1.637521 0,0.898453 -0.63427,1.636249 -1.43841,1.636249 z"
   fill="#23272a"
   id="path4321"
   style="fill:#494d7e;fill-opacity:1;stroke-width:0.219328" /><path
   d="m 183.46053,13.25318 c 0,-3.4708701 -2.27464,-4.4885701 -2.27464,-4.4885701 -2.23178,-1.02483 -8.1594,-1.01412 -10.36976,0 0,0 -2.27465,1.0177 -2.27465,4.4885701 0,4.13148 -0.23568,9.2628 3.77084,10.32335 1.44619,0.38208 2.68885,0.46421 3.68869,0.40708 1.814,-0.1 2.83169,-0.64633 2.83169,-0.64633 l -0.0607,-1.31765 c 0,0 -1.29623,0.40708 -2.75314,0.36066 -1.44262,-0.05 -2.96381,-0.15712 -3.19948,-1.92826 -0.0214,-0.15712 -0.0321,-0.32138 -0.0321,-0.49635 3.05665,0.74631 5.66338,0.32495 6.38112,0.23925 2.00324,-0.23925 3.74939,-1.47477 3.97078,-2.60316 0.34995,-1.77828 0.32138,-4.33859 0.32138,-4.33859 z m -2.68171,4.47071 h -1.66402 v -4.07791 c 0,-1.77472 -2.28535,-1.84257 -2.28535,0.24638 v 2.23179 h -1.65331 v -2.23179 c 0,-2.08895 -2.28535,-2.0211 -2.28535,-0.24638 v 4.07791 h -1.66759 c 0,-4.36001 -0.18568,-5.28129 0.65704,-6.249 0.92485,-1.03197 2.84955,-1.09982 3.70655,0.21783 l 0.41422,0.69631 0.41422,-0.69631 c 0.86058,-1.32479 2.78884,-1.24266 3.70655,-0.21783 0.84629,0.97485 0.65704,1.89256 0.65704,6.249 z"
   id="path4561"
   style="fill:#494d7e;fill-opacity:1;stroke-width:0.0357086" /><path
   fill="#383838"
   d="m 24,43 c -0.6,0.3 -1.2,0.4 -1.9,0.5 0.7,-0.4 1.2,-1 1.4,-1.8 -0.6,0.4 -1.3,0.6 -2.1,0.8 -0.6,-0.6 -1.5,-1 -2.4,-1 -1.8,0 -3.3,1.5 -3.3,3.3 0,0.3 0,0.5 0.1,0.7 -2.7,-0.1 -5.1,-1.4 -6.8,-3.4 -0.3,0.5 -0.4,1 -0.4,1.7 0,1.1 0.6,2.1 1.5,2.7 -0.5,0 -1,-0.2 -1.5,-0.4 v 0 c 0,1.6 1.1,2.9 2.6,3.2 -0.4,0.3 -1,0.3 -1.5,0 0.4,1.3 1.6,2.3 3.1,2.3 -1.1,0.9 -2.5,1.4 -4.1,1.4 -0.3,0 -0.5,0 -0.8,0 1.5,0.9 3.2,1.5 5,1.5 6,0 9.3,-5 9.3,-9.3 0,-0.1 0,-0.3 0,-0.4 C 23,44.3 23.6,43.7 24,43 Z"
   id="path3021-4"
   style="fill:#ffffff;fill-opacity:1" /><path
   fill="#383838"
   d="m 78,48 v 8 h 3 v -8 h 2 l 1,-3 h -3 c 0,0 0,-0.5 0,-1.3 0,-0.3 0.2,-0.7 0.7,-0.7 1,0 2.9,0 2.3,0 v -3 c 0,0 -1.6,0 -3.3,0 -1.7,0 -2.7,1.3 -2.7,2.8 0,1.5 0,2.3 0,2.3 h -2 v 3 h 2 z"
   id="path3023-6"
   style="fill:#ffffff;fill-opacity:1" /><path
   d="m 213.56579,53.634111 h -2.37156 v -3.713189 c 0,-0.8859 -0.0162,-2.024833 -1.23314,-2.024833 -1.23494,0 -1.42404,0.964722 -1.42404,1.960677 v 3.777345 h -2.3714 v -7.635633 h 2.27647 v 1.043233 h 0.0316 c 0.31663,-0.6003 1.09079,-1.233289 2.24536,-1.233289 2.40309,0 2.84675,1.581511 2.84675,3.637322 v 4.188367 z m -10.07462,-8.679467 c -0.76064,0 -1.3763,-0.616755 -1.3763,-1.376311 0,-0.758889 0.61566,-1.375555 1.3763,-1.375555 0.75863,0 1.37516,0.616666 1.37516,1.375555 0,0.759556 -0.61653,1.376311 -1.37516,1.376311 z m 1.18606,8.679467 h -2.37326 v -7.635633 h 2.37326 z M 214.74768,40 h -13.6349 c -0.65156,0 -1.18099,0.516444 -1.18099,1.153222 v 13.692222 c 0,0.637325 0.52943,1.154556 1.18099,1.154556 h 13.6349 c 0.65267,0 1.18433,-0.517231 1.18433,-1.154556 V 41.153222 C 215.93201,40.516444 215.40035,40 214.74768,40"
   style="fill:#ffffff;fill-opacity:1;fill-rule:nonzero;stroke:none"
   id="path14-4-2"
   inkscape:connector-curvature="0" /><path
   d="m 106.08598,40.892311 c -0.69791,0.414393 -2.07294,1.994035 -2.08598,2.408295 v 0.685718 c 0,0.869211 0.81248,1.633178 1.55017,1.633178 0.88577,0 1.62379,-0.734102 1.62385,-1.6054 0,0.871298 0.71272,1.6054 1.59856,1.6054 0.8859,0 1.57573,-0.734102 1.57573,-1.6054 0,0.871298 0.75783,1.6054 1.64367,1.6054 h 0.016 c 0.88591,0 1.64374,-0.734102 1.64374,-1.6054 0,0.871298 0.68989,1.6054 1.57567,1.6054 0.88584,0 1.59855,-0.734102 1.59855,-1.6054 0,0.871298 0.73815,1.6054 1.62385,1.6054 0.73769,0 1.55017,-0.763836 1.55017,-1.633178 v -0.685718 c -0.013,-0.414326 -1.38806,-1.994033 -2.08584,-2.408295 -2.16918,-0.07616 -3.67299,-0.08933 -5.91422,-0.08901 -2.24117,1.79e-4 -5.29665,0.03522 -5.91409,0.08901 z m 4.25111,4.317821 a 1.8274296,1.8274296 0 0 1 -0.31169,0.40135 c -0.33438,0.326948 -0.79272,0.529612 -1.29801,0.529612 a 1.8572292,1.8572292 0 0 1 -1.30075,-0.529873 c -0.12116,-0.118677 -0.21323,-0.245571 -0.29754,-0.393329 l -4e-4,2.68e-4 c -0.0842,0.14802 -0.20162,0.274848 -0.32304,0.393655 a 1.858403,1.858403 0 0 1 -1.30075,0.529482 c -0.0609,0 -0.12428,-0.01682 -0.17554,-0.03443 -0.0712,0.741535 -0.10126,1.450206 -0.11189,1.966907 l -9e-5,0.0029 c -10e-4,0.262394 -0.003,0.478163 -0.004,0.77792 0.0137,1.555843 -0.15409,5.042728 0.68598,5.899484 1.30179,0.303539 3.69724,0.441778 6.10045,0.442626 h 3.7e-4 c 2.40313,-8.47e-4 4.79858,-0.139087 6.10038,-0.442626 0.84006,-0.856822 0.67229,-4.343707 0.68598,-5.899549 -0.001,-0.299692 -0.003,-0.515461 -0.004,-0.777921 l -1.8e-4,-0.0029 c -0.0106,-0.516833 -0.0406,-1.225438 -0.11183,-1.966973 -0.0513,0.01761 -0.11457,0.03443 -0.17554,0.03443 a 1.858403,1.858403 0 0 1 -1.30075,-0.529483 c -0.12141,-0.118806 -0.23879,-0.245569 -0.3231,-0.393654 l -3.7e-4,-2.68e-4 c -0.0844,0.147758 -0.17638,0.274717 -0.29754,0.393329 a 1.8570988,1.8570988 0 0 1 -1.30071,0.529809 c -0.50523,0 -0.96363,-0.202795 -1.29802,-0.529678 a 1.8274296,1.8274296 0 0 1 -0.31169,-0.40135 1.8251473,1.8251473 0 0 1 -0.30882,0.40135 1.8577509,1.8577509 0 0 1 -1.30088,0.529742 c -0.0176,0 -0.0352,-7.8e-4 -0.0528,-0.0013 H 112 c -0.0176,5.08e-4 -0.0352,0.0013 -0.053,0.0013 a 1.8577509,1.8577509 0 0 1 -1.30089,-0.529678 1.8252777,1.8252777 0 0 1 -0.30882,-0.401349 z m -1.33583,1.727336 -1.3e-4,6.61e-4 h 9.6e-4 c 0.52903,0.0011 0.99898,0 1.58128,0.635509 0.45827,-0.04806 0.93715,-0.07205 1.41643,-0.07134 h 3.6e-4 c 0.47927,-6.61e-4 0.95815,0.02328 1.4165,0.07134 0.5823,-0.635575 1.05224,-0.634466 1.58127,-0.635509 h 9e-4 l -1.3e-4,-6.61e-4 c 0.24994,0 1.24976,0 1.94644,1.956671 l 0.74831,2.684251 c 0.55452,1.996903 -0.17756,2.045743 -1.09072,2.047503 -1.35422,-0.05041 -2.10404,-1.033859 -2.10404,-2.017181 -0.74962,0.122849 -1.62411,0.184274 -2.4986,0.184339 h -3.7e-4 c -0.87456,0 -1.74905,-0.06149 -2.4986,-0.184339 0,0.983322 -0.74989,1.966776 -2.10404,2.017181 -0.91316,-0.0017 -1.64518,-0.05054 -1.09066,-2.047503 l 0.74852,-2.684186 c 0.69667,-1.95667 1.69649,-1.95667 1.94643,-1.95667 z m 2.99855,1.537715 v 3.67e-4 c -10e-4,0.0013 -1.42563,1.309358 -1.68169,1.774611 l 0.93272,-0.03736 v 0.813394 c 0,0.03808 0.37429,0.02256 0.74897,0.0052 h 3.6e-4 c 0.37455,0.01734 0.74891,0.03287 0.74891,-0.0052 v -0.813394 l 0.93272,0.03736 c -0.25613,-0.465253 -1.68169,-1.774611 -1.68169,-1.774611 v -3.67e-4 l -1.9e-4,1.25e-4 z"
   color="#000000"
   id="path2511-1"
   style="fill:#ffffff;fill-opacity:1;stroke-width:0.065;stroke-miterlimit:4;stroke-dasharray:none" /><path
   d="m 47.99937,40.197462 c -4.41708,0 -7.99926,3.581693 -7.99926,8.000245 0,3.534053 2.29203,6.532797 5.47101,7.591146 0.40026,0.07318 0.54612,-0.173854 0.54612,-0.386016 0,-0.190061 -0.007,-0.69296 -0.0108,-1.360384 -2.22524,0.483256 -2.69474,-1.072593 -2.69474,-1.072593 -0.36392,-0.924278 -0.88843,-1.170326 -0.88843,-1.170326 -0.72636,-0.496023 0.055,-0.486203 0.055,-0.486203 0.80297,0.05648 1.22533,0.824581 1.22533,0.824581 0.71359,1.222384 1.87262,0.869272 2.32837,0.664477 0.0727,-0.516653 0.27944,-0.869271 0.50781,-1.069156 -1.77636,-0.202337 -3.64406,-0.888425 -3.64406,-3.953955 0,-0.873692 0.31185,-1.587283 0.82359,-2.146659 -0.0825,-0.202341 -0.35703,-1.015626 0.0786,-2.117192 0,0 0.67135,-0.215108 2.19969,0.819668 0.63796,-0.177291 1.32257,-0.265691 2.00277,-0.269132 0.6797,0.0033 1.36382,0.09184 2.00276,0.269132 1.52736,-1.034776 2.19773,-0.819668 2.19773,-0.819668 0.43661,1.101566 0.16207,1.914851 0.08,2.117192 0.51273,0.559376 0.82213,1.272967 0.82213,2.146659 0,3.073391 -1.87066,3.749654 -3.65242,3.947572 0.28681,0.247031 0.54268,0.735197 0.54268,1.481692 0,1.069152 -0.01,1.93204 -0.01,2.194295 0,0.214125 0.14439,0.46312 0.55005,0.385032 3.17653,-1.060312 5.46659,-4.056599 5.46659,-7.590162 0,-4.418552 -3.58218,-8.000245 -8.00074,-8.000245"
   style="fill:#ffffff;fill-opacity:1;fill-rule:evenodd;stroke:none;stroke-width:0.0491113"
   id="path14-8" /><path
   d="m 149.10352,42.844509 c -1.03571,-0.484583 -2.14314,-0.836756 -3.30092,-1.037287 -0.14219,0.257074 -0.30831,0.602844 -0.42285,0.877902 -1.23075,-0.185091 -2.45019,-0.185091 -3.65831,0 -0.11451,-0.275058 -0.2844,-0.620829 -0.42787,-0.877902 -1.15903,0.200531 -2.26773,0.553999 -3.30344,1.039854 -2.08904,3.156802 -2.65534,6.235196 -2.37219,9.269877 1.38556,1.034701 2.72833,1.663249 4.04844,2.074554 0.32594,-0.448591 0.61664,-0.925452 0.86707,-1.428019 -0.47695,-0.181231 -0.93377,-0.404879 -1.3654,-0.664519 0.11451,-0.08484 0.22652,-0.173532 0.33474,-0.264794 2.63267,1.231371 5.49314,1.231371 8.09437,0 0.10948,0.09126 0.22147,0.179958 0.33473,0.264794 -0.4329,0.260912 -0.89097,0.48456 -1.36792,0.665813 0.25043,0.501273 0.53987,0.979429 0.86707,1.427997 1.32138,-0.411304 2.6654,-1.039831 4.05096,-2.075826 0.33223,-3.517969 -0.56756,-6.568092 -2.37848,-9.272444 z m -8.2114,7.406143 c -0.79031,0 -1.43842,-0.737797 -1.43842,-1.636249 0,-0.898453 0.63427,-1.637521 1.43842,-1.637521 0.80416,0 1.45225,0.737774 1.43841,1.637521 10e-4,0.898452 -0.63425,1.636249 -1.43841,1.636249 z m 5.31571,0 c -0.79031,0 -1.43842,-0.737797 -1.43842,-1.636249 0,-0.898453 0.63425,-1.637521 1.43842,-1.637521 0.80414,0 1.45225,0.737774 1.43841,1.637521 0,0.898452 -0.63427,1.636249 -1.43841,1.636249 z"
   fill="#23272a"
   id="path4321-0"
   style="fill:#ffffff;fill-opacity:1;stroke-width:0.219328" /><path
   d="m 183.46053,45.25318 c 0,-3.47087 -2.27464,-4.48857 -2.27464,-4.48857 -2.23178,-1.02483 -8.1594,-1.01412 -10.36976,0 0,0 -2.27465,1.0177 -2.27465,4.48857 0,4.13148 -0.23568,9.2628 3.77084,10.32335 1.44619,0.38208 2.68885,0.46421 3.68869,0.40708 1.814,-0.1 2.83169,-0.64633 2.83169,-0.64633 l -0.0607,-1.31765 c 0,0 -1.29623,0.40708 -2.75314,0.36066 -1.44262,-0.05 -2.96381,-0.15712 -3.19948,-1.92826 -0.0214,-0.15712 -0.0321,-0.32138 -0.0321,-0.49635 3.05665,0.74631 5.66338,0.32495 6.38112,0.23925 2.00324,-0.23925 3.74939,-1.47477 3.97078,-2.60316 0.34995,-1.77828 0.32138,-4.33859 0.32138,-4.33859 z m -2.68171,4.47071 h -1.66402 v -4.07791 c 0,-1.77472 -2.28535,-1.84257 -2.28535,0.24638 v 2.23179 h -1.65331 v -2.23179 c 0,-2.08895 -2.28535,-2.0211 -2.28535,-0.24638 v 4.07791 h -1.66759 c 0,-4.36001 -0.18568,-5.28129 0.65704,-6.249 0.92485,-1.03197 2.84955,-1.09982 3.70655,0.21783 l 0.41422,0.69631 0.41422,-0.69631 c 0.86058,-1.32479 2.78884,-1.24266 3.70655,-0.21783 0.84629,0.97485 0.65704,1.89256 0.65704,6.249 z"
   id="path4561-5"
   style="fill:#ffffff;fill-opacity:1;stroke-width:0.0357086" /></svg>
