<?xml version="1.0" encoding="UTF-8" standalone="no"?>
<!-- Created with Inkscape (http://www.inkscape.org/) -->

<svg
   xmlns:dc="http://purl.org/dc/elements/1.1/"
   xmlns:cc="http://creativecommons.org/ns#"
   xmlns:rdf="http://www.w3.org/1999/02/22-rdf-syntax-ns#"
   xmlns:svg="http://www.w3.org/2000/svg"
   xmlns="http://www.w3.org/2000/svg"
   xmlns:sodipodi="http://sodipodi.sourceforge.net/DTD/sodipodi-0.dtd"
   xmlns:inkscape="http://www.inkscape.org/namespaces/inkscape"
   width="500"
   height="500"
   id="svg2"
   version="1.1"
   inkscape:version="0.48.5 r10040"
   sodipodi:docname="atom.svg"
   inkscape:export-filename="D:\atom.png"
   inkscape:export-xdpi="90"
   inkscape:export-ydpi="90">
  <defs
     id="defs4" />
  <sodipodi:namedview
     id="base"
     pagecolor="#ffffff"
     bordercolor="#666666"
     borderopacity="1.0"
     inkscape:pageopacity="0.0"
     inkscape:pageshadow="2"
     inkscape:zoom="0.7"
     inkscape:cx="276.03482"
     inkscape:cy="373.21299"
     inkscape:document-units="px"
     inkscape:current-layer="layer1"
     showgrid="false"
     inkscape:window-width="988"
     inkscape:window-height="863"
     inkscape:window-x="111"
     inkscape:window-y="34"
     inkscape:window-maximized="0" />
  <metadata
     id="metadata7">
    <rdf:RDF>
      <cc:Work
         rdf:about="">
        <dc:format>image/svg+xml</dc:format>
        <dc:type
           rdf:resource="http://purl.org/dc/dcmitype/StillImage" />
        <dc:title></dc:title>
      </cc:Work>
    </rdf:RDF>
  </metadata>
  <g
     inkscape:label="Layer 1"
     inkscape:groupmode="layer"
     id="layer1"
     transform="translate(0,-552.36218)">
    <g
       id="g2996"
       transform="matrix(1.3930742,0,0,1.3930742,-178.35112,-132.20035)">
      <path
         style="fill:#c3d3fe"
         d="m 290.57144,849.70788 c -4.75379,-1.5731 -9.78253,-4.8282 -11.72831,-7.59172 l -2.22831,-3.16478 6.72831,-3.16895 c 3.70057,-1.74292 9.14954,-5.26926 12.10882,-7.83631 5.09688,-4.42133 5.60882,-4.63314 9.71162,-4.01788 8.356,1.25306 17.40787,-5.71487 17.40787,-13.4002 0,-3.31025 -2.82727,-10.16589 -4.19242,-10.16589 -0.4521,0 0.65406,-2.1375 2.45813,-4.75 1.80407,-2.6125 3.82905,-5.875 4.49995,-7.25 0.6709,-1.375 1.67794,-3.175 2.23786,-4 0.55992,-0.825 1.6949,-3.075 2.52217,-5 0.82728,-1.925 1.9477,-4.175 2.48983,-5 0.54212,-0.825 1.44375,-2.78874 2.00362,-4.36386 l 1.01794,-2.86386 3.23146,2.63911 c 3.12483,2.55203 13.3986,9.56848 18.92913,12.92762 l 2.69766,1.63852 -3.99478,7.98134 c -2.19714,4.38974 -4.45135,8.26351 -5.00935,8.60837 -0.55801,0.34487 -1.43573,1.59583 -1.9505,2.7799 -1.22787,2.8244 -2.61617,4.96782 -7.4407,11.48779 -2.2,2.97313 -4.48952,6.24758 -5.08782,7.27656 -1.83718,3.15965 -15.86117,17.19849 -20.61943,20.64126 -7.6069,5.50386 -19.72412,8.60119 -25.79275,6.59298 z m -19.75335,-20.59573 c -1.85389,-3.82221 -4.01894,-10.86245 -7.30375,-23.75 -1.50715,-5.91311 -2.9429,-23.46267 -2.9429,-35.97183 0,-10.4714 0.20923,-11.9527 1.75,-12.38945 0.9625,-0.27283 7.825,-0.79443 15.25,-1.15913 13.6504,-0.67046 33.14795,-2.83166 36.23566,-4.01653 1.1175,-0.42882 3.68894,0.90099 7.67859,3.97096 3.29914,2.53863 6.24378,5.01265 6.54363,5.49783 0.60069,0.97194 -3.17139,11.75207 -4.88191,13.9519 -0.59179,0.76106 -1.97597,3.1101 -3.07597,5.22008 -6.15727,11.81069 -8.98758,15.87619 -10.67891,15.33939 -2.79271,-0.88638 -9.59981,1.42641 -12.37945,4.20605 -4.20513,4.20513 -5.75809,11.0224 -3.48039,15.27833 1.15924,2.16605 0.26518,3.40149 -5.96125,8.23738 -3.60532,2.80015 -13.41567,7.83502 -15.2664,7.83502 -0.2176,0 -0.88673,-1.0125 -1.48695,-2.25 z m 88.65795,-54.99212 c -2.42253,-1.84866 -7.8921,-5.71417 -12.1546,-8.59001 -4.2625,-2.87585 -7.75,-5.68387 -7.75,-6.24004 0,-0.55618 1.35877,-3.91747 3.0195,-7.46953 2.43607,-5.21044 3.46605,-6.4583 5.33062,-6.4583 1.81977,0 16.76747,-4.15168 30.8205,-8.56029 1.51933,-0.47664 1.5556,-0.0881 0.40051,4.29066 -0.69856,2.64812 -1.72163,5.70461 -2.27348,6.7922 -1.48433,2.92529 -3.72432,8.21825 -6.3385,14.97743 -1.2763,3.3 -3.29466,7.93929 -4.48525,10.30954 l -2.1647,4.30955 -4.4046,-3.36121 z m -30.38695,-22.16211 -2.94129,-2.3453 4.20814,-0.40131 c 3.84116,-0.36631 4.15505,-0.22462 3.59942,1.62477 -1.01693,3.38482 -1.80142,3.56567 -4.86627,1.12184 z M 279.57144,642.39608 c 0,-0.53134 0.64826,-2.44384 1.44058,-4.25 0.79232,-1.80616 2.20842,-5.88572 3.14688,-9.06569 0.93847,-3.17997 2.0777,-6.0113 2.53164,-6.29185 0.98861,-0.61099 12.79644,-2.79571 29.84492,-5.52199 l 12.46402,-1.99316 8.35159,8.79438 8.35158,8.79438 -9.3156,1.18545 c -5.12359,0.65199 -12.24061,1.65703 -15.81561,2.2334 -3.575,0.57638 -10.89502,1.01374 -16.26671,0.97191 -9.04519,-0.0704 -10.2057,0.15242 -15.70904,3.01659 -6.06174,3.1548 -9.02425,3.85292 -9.02425,2.12658 z M 388.2498,632.04686 c -14.33505,-0.94558 -14.80501,-1.04674 -14.31498,-3.0812 0.27867,-1.15693 0.81906,-5.36601 1.20086,-9.35351 l 0.69418,-7.25 9.62079,0.009 c 5.29143,0.005 11.98329,0.29246 14.87079,0.63929 l 5.25,0.6306 0,3.71402 c 0,5.81432 -1.22006,16.02542 -1.89246,15.8386 -0.33415,-0.0928 -7.27728,-0.60876 -15.42918,-1.14649 z m -40.47434,-8.68263 -8.29598,-8.86574 4.29598,-0.53648 c 2.36279,-0.29506 8.68348,-0.81773 14.04598,-1.16149 7.56434,-0.48491 9.75,-0.33907 9.75,0.65058 0,0.70158 -0.50887,5.24358 -1.13083,10.09333 l -1.13083,8.81772 -4.61917,-0.0661 c -4.4938,-0.0643 -4.84434,-0.30672 -12.91515,-8.93183 z m -57.71515,-12.213 c 0.35665,-1.25899 1.25547,-3.63908 1.99738,-5.28908 0.7419,-1.65 2.79036,-6.47279 4.55212,-10.71732 l 3.20319,-7.71732 3.53553,3.21732 c 8.47846,7.71539 17.54397,16.72302 17.15059,17.04111 -0.23522,0.19021 -3.80268,0.91278 -7.92768,1.60572 -13.0877,2.19853 -18.43472,3.13522 -20.82979,3.64893 -2.0302,0.43546 -2.24641,0.20536 -1.68134,-1.78936 z m 37.43685,-8.94905 c -4.21128,-3.99561 -12.24828,-11.42559 -21.26083,-19.65504 l -3.63047,-3.31501 3.48279,-5.17164 c 1.91554,-2.8444 3.48279,-5.67313 3.48279,-6.28605 0,-1.55404 4.69175,-10.26707 7.59011,-14.09557 1.32544,-1.7508 2.4199,-3.5508 2.43213,-4 0.0122,-0.44919 0.93468,-1.94172 2.04988,-3.31672 1.11521,-1.375 3.20486,-4.3 4.64365,-6.5 3.31577,-5.06999 15.57874,-19.44583 18.54002,-21.7344 1.23431,-0.95392 3.98532,-3.08485 6.11333,-4.7354 2.12802,-1.65054 4.31576,-2.72495 4.86165,-2.38758 1.48282,0.91644 5.86659,11.09542 7.47527,17.35738 4.23099,16.46957 5.23068,26.17598 5.26253,51.096 l 0.0314,24.59599 -13.94601,0.66573 c -7.6703,0.36616 -15.8828,0.92597 -18.25,1.24404 -4.03789,0.54254 -4.5868,0.30996 -8.87827,-3.76173 z m 56.07428,1.42414 -6.5,-0.34412 -0.068,-24.21002 c -0.0898,-31.96268 -2.79267,-48.70337 -10.58791,-65.57791 -1.61791,-3.50233 -2.70765,-6.60188 -2.42164,-6.88789 0.28601,-0.286 2.90795,-0.55452 5.82655,-0.59671 10.4932,-0.15168 18.54698,6.06156 25.377,19.57755 4.22739,8.36563 4.7224,10.00613 7.92823,26.27493 1.74417,8.8512 2.54763,17.31361 3.06196,32.25 l 0.69731,20.25 -8.40674,-0.19586 c -4.62373,-0.10772 -11.33176,-0.35071 -14.90676,-0.53997 z"
         id="path3004"
         inkscape:connector-curvature="0" />
      <path
         style="fill:#f9f1a7"
         d="m 379.57144,817.44301 c -8.69326,-2.01416 -24.77626,-7.80374 -27.07874,-9.74785 -0.86831,-0.73315 -2.09168,-1.33301 -2.71862,-1.33301 -1.41687,0 -0.49484,-2.80953 1.805,-5.5 0.94029,-1.1 2.77532,-4.25 4.07784,-7 1.30252,-2.75 3.00231,-6.02688 3.77732,-7.28196 1.29499,-2.09716 1.55038,-2.1541 3.15373,-0.70308 0.95955,0.86838 3.26087,2.37682 5.11405,3.35208 6.66079,3.50533 15.38879,8.36084 16.36942,9.10653 3.45844,2.62987 17.58428,6.86945 27.93153,8.38308 l 7.93153,1.16026 -3.21421,3.66077 c -6.44848,7.34442 -20.96927,9.65186 -37.14885,5.90318 z m 23.5,-20.65726 c -2.2,-0.81874 -5.83997,-2.14221 -8.08882,-2.94104 -5.29784,-1.88189 -12.12676,-5.0843 -15.91118,-7.46152 -1.65,-1.03646 -4.65449,-2.79077 -6.67664,-3.89847 -5.95339,-3.26116 -7.82336,-4.55412 -7.82336,-5.40936 0,-0.44313 1.51312,-4.04738 3.36248,-8.00945 1.84936,-3.96207 3.68026,-8.32876 4.06866,-9.70376 0.70144,-2.4832 2.72189,-7.21037 5.12897,-12 0.69101,-1.375 1.57369,-4.19247 1.9615,-6.26105 0.38782,-2.06857 1.2166,-4.08014 1.84175,-4.47015 0.62515,-0.39 6.28664,-2.39251 12.58109,-4.45002 12.82092,-4.19085 13.37252,-4.09804 15.1414,2.54771 0.60511,2.27343 1.67645,4.80851 2.38075,5.63351 0.7043,0.825 1.84058,3.3 2.52506,5.5 0.68448,2.2 1.80127,5.35 2.48174,7 2.06711,5.01226 5.32337,15.70619 6.39444,21 1.98522,9.81206 2.21936,12.60705 1.55102,18.51444 l -0.67719,5.98556 -8.12084,-0.0439 c -4.6231,-0.025 -9.84367,-0.68506 -12.12083,-1.53251 z M 198.69634,661.94872 c -2.8187,-4.07738 -5.1249,-7.67131 -5.1249,-7.9865 0,-0.50252 5.66343,-3.2942 18.15113,-8.94724 2.00812,-0.90906 4.08191,-1.65283 4.60842,-1.65283 0.52651,0 2.57739,2.3625 4.5575,5.25 1.98012,2.8875 4.55636,6.4875 5.72499,8 1.36736,1.76972 1.67289,2.75 0.85709,2.75 -0.69722,0 -3.32226,0.95446 -5.83341,2.12102 -2.51114,1.16657 -6.59072,2.99881 -9.06572,4.07165 -2.475,1.07284 -5.28139,2.36838 -6.23643,2.87897 -0.95504,0.5106 -1.91133,0.92836 -2.1251,0.92836 -0.21377,0 -2.69488,-3.33604 -5.51357,-7.41343 z m 35.046,-9.63037 c -6.06059,-7.0535 -9.16123,-11.84414 -8.09313,-12.50427 1.67372,-1.03441 20.95806,-7.45193 22.39271,-7.45193 1.03179,0 1.10535,0.81632 0.33791,3.75 -0.53954,2.0625 -1.68253,6.73533 -2.53999,10.38408 -1.3915,5.92129 -1.92308,6.80769 -4.94763,8.25 -1.86374,0.88875 -3.48586,1.57783 -3.6047,1.53127 -0.11884,-0.0465 -1.71417,-1.82817 -3.54517,-3.95915 z m 19.8291,-3.22473 c 0,-0.82599 0.6519,-3.69098 1.44866,-6.36664 0.79676,-2.67565 2.03426,-6.86571 2.75,-9.31122 l 1.30134,-4.44639 9,-2.27861 c 4.95,-1.25323 11.07003,-2.66616 13.60007,-3.13984 l 4.60007,-0.86124 -1.93806,6.08624 c -1.06593,3.34742 -2.57347,7.564 -3.35007,9.37016 -0.77661,1.80616 -1.41201,3.83518 -1.41201,4.50893 0,0.7199 -4.43252,2.36065 -10.75,3.97922 -5.9125,1.51482 -11.7625,3.02579 -13,3.3577 -1.60242,0.42979 -2.25,0.17125 -2.25,-0.89831 z m -66.15201,-6.5367 c -5.13669,-8.094 -16.8222,-36.07301 -16.84085,-40.32265 -0.004,-0.89533 -0.69532,-3.27492 -1.53643,-5.28797 -2.52604,-6.04566 -3.06379,-21.21363 -1.01979,-28.76475 0.95536,-3.52941 2.52607,-7.46317 3.49047,-8.7417 l 1.75344,-2.32459 1.68889,6.7235 1.68889,6.7235 -2.53381,2.53381 c -5.18514,5.18515 -5.54207,13.80861 -0.83103,20.07819 2.75774,3.67007 5.58217,5.05707 12.29223,6.03637 4.15816,0.60687 4.69772,1.03637 7.10289,5.65414 4.14666,7.9613 8.01481,14.50879 13.61431,23.04447 l 5.2172,7.95291 -5.2172,2.33382 c -2.86946,1.28361 -5.8922,2.74718 -6.7172,3.25239 -0.825,0.50521 -2.625,1.36769 -4,1.91661 -1.375,0.54892 -3.2434,1.42412 -4.15201,1.94489 -1.3104,0.75105 -2.13751,0.18181 -4,-2.75294 z m 29.40828,-14.08533 c -3.91585,-5.52733 -10.32431,-15.69549 -13.26391,-21.04555 -1.3792,-2.51014 -3.51845,-6.19484 -4.75389,-8.18822 -2.02108,-3.26101 -2.08888,-3.75493 -0.67642,-4.92716 5.27395,-4.377 5.9428,-13.50823 1.43812,-19.63363 -2.40479,-3.27002 -4.18081,-4.44964 -8.95376,-5.94701 -5.42192,-1.70097 -6.08803,-2.22528 -7.45469,-5.86787 -0.82542,-2.2 -1.63373,-5.77025 -1.79624,-7.93388 -0.29034,-3.86546 -0.21721,-3.95807 4.20452,-5.3248 5.33191,-1.64806 20.68463,-1.01117 28.5,1.18229 10.96958,3.07871 22.69501,8.33234 37,16.578 2.75,1.58515 6.8,3.81649 9,4.95854 2.2,1.14205 4.8189,2.70329 5.81978,3.46942 1.99587,1.52775 1.90458,1.9543 -3.3326,15.57043 -2.5098,6.52524 -5.85946,16.30601 -7.02071,20.5 -3.00625,10.85737 -2.69573,10.55918 -14.59954,14.01977 -5.97681,1.73754 -12.60939,3.9064 -14.73905,4.8197 -5.45958,2.3413 -6.2696,2.14855 -9.37161,-2.23003 z m 44.74373,-8.5407 c 0,-0.58406 5.64817,-17.69768 6.7885,-20.56874 1.02102,-2.57067 3.11836,-8.07851 5.20969,-13.68119 l 1.18745,-3.18119 7.15718,5.07944 c 3.93645,2.79369 8.50871,6.25154 10.16058,7.68412 2.91639,2.52922 2.96601,2.71881 1.71279,6.54413 -0.70984,2.16669 -1.66182,4.41537 -2.11551,4.99706 -0.4537,0.5817 -1.09349,2.18739 -1.42175,3.5682 -0.54246,2.28179 -1.67135,2.77135 -12.38789,5.37222 -6.48507,1.57391 -12.80354,3.247 -14.04104,3.71799 -1.2375,0.47099 -2.25,0.68157 -2.25,0.46796 z"
         id="path3002"
         inkscape:connector-curvature="0" />
      <path
         style="fill:#ddbeea"
         d="m 239.78523,747.61215 0.28621,-9.75 14,-0.69126 c 12.5521,-0.61978 25.55393,-1.81121 37,-3.39054 4.32959,-0.59739 5.88075,0.41755 19.09266,12.49249 6.10861,5.58293 6.12451,5.56009 -4.98732,7.16168 -9.57421,1.37997 -45.98786,3.88036 -56.89155,3.90654 l -8.78621,0.0211 0.28621,-9.75 z m -28.21379,7.26193 c -18.46365,-2.38429 -33.61188,-6.76059 -44.5,-12.85599 -5.83855,-3.26854 -13.20789,-11.94541 -14.15122,-16.66203 l -0.65792,-3.28959 3.40457,1.79552 c 6.63483,3.49911 8.48076,4.24916 15.40457,6.25926 15.00768,4.35698 35.73527,7.24271 51.99387,7.23866 l 9.00613,-0.002 -0.31862,9.50224 -0.31862,9.50224 -5.18138,-0.13065 c -2.84976,-0.0718 -9.45638,-0.68269 -14.68138,-1.35742 z M 320.45766,744.6227 c -2.96242,-2.66262 -7.29872,-6.32331 -9.63622,-8.13487 -5.00537,-3.87915 -5.32409,-5.12568 -1.31055,-5.12568 1.61669,0 8.4679,-1.35 15.22491,-3 11.02543,-2.69231 18.83564,-3.75723 18.83564,-2.56822 0,1.23962 -6.04379,16.57554 -7.71591,19.57884 -1.65279,2.9686 -2.54487,3.53428 -5.9772,3.79022 -3.60401,0.26875 -4.60912,-0.21567 -9.42067,-4.54029 z m 25.11378,0.40461 c 0,-1.13058 4.52819,-13.94744 6.32556,-17.90425 2.38053,-5.24058 2.27515,-5.18843 23.67444,-11.71554 11.50085,-3.50793 19.50281,-6.38472 23.4283,-8.42272 3.45585,-1.79418 4.2995,-1.42039 6.20559,2.74943 0.78641,1.72035 2.29026,4.47792 3.3419,6.12792 1.05164,1.65 2.56947,4.22077 3.37295,5.71282 1.36631,2.53721 1.32138,2.75526 -0.69393,3.36829 -1.18515,0.3605 -2.82981,1.2187 -3.65481,1.90711 -1.70112,1.41947 -15.68153,6.08032 -40.38722,13.46446 -14.72173,4.40009 -21.61278,5.90262 -21.61278,4.71248 z m -137.3205,-16.72995 c -5.95127,-0.42644 -11.47268,-1.02561 -12.26981,-1.33149 -0.79713,-0.30589 -5.62544,-1.22816 -10.72958,-2.0495 -13.89134,-2.23534 -30.74257,-9.18207 -31.51057,-12.98989 -0.40165,-1.99142 4.43458,-9.61367 9.56396,-15.07346 6.23883,-6.64072 24.08495,-19.45309 31.2665,-22.44733 1.375,-0.57329 3.175,-1.47046 4,-1.99371 1.77406,-1.12519 7.54895,-3.93292 14.5,-7.04983 2.75,-1.23313 6.82958,-3.08759 9.06572,-4.12102 2.23615,-1.03344 4.51446,-1.87898 5.06291,-1.87898 1.35572,0 5.38624,4.47409 9.39635,10.43046 l 3.31942,4.93046 -1.22404,6.56954 c -2.26162,12.13834 -5.8812,39.51747 -6.05744,45.81954 -0.0593,2.11972 -0.45376,2.24162 -6.81292,2.10527 -3.7125,-0.0796 -11.61922,-0.49363 -17.5705,-0.92006 z m 32.90785,-2.61111 c 2.33253,-21.39473 3.62242,-31.85719 4.61227,-37.41081 l 1.17399,-6.58671 5.53055,6.58671 c 3.04179,3.62269 11.9618,13.31014 19.82223,21.52767 7.86044,8.21752 13.95013,15.24537 13.53265,15.61745 -0.82272,0.73325 -18.63805,2.5098 -34.92382,3.48261 l -10.16479,0.60718 0.41692,-3.8241 z m 51.6532,-6.5741 c -7.43559,-6.80019 -29.05864,-29.83537 -33.94592,-36.16282 -2.08705,-2.70205 -5.26347,-6.49011 -7.05872,-8.41791 -1.79526,-1.9278 -3.06391,-4.21704 -2.81923,-5.08718 0.24467,-0.87015 1.2048,-5.18209 2.13361,-9.58209 0.92881,-4.4 1.97247,-8.31372 2.31923,-8.69715 0.34676,-0.38344 7.48921,-2.48597 15.8721,-4.6723 l 15.24162,-3.97514 -2.46068,3.22612 c -3.99346,5.2357 -5.52256,10.06083 -5.52256,17.42663 0,20.08889 21.03615,37.10245 39.30734,31.79087 6.6637,-1.93719 10.79071,-5.20668 14.45866,-11.45443 2.36873,-4.03473 2.72157,-5.69506 2.68718,-12.6446 -0.0334,-6.75691 -0.48537,-8.89342 -2.90848,-13.74966 -3.58946,-7.19377 -10.04016,-13.81693 -16.44924,-16.88899 l -4.92637,-2.36135 8.66546,-1.22243 c 4.766,-0.67234 13.10625,-1.78067 18.5339,-2.46296 l 9.86845,-1.24052 2.50855,2.96295 c 1.3797,1.62963 5.1514,5.84838 8.38155,9.375 3.23015,3.52662 5.873,6.95364 5.873,7.61561 0,1.88379 -4.74956,23.01212 -7.41204,32.97235 -5.33787,19.96871 -6.51463,24.17692 -7.44477,26.62337 -0.86453,2.27391 -2.21744,2.8482 -12.30725,5.22426 -6.23477,1.46823 -12.28013,2.66565 -13.43415,2.66094 -1.15402,-0.005 -6.32902,0.88438 -11.5,1.97576 -5.17098,1.09139 -9.96854,1.99139 -10.66124,2 -0.6927,0.009 -3.8427,-2.34683 -7,-5.23433 z m 126.23763,-2.47286 c -0.97651,-2.07743 -3.28634,-6.1527 -5.13297,-9.05617 -2.98984,-4.70094 -3.16519,-5.34331 -1.60136,-5.86606 3.99192,-1.3344 20.87466,-9.75504 26.67064,-13.30257 8.93906,-5.47131 19.0517,-13.50015 26.85119,-21.31825 l 6.76567,-6.78183 1.07156,2.77387 c 1.48191,3.83611 0.65002,12.97088 -1.61864,17.77387 -5.00271,10.59126 -20.32018,23.7366 -40.48427,34.74329 -9.92166,5.4158 -10.44188,5.45875 -12.52182,1.03385 z m -61.24511,-8.52714 c 0.52536,-2.3375 2.33252,-9.2 4.01591,-15.25 3.99114,-14.3439 6.68075,-26.25252 6.77562,-30 l 0.0759,-3 2.92233,3.5 c 13.49145,16.15838 26.77029,34.54018 25.71432,35.59615 -0.46372,0.46372 -13.58199,4.9987 -20.23719,6.99599 -2.75,0.82531 -5.88984,1.99743 -6.97743,2.60471 -1.74865,0.97641 -11.02445,3.76003 -12.63364,3.79128 -0.33609,0.007 -0.18123,-1.90063 0.34414,-4.23813 z m 42.80448,-20 c -2.76287,-3.9875 -6.89442,-9.95 -9.18121,-13.25 -2.28679,-3.3 -6.69971,-8.925 -9.80647,-12.5 -10.85964,-12.49633 -11.02768,-12.96266 -8.87702,-24.6347 l 1.17285,-6.3653 5.57715,0.0431 c 16.16668,0.12499 45.14501,3.94503 59.07715,7.78779 13.13616,3.62321 28.84968,11.9251 27.35822,14.45412 -3.64742,6.18483 -20.34395,21.99061 -25.17655,23.83339 -1.27509,0.48622 -3.75009,1.94837 -5.5,3.24921 -3.26633,2.42812 -27.2703,14.63239 -28.77968,14.63239 -0.46257,0 -3.10157,-3.2625 -5.86444,-7.25 z m -102.62341,-4.60824 c -13.85582,-7.37169 -16.62907,-27.36157 -4.84865,-34.94959 7.16329,-4.61403 17.09529,-2.6353 24.36325,4.85384 9.53082,9.82086 8.66994,25.43687 -1.67422,30.36966 -4.26318,2.03297 -13.77898,1.88687 -17.84038,-0.27391 z m -57.52064,-22.79628 c -3.03404,-3.52312 -3.02514,-4.22605 0.0738,-5.82857 2.95241,-1.52675 3.03006,-1.50802 2.93302,0.70741 -0.0548,1.25162 -0.3962,3.33114 -0.75861,4.62116 -0.63437,2.25806 -0.71816,2.27669 -2.24821,0.5 z m 119.79423,-23.84548 -3.81227,-4 4.16635,-0.31258 c 2.2915,-0.17192 4.28727,-0.17192 4.43505,0 0.14778,0.17192 -0.0116,2.11258 -0.35408,4.31258 l -0.62278,4 -3.81227,-4 z"
         id="path3000"
         inkscape:connector-curvature="0" />
      <path
         style="fill:#000000"
         d="m 261.33052,837.99212 c -8.12275,-3.0139 -11.25617,-6.43513 -17.64616,-19.26692 -4.33583,-8.70683 -5.21382,-11.56789 -8.09017,-26.36305 -2.231,-11.47563 -4.36465,-37.75712 -3.87676,-47.75225 l 0.35401,-7.25226 -9.00613,0.002 c -20.26631,0.005 -50.90638,-5.23549 -61.49387,-10.51794 -1.375,-0.68604 -4.24469,-2.08708 -6.37709,-3.11344 -5.48673,-2.64085 -13.36602,-9.94224 -15.73025,-14.57652 -2.61767,-5.13105 -2.76142,-13.92046 -0.33348,-20.39092 1.01098,-2.69427 2.1247,-5.12367 2.47494,-5.39867 0.35024,-0.275 1.04835,-1.24409 1.55134,-2.15352 2.58699,-4.67739 22.2339,-22.84648 24.70474,-22.84648 0.49558,0 2.2646,-0.97093 3.93115,-2.15762 1.66656,-1.18669 6.23602,-3.79935 10.15437,-5.80591 3.91836,-2.00655 8.02428,-4.18543 9.12428,-4.84194 1.1,-0.65652 3.125,-1.64279 4.5,-2.19171 1.375,-0.54892 3.175,-1.4114 4,-1.91661 0.825,-0.50521 3.84774,-1.96878 6.7172,-3.25239 l 5.2172,-2.33382 -5.2172,-7.95291 c -5.5995,-8.53568 -9.46765,-15.08317 -13.61431,-23.04447 -2.40517,-4.61777 -2.94473,-5.04727 -7.10289,-5.65414 -6.71006,-0.9793 -9.53449,-2.3663 -12.29223,-6.03637 -4.71413,-6.2737 -4.35392,-14.89323 0.83942,-20.08658 l 2.5422,-2.54219 -2.19753,-8.34167 c -4.5298,-17.19486 -2.41239,-31.15631 5.65887,-37.31257 11.26571,-8.59277 25.83158,-7.25021 51.44927,4.74218 11.42214,5.34704 21.542,11.21121 27,15.64574 2.475,2.01089 6.8625,5.14911 9.75,6.97382 2.8875,1.82471 5.25,3.6726 5.25,4.10642 0,0.43382 0.63579,1.03274 1.41288,1.33093 0.97476,0.37406 2.54584,-1.68584 5.06661,-6.64301 7.12709,-14.01561 10.61665,-19.77695 14.2376,-23.50661 0.7056,-0.72678 1.28397,-1.62678 1.28526,-2 0.001,-0.37321 1.35023,-2.25357 2.99765,-4.17857 1.64742,-1.925 2.99636,-4.07327 2.99765,-4.77393 10e-4,-0.70066 3.87725,-5.08824 8.61324,-9.75018 6.29006,-6.19171 10.59397,-9.45634 15.9687,-12.11267 6.84453,-3.38275 7.84061,-3.60189 14.27854,-3.14126 6.09566,0.43614 7.6236,0.98821 12.81651,4.63084 10.66399,7.48035 17.07241,21.2496 21.47764,46.1472 1.85864,10.50468 2.22254,16.37092 2.2797,36.75002 l 0.068,24.25001 3.5,0.0155 c 1.925,0.008 10.16626,0.46894 18.31392,1.02319 l 14.81392,1.00774 4.0988,-3.50842 c 6.96479,-5.9616 15.26119,-5.9835 21.18877,-0.0559 1.86226,1.86225 3.91264,4.9819 4.55641,6.93253 0.96107,2.91208 1.86587,3.73387 5.05711,4.59318 2.13765,0.57561 4.15718,1.48433 4.48786,2.01938 0.33069,0.53506 1.31971,0.97283 2.19784,0.97283 0.87812,0 3.07154,1.125 4.87426,2.5 1.80272,1.375 3.71599,2.5 4.25172,2.5 0.53573,0 2.99934,2.25261 5.47469,5.0058 4.51558,5.02241 7.6847,12.03961 7.6847,17.01579 0,3.27611 -3.19727,12.77365 -5.59816,16.6294 -4.14632,6.65888 -20.57726,20.80554 -32.98735,28.40135 -5.82765,3.56691 -22.66134,11.95839 -26.73552,13.32747 -1.74401,0.58605 -1.73834,0.72843 0.13387,3.36606 2.00152,2.81979 7.54827,12.83811 12.0444,21.75413 1.38676,2.75 3.02533,5.675 3.64126,6.5 1.32047,1.76867 7.74538,16.9667 9.30042,22 4.10791,13.29636 5.76018,25.93307 4.35472,33.30529 -1.26118,6.61542 -6.41596,13.8733 -11.53779,16.24509 -5.05425,2.3405 -19.80249,2.65765 -26.61585,0.57236 -9.35536,-2.8633 -18.63303,-6.53796 -22.29862,-8.83196 -2.08924,-1.30749 -4.78924,-2.81142 -6,-3.34206 -2.58506,-1.13298 -9.53321,-5.25449 -15.77569,-9.35785 -13.09497,-8.60769 -17.73286,-11.79123 -20.65715,-14.17948 l -3.23146,-2.63911 -1.01794,2.86386 c -0.55987,1.57512 -1.4615,3.53886 -2.00362,4.36386 -0.54213,0.825 -1.66255,3.075 -2.48983,5 -0.82727,1.925 -1.96225,4.175 -2.52217,5 -0.55992,0.825 -1.56696,2.625 -2.23786,4 -0.6709,1.375 -2.69588,4.6375 -4.49995,7.25 -1.80407,2.6125 -2.91023,4.75 -2.45813,4.75 1.36515,0 4.19242,6.85564 4.19242,10.16589 0,7.68533 -9.05187,14.65326 -17.40787,13.4002 -4.10185,-0.61511 -4.61592,-0.40271 -9.71162,4.01273 -10.86263,9.41248 -24.78768,13.51438 -34.12143,10.05115 z m 16.55554,-8.79997 c 4.95882,-2.07518 12.82906,-7.5105 15.39663,-10.63316 0.82377,-1.00187 0.90375,-2.0477 0.25,-3.26924 -2.2777,-4.25593 -0.72474,-11.0732 3.48039,-15.27833 2.77964,-2.77964 9.58674,-5.09243 12.37945,-4.20605 1.69133,0.5368 4.52164,-3.5287 10.67891,-15.33939 1.1,-2.10998 2.48418,-4.45902 3.07597,-5.22008 0.90818,-1.16798 5.42403,-12.33695 5.42403,-13.41518 0,-0.1944 -4.1625,-3.76661 -9.25,-7.93825 -5.0875,-4.17163 -12.625,-10.53957 -16.75,-14.15097 -7.14284,-6.25349 -7.69049,-6.53863 -11.5,-5.9877 -10.47843,1.51538 -24.25718,2.78789 -37,3.41709 l -14,0.69126 0.10993,14.5 c 0.10855,14.31833 1.47243,30.29328 3.50044,41 2.08373,11.00089 9.67985,30 11.99443,30 0.49236,0 0.8952,0.6957 0.8952,1.546 0,1.8905 9.38039,6.43058 13.31462,6.44423 1.54804,0.005 5.14804,-0.96673 8,-2.16023 z m 151.45007,-34.25313 c 3.68247,-3.37471 3.74031,-3.54479 4.08884,-12.0223 0.49833,-12.12105 -2.26389,-22.29958 -11.4672,-42.25564 -1.31924,-2.86059 -2.85654,-6.23559 -3.41622,-7.5 -0.55968,-1.26441 -2.10876,-4.09893 -3.44241,-6.29893 -1.33364,-2.2 -2.90464,-4.9 -3.4911,-6 -0.58646,-1.1 -1.94528,-3.35 -3.01959,-5 -1.07431,-1.65 -2.59671,-4.40757 -3.38312,-6.12792 -1.90609,-4.16982 -2.74974,-4.54361 -6.20559,-2.74943 -3.92549,2.038 -11.92745,4.91479 -23.4283,8.42272 -21.41138,6.53079 -21.29528,6.47329 -23.65441,11.71554 -1.17299,2.6065 -3.53934,8.91952 -5.25856,14.02893 -1.71922,5.10942 -4.01712,10.95275 -5.10644,12.98519 -1.08933,2.03244 -1.98059,4.25291 -1.98059,4.93437 0,0.68146 4.10476,4.06312 9.1217,7.51481 5.01693,3.45168 11.86904,8.18547 15.22691,10.51953 3.35787,2.33405 7.4656,4.9416 9.1283,5.79456 1.6627,0.85296 4.37309,2.40952 6.02309,3.45902 3.73578,2.3762 10.54109,5.57768 15.91118,7.48524 2.24885,0.79883 5.88882,2.1223 8.08882,2.94104 2.43533,0.90632 7.62404,1.50578 13.26469,1.53251 9.1794,0.0435 9.29906,0.0124 13,-3.37924 z m -94.75517,-46.07687 c 0.68812,-2.2 1.6188,-4.46757 2.06818,-5.03905 0.74813,-0.95141 6.9223,-17.03206 6.9223,-18.02917 0,-1.18901 -7.81021,-0.12409 -18.83564,2.56822 -6.75701,1.65 -13.60822,3 -15.22491,3 -4.12549,0 -3.67976,1.32978 1.91206,5.70448 2.66834,2.08753 8.37352,6.84284 12.67818,10.56734 4.30467,3.72451 8.14212,6.42451 8.52768,6 0.38557,-0.4245 1.26403,-2.57182 1.95215,-4.77182 z m -101.9466,-21.75 c 0.17616,-6.29932 3.79609,-33.68366 6.05495,-45.80497 l 1.22154,-6.55496 -4.15968,-5.94504 c -2.28782,-3.26977 -6.43818,-8.87003 -9.22302,-12.44503 -2.78484,-3.575 -5.97606,-7.9625 -7.09159,-9.75 -1.11553,-1.7875 -2.48603,-3.25 -3.04555,-3.25 -2.14952,0 -20.13814,8.61078 -27.81957,13.31666 -3.575,2.19016 -8.04979,4.63239 -9.94399,5.42719 -9.10001,3.81836 -25.07488,17.19988 -29.45421,24.67265 -2.92437,4.99006 -4.12455,10.98344 -3.1934,15.94693 1.72616,9.20121 18.9179,18.91554 39.27171,22.19079 5.10414,0.82134 9.93245,1.74361 10.72958,2.0495 1.70067,0.65261 20.13343,2.04342 29.84031,2.25155 6.35916,0.13635 6.75364,0.0145 6.81292,-2.10527 z m 40.43708,0.0844 c 6.6,-0.6047 12.34157,-1.40389 12.75904,-1.77596 0.41748,-0.37208 -5.67221,-7.39993 -13.53265,-15.61745 -7.86043,-8.21753 -16.78044,-17.90498 -19.82223,-21.52767 l -5.53055,-6.58671 -1.17399,6.58671 c -0.98985,5.55362 -2.27974,16.01608 -4.61227,37.41081 l -0.41692,3.8241 10.16479,-0.60718 c 5.59063,-0.33395 15.56478,-1.10194 22.16478,-1.70665 z m 37.40179,-4.85004 c 5.17098,-1.09138 10.34598,-1.98047 11.5,-1.97576 1.15402,0.005 7.19938,-1.19271 13.43415,-2.66094 10.08981,-2.37606 11.44272,-2.95035 12.30725,-5.22426 0.93014,-2.44645 2.1069,-6.65466 7.44477,-26.62337 2.65959,-9.94941 7.41204,-31.08781 7.41204,-32.968 0,-0.65957 -1.83938,-3.1866 -4.0875,-5.61561 -2.24813,-2.42901 -6.60381,-7.27744 -9.67929,-10.77428 -3.07547,-3.49683 -8.80258,-9.70696 -12.72689,-13.80028 l -7.13511,-7.4424 -10.43561,1.61514 c -24.58004,3.8043 -57.26692,10.71385 -59.29607,12.53437 -0.92926,0.83372 -2.1997,5.55418 -6.71518,24.95106 -1.60046,6.875 -3.13121,13.45063 -3.40168,14.61251 -0.33597,1.44326 0.53297,3.21331 2.74279,5.58718 1.77899,1.91107 4.94212,5.68544 7.02917,8.38749 9.34801,12.10264 38.35509,41.42938 40.94592,41.39715 0.6927,-0.009 5.49026,-0.90861 10.66124,-2 z m -10.98351,-28.27965 c -21.30784,-7.26379 -30.12715,-33.296 -16.67683,-49.22552 6.65343,-7.87981 19.89033,-10.00806 30.36679,-4.8824 6.93618,3.39356 13.27311,9.81172 16.93646,17.15358 2.42311,4.85624 2.87505,6.99275 2.90848,13.74966 0.0344,6.94954 -0.31845,8.60987 -2.68718,12.6446 -3.59529,6.12398 -7.72744,9.4695 -13.99492,11.33074 -6.75668,2.00652 -9.00813,1.90356 -16.8528,-0.77066 z m 16.33624,-10.28901 c 10.34416,-4.93279 11.20504,-20.5488 1.67422,-30.36966 -7.26796,-7.48914 -17.19996,-9.46787 -24.36325,-4.85384 -11.78042,7.58802 -9.00717,27.5779 4.84865,34.94959 4.0614,2.16078 13.5772,2.30688 17.84038,0.27391 z m 47.26805,27.22297 c 2.76241,-0.73569 5.91241,-1.8345 7,-2.44179 1.08759,-0.60728 4.22743,-1.7794 6.97743,-2.60471 6.6552,-1.99729 19.77347,-6.53227 20.23719,-6.99599 1.05597,-1.05597 -12.22287,-19.43777 -25.71432,-35.59615 l -2.92233,-3.5 -0.0759,3 c -0.0949,3.74748 -2.78448,15.6561 -6.77562,30 -3.90241,14.02503 -5.128,19.50305 -4.36005,19.48813 0.33609,-0.007 2.87123,-0.6138 5.63364,-1.34949 z m 57.085,-22.07436 c 7.09084,-3.53965 14.44236,-7.58965 16.33671,-9 1.89435,-1.41036 3.94942,-2.56428 4.56682,-2.56428 1.78182,0 19.45587,-16.06722 22.76873,-20.69873 4.31978,-6.03919 5.82381,-12.66688 4.03719,-17.79027 -0.76929,-2.20605 -2.20597,-4.98152 -3.19262,-6.16772 -2.45444,-2.95083 -11.60552,-8.64641 -17.41263,-10.83753 l -4.78824,-1.80667 -2.71176,2.58684 c -8.15152,7.776 -20.69823,5.64612 -25.48161,-4.32566 l -2.23016,-4.64915 -10.40556,-0.65556 c -5.72306,-0.36055 -13.84451,-0.65555 -18.04767,-0.65555 l -7.64211,0 -1.84536,14.25 c -3.03546,23.44 -3.01531,22.29358 -0.45612,25.95882 1.26391,1.81015 4.83992,6.21618 7.94669,9.79118 3.10676,3.575 7.51968,9.2 9.80647,12.5 2.28679,3.3 6.41834,9.2625 9.18121,13.25 2.76287,3.9875 5.39559,7.25 5.8505,7.25 0.4549,0 6.62869,-2.89608 13.71952,-6.43572 z M 244.95927,650.36215 c 1.35145,-5.775 2.89466,-12.1875 3.42936,-14.25 0.7594,-2.92923 0.68352,-3.75 -0.34671,-3.75 -1.82682,0 -21.68562,6.8081 -22.58143,7.74148 -0.40039,0.41719 1.25278,3.23352 3.6737,6.25852 2.42092,3.025 6.29162,7.9542 8.60154,10.95377 2.30993,2.99957 4.32733,5.02457 4.48311,4.5 0.15579,-0.52457 1.38898,-5.67877 2.74043,-11.45377 z m 122.13247,-32.17488 0.69965,-6.02826 -9.85997,0.63326 c -5.42299,0.3483 -11.80355,0.87624 -14.17903,1.1732 l -4.31905,0.53994 7.81905,8.26327 c 4.30048,4.5448 9.84405,10.47507 12.31905,13.17837 l 4.5,4.9151 1.16032,-8.32331 c 0.63818,-4.57783 1.47517,-11.03603 1.85998,-14.35157 z m -140.89242,12.51435 c 2.12966,-0.9133 8.76224,-3.08216 14.73905,-4.8197 11.90381,-3.46059 11.59329,-3.1624 14.59954,-14.01977 1.19771,-4.32568 4.56543,-14.12626 7.0443,-20.5 1.17648,-3.025 2.49554,-6.625 2.93124,-8 0.43571,-1.375 2.202,-5.59974 3.92509,-9.38832 3.73236,-8.20634 3.81298,-9.17734 0.89183,-10.7407 -1.23258,-0.65966 -5.17008,-3.32547 -8.75,-5.92403 -3.57991,-2.59855 -7.93549,-5.56216 -9.67906,-6.5858 -1.74357,-1.02363 -7.93055,-4.72159 -13.74884,-8.21768 -10.8675,-6.53005 -21.11723,-11.00621 -31.24008,-13.64288 -11.69644,-3.04654 -19.59667,-1.24943 -24.17591,5.49941 -2.22934,3.28558 -2.34261,4.14326 -1.84889,14 0.31397,6.26807 1.18576,12.11216 2.16303,14.5 1.47416,3.60189 2.22849,4.1859 7.57913,5.86787 4.75771,1.49558 6.53995,2.68091 8.94186,5.94701 4.50468,6.1254 3.83583,15.25663 -1.43812,19.63363 -1.41246,1.17223 -1.34466,1.66615 0.67642,4.92716 1.23544,1.99338 3.37469,5.67808 4.75389,8.18822 6.76773,12.31722 15.56882,24.93611 17.39179,24.93611 0.75438,0 3.11406,-0.74724 5.24373,-1.66053 z m 49.07898,-14.30761 c 7.3502,-1.86226 13.49384,-3.02768 37.79314,-7.16918 3.85,-0.65618 7.19246,-1.34868 7.42768,-1.53889 0.53462,-0.43229 -11.5325,-12.15028 -19.38465,-18.82379 C 286.77961,576.679 284.94525,575.10679 282.79,573.15634 c -1.2548,-1.13555 -2.4654,-1.88068 -2.69023,-1.65585 -0.62429,0.62429 -6.63468,14.0276 -7.5612,16.86166 -0.44952,1.375 -1.77747,4.975 -2.95101,8 -2.00086,5.15755 -8.01612,22.79434 -8.01612,23.50331 0,0.17763 1.2375,-0.0629 2.75,-0.53459 1.5125,-0.47165 6.44309,-1.79324 10.95686,-2.93686 z m 79.34713,-11.67414 13.94601,-0.66573 -0.0314,-24.596 c -0.0253,-19.76966 -0.40604,-26.65635 -1.94051,-35.09599 -2.7975,-15.38631 -4.30107,-20.75217 -7.84588,-28 -3.77641,-7.72134 -5.30994,-9.63121 -11.10294,-13.82764 -5.8546,-4.24105 -10.1176,-4.18948 -18.8542,0.22807 -8.55808,4.32728 -16.43917,12.4704 -26.71145,27.59957 -7.89287,11.62474 -10.18023,15.44364 -16.00946,26.72891 l -3.21746,6.22891 2.10667,1.40634 c 1.15866,0.77349 4.62259,3.59548 7.69762,6.27109 3.07503,2.67561 8.2298,7.11475 11.45505,9.86475 5.6756,4.83929 13.91063,12.35589 23.37971,21.34003 4.29147,4.07169 4.84038,4.30427 8.87827,3.76173 2.3672,-0.31807 10.5797,-0.87788 18.25,-1.24404 z"
         id="path2998"
         inkscape:connector-curvature="0" />
    </g>
  </g>
</svg>
