<?xml version="1.0" encoding="UTF-8" standalone="no"?>
<!-- Created with Inkscape (http://www.inkscape.org/) -->

<svg
   xmlns:dc="http://purl.org/dc/elements/1.1/"
   xmlns:cc="http://creativecommons.org/ns#"
   xmlns:rdf="http://www.w3.org/1999/02/22-rdf-syntax-ns#"
   xmlns:svg="http://www.w3.org/2000/svg"
   xmlns="http://www.w3.org/2000/svg"
   xmlns:sodipodi="http://sodipodi.sourceforge.net/DTD/sodipodi-0.dtd"
   xmlns:inkscape="http://www.inkscape.org/namespaces/inkscape"
   width="512"
   height="512"
   id="svg2"
   version="1.1"
   inkscape:version="0.48.5 r10040"
   sodipodi:docname="ilitomic-logo.svg"
   inkscape:export-filename="D:\ilitomic-logo.png"
   inkscape:export-xdpi="90"
   inkscape:export-ydpi="90">
  <defs
     id="defs4" />
  <sodipodi:namedview
     id="base"
     pagecolor="#ffffff"
     bordercolor="#666666"
     borderopacity="1.0"
     inkscape:pageopacity="0.0"
     inkscape:pageshadow="2"
     inkscape:zoom="0.34999999"
     inkscape:cx="-763.14289"
     inkscape:cy="277.39168"
     inkscape:document-units="px"
     inkscape:current-layer="layer1"
     showgrid="true"
     borderlayer="false"
     showguides="true"
     inkscape:snap-grids="false"
     inkscape:snap-page="false"
     inkscape:guide-bbox="true"
     inkscape:window-width="1280"
     inkscape:window-height="1002"
     inkscape:window-x="1272"
     inkscape:window-y="-8"
     inkscape:window-maximized="1">
    <inkscape:grid
       type="xygrid"
       id="grid2985"
       empspacing="5"
       visible="true"
       enabled="true"
       snapvisiblegridlinesonly="true"
       spacingx="0.5px"
       spacingy="0.5px" />
    <sodipodi:guide
       orientation="1,0"
       position="-296.98485,219.2031"
       id="guide3783" />
  </sodipodi:namedview>
  <metadata
     id="metadata7">
    <rdf:RDF>
      <cc:Work
         rdf:about="">
        <dc:format>image/svg+xml</dc:format>
        <dc:type
           rdf:resource="http://purl.org/dc/dcmitype/StillImage" />
        <dc:title />
      </cc:Work>
    </rdf:RDF>
  </metadata>
  <g
     inkscape:label="Layer 1"
     inkscape:groupmode="layer"
     id="layer1"
     transform="translate(0,-540.3622)">
    <g
       id="g3025"
       transform="translate(1.8078294e-6,-21.268436)">
      <path
         sodipodi:nodetypes="sssssssssssssssssssssss"
         inkscape:connector-curvature="0"
         id="path3775"
         d="m 224.43238,600.49004 c 17.10358,0.20416 35.77913,7.62402 50.04332,17.06364 13.83059,9.15268 22.68007,21.26071 30.67096,35.79351 7.98101,14.51481 13.41171,30.73936 15.71429,47.14285 2.31894,16.52 0.47184,32.60174 1.64521,49.24239 1.19234,16.90966 0.27776,31.63824 8.02304,46.717 7.69391,14.97878 23.85834,27.66994 32.72715,41.98442 8.92449,14.40434 13.8729,29.66778 16.89031,46.34191 3.01056,16.63623 3.19034,33.99014 0.71429,50.71428 -2.41514,16.31275 -7.39863,32.17025 -15.75761,46.38525 -8.45254,14.37413 -19.47777,28.20571 -33.5281,37.18621 -13.95693,8.9208 -30.57859,15.6771 -47.14286,15.7143 -16.7903,0.038 -32.51839,-4.7933 -46.59444,-13.9465 -13.99087,-9.0979 -28.04974,-26.30343 -35.08666,-41.43606 -9.46167,-20.34698 -12.31854,-29.0152 -16.89032,-45.33177 -5.3882,-19.23035 -7.65422,-32.97212 -12.14286,-49.28571 -4.55569,-16.55728 -9.26245,-33.09997 -15,-49.28572 -5.4953,-15.50236 -11.27253,-28.20691 -16.04604,-43.94651 -4.79747,-15.81856 -11.30701,-33.85411 -12.52538,-50.3392 -1.26549,-17.12259 -1.1836,-34.74154 2.85713,-51.42857 3.98832,-16.47063 11.11021,-32.46612 20.71428,-46.42857 8.778,-12.76151 19.42957,-25.13645 32.85715,-32.85715 11.31481,-6.50588 24.80619,-10.15578 37.85714,-10 z"
         style="fill:#22b4d6;fill-opacity:1;stroke:#000000;stroke-width:8;stroke-linecap:butt;stroke-linejoin:miter;stroke-miterlimit:4;stroke-opacity:1;stroke-dasharray:none" />
      <path
         sodipodi:nodetypes="cssc"
         inkscape:connector-curvature="0"
         id="path3777"
         d="m 323.99121,772.93755 c 0,0 -4.29524,17.98814 -8.72463,26.25435 -3.8228,7.13419 -7.88351,12.44692 -14.30628,17.3722 -7.43745,5.70338 -27.86721,11.62464 -27.86721,11.62464"
         style="fill:none;stroke:#000000;stroke-width:8;stroke-linecap:round;stroke-linejoin:miter;stroke-miterlimit:4;stroke-opacity:1;stroke-dasharray:none" />
      <path
         sodipodi:nodetypes="csssscssscsc"
         inkscape:connector-curvature="0"
         id="path3779"
         d="m 321.9359,730.003 c 0,0 -4.42509,21.48006 -9.69054,33.89087 -2.50363,5.90114 -6.60901,17.22512 -11.23003,24.50314 -3.56106,5.60863 -6.14483,9.86401 -13.17733,16.34459 -7.57351,6.97913 -15.59005,10.91669 -26.17595,18.19612 -16.40038,11.27779 -30.89241,21.38584 -30.89241,21.38584 0,0 21.43572,-2.18322 39.35509,-5.73005 7.56052,-1.49648 28.65022,-6.01427 34.62153,-7.57308 11.0487,-2.88424 15.79275,-3.40311 27.19181,-2.72932 17.78399,1.0512 37.475,22.09336 37.475,22.09336 0,0 -31.62444,-34.10054 -40.02326,-56.36638 C 321.48624,773.06518 321.9359,730.003 321.9359,730.003 z"
         style="opacity:0.33000004;fill:#000000;fill-opacity:1;stroke:none" />
      <path
         sodipodi:nodetypes="csssssscssssc"
         inkscape:connector-curvature="0"
         id="path3781"
         d="m 382.29251,902.88395 c 0,0 -1.33729,39.9999 -6.31345,55.08177 -4.91107,14.88462 -12.66954,29.14336 -22.72843,41.16372 -8.48782,10.14296 -19.09846,18.85556 -30.80965,25.00126 -11.56069,6.0668 -24.54066,10.574 -37.58933,11.0062 -11.4758,0.3801 -23.15866,-2.7521 -33.62642,-7.4706 -13.18595,-5.9438 -25.67061,-14.5414 -35.1028,-25.5064 -11.68715,-13.58644 -24.74874,-47.72971 -24.74874,-47.72971 0,0 16.47385,30.02508 35.9081,40.13562 14.15306,7.36309 40.1752,15.10869 56.06654,13.69839 16.09156,-1.4282 35.96708,-10.37692 48.60245,-20.44296 12.01499,-9.5718 26.18563,-23.77222 34.59028,-36.63073 8.46659,-12.95326 15.75145,-48.30656 15.75145,-48.30656 z"
         style="opacity:0.33000004;fill:#000000;fill-opacity:1;stroke:none" />
      <path
         sodipodi:nodetypes="ssssssssssss"
         inkscape:connector-curvature="0"
         id="path3785"
         d="m 211.57524,621.91862 c -6.69119,-0.48921 -12.48653,3.74956 -18.10969,8.78063 -6.1493,5.50182 -9.37563,9.51742 -14.36493,16.08938 -3.67895,4.84597 -8.97367,12.60502 -11.8111,17.98713 -3.67599,6.9727 -6.54495,12.12014 -7.72716,19.91334 -0.79289,5.22678 -1.35569,15.21694 0.88017,20.00744 2.99392,6.41481 7.56637,10.19382 14.53825,11.42113 10.06941,1.77259 18.00177,-4.18653 24.87002,-11.76033 8.02397,-8.84825 12.47078,-16.15076 16.72445,-24.58158 4.10504,-8.13625 7.99544,-16.69292 9.28571,-25.71429 1.08082,-7.55701 0.99449,-13.39403 -1.42858,-22.85714 -1.31134,-5.12135 -7.58464,-8.90022 -12.85713,-9.28571 z"
         style="opacity:0.66000001;fill:#ffffff;fill-opacity:1;stroke:none" />
    </g>
  </g>
</svg>
