<?xml version="1.0" encoding="UTF-8" standalone="no"?>
<!-- Created with Inkscape (http://www.inkscape.org/) -->

<svg
   xmlns:dc="http://purl.org/dc/elements/1.1/"
   xmlns:cc="http://creativecommons.org/ns#"
   xmlns:rdf="http://www.w3.org/1999/02/22-rdf-syntax-ns#"
   xmlns:svg="http://www.w3.org/2000/svg"
   xmlns="http://www.w3.org/2000/svg"
   xmlns:sodipodi="http://sodipodi.sourceforge.net/DTD/sodipodi-0.dtd"
   xmlns:inkscape="http://www.inkscape.org/namespaces/inkscape"
   version="1.1"
   id="svg3715"
   xml:space="preserve"
   width="512"
   height="512"
   viewBox="0 0 512.00002 512"
   sodipodi:docname="echidna.svg"
   inkscape:version="0.92.1 r15371"
   inkscape:export-filename="D:\avatar\echidna.png"
   inkscape:export-xdpi="96"
   inkscape:export-ydpi="96"><metadata
     id="metadata3721"><rdf:RDF><cc:Work
         rdf:about=""><dc:format>image/svg+xml</dc:format><dc:type
           rdf:resource="http://purl.org/dc/dcmitype/StillImage" /><dc:title></dc:title></cc:Work></rdf:RDF></metadata><defs
     id="defs3719" /><sodipodi:namedview
     pagecolor="#ffffff"
     bordercolor="#666666"
     borderopacity="1"
     objecttolerance="10"
     gridtolerance="10"
     guidetolerance="10"
     inkscape:pageopacity="0"
     inkscape:pageshadow="2"
     inkscape:window-width="1280"
     inkscape:window-height="972"
     id="namedview3717"
     showgrid="false"
     inkscape:zoom="0.72315757"
     inkscape:cx="492.14877"
     inkscape:cy="337.5717"
     inkscape:window-x="1272"
     inkscape:window-y="-8"
     inkscape:window-maximized="1"
     inkscape:current-layer="g3723" /><g
     id="g3723"
     inkscape:groupmode="layer"
     inkscape:label="pdf"
     transform="matrix(1.3333333,0,0,-1.3333333,0,511.99999)"><path
       d="m 210.4912,329.29425 c -2.7102,7.7451 -4.8651,15.7507 -6.4179,23.9689 -3.9889,0.2942 -8.0181,0.4444 -12.0821,0.4444 -4.0439,0 -8.0521,-0.1485 -12.0215,-0.4402 -1.5533,-8.2119 -3.7085,-16.211 -6.4173,-23.9499 5.739,2.1458 11.9514,3.3199 18.4388,3.3199 6.51,0 12.744,-1.1829 18.5,-3.3431"
       style="fill:#4d533c;fill-opacity:1;fill-rule:evenodd;stroke:none"
       id="path3725"
       inkscape:connector-curvature="0" /><path
       d="m 282.8268,140.04785 c 6.2949,13.1457 9.8198,27.8697 9.8198,43.4177 0,27.7334 -11.2164,52.8472 -29.3598,71.0524 -3.5308,2.8519 -6.9438,5.8448 -10.2294,8.9697 -17.3996,16.5501 -31.231,36.8166 -40.2242,59.5261 -6.2991,3.0563 -13.3702,4.7713 -20.842,4.7713 -7.4466,0 -14.4955,-1.7031 -20.7788,-4.7401 -8.9822,-22.6794 -22.7903,-42.9211 -40.1582,-59.4587 -3.3488,-3.1881 -6.8289,-6.2388 -10.4331,-9.1426 -18.1001,-18.1992 -29.285295,-43.2822 -29.285295,-70.9781 0,-15.3343 3.4287,-29.8681 9.562095,-42.8754 18.1068,-39.1073 38.9117,-109.999805 91.0933,-109.999805 51.7173,0 73.2076,71.384305 90.8356,109.457505"
       style="fill:#8b956b;fill-opacity:1;fill-rule:evenodd;stroke:none"
       id="path3727"
       inkscape:connector-curvature="0" /><path
       d="m 179.3963,297.77155 c -4.4515,-0.3169 -7.7323,-5.1917 -7.3261,-10.8831 0.4053,-5.6925 4.3438,-10.0519 8.7956,-9.7364 4.4524,0.3183 7.7335,5.1916 7.3287,10.8842 -0.4074,5.6931 -4.3453,10.0522 -8.7982,9.7353 z"
       style="fill:#1f1f1f;fill-opacity:1;fill-rule:evenodd;stroke:none"
       id="path3729"
       inkscape:connector-curvature="0" /><path
       d="m 204.5861,297.77155 c 4.4515,-0.3169 7.7323,-5.1917 7.3264,-10.8831 -0.4053,-5.6925 -4.3438,-10.0519 -8.7956,-9.7364 -4.4524,0.3183 -7.7335,5.1916 -7.329,10.8842 0.4074,5.6931 4.3455,10.0522 8.7982,9.7353 z"
       style="fill:#1f1f1f;fill-opacity:1;fill-rule:evenodd;stroke:none"
       id="path3731"
       inkscape:connector-curvature="0" /><path
       d="m 236.6281,281.56955 c 8.3749,12.9574 19.6376,16.8979 31.168,20.0041 -5.9989,-6.5197 -14.5987,-13.9011 -15.7498,-24.77 21.3582,12.2494 42.7986,15.9826 58.6752,12.7446 -11.8735,-4.4045 -22.5117,-10.3876 -28.7414,-22.0091 24.8811,9.5834 37.2963,4.3223 54.1106,-3.3128 -10.5727,-2.7766 -18.2336,-2.9327 -29.281,-11.2601 19.4672,5.1636 48.4109,-14.3705 57.086,-26.9606 -19.9624,6.7496 -30.846,12.1828 -47.1359,0.508 21.9473,-3.3571 35.043,-13.1502 50.0857,-28.7819 -13.1871,3.8157 -26.4592,4.3504 -39.9912,-5.3798 13.989,-5.6501 22.8007,-14.0423 26.4396,-25.1737 -10.9437,5.1424 -16.7528,5.7818 -28.6926,3.407 11.8746,-12.64 14.8493,-26.0292 15.2949,-42.8389 -6.8621,6.3839 -14.6106,10.7425 -24.3111,10.6441 7.8123,-12.3228 11.9211,-25.8443 7.8812,-42.002405 -3.4597,8.386305 -8.291,15.599705 -18.0093,18.612605 6.5352,-15.846505 8.2176,-32.245805 -0.7759,-49.858005 -1.1789,9.5621 -3.3315,18.6574 -12.2856,24.4834 4.5439,-13.4634 0.1528,-27.5556 -7.1178,-36.8986 -2.1677,10.7989 -1.546,18.896 -11.2085,24.7864 0.6885,-12.507 -1.4972,-23.3957 -10.0117,-30.7258 1.6467,10.4216 -1.1732,18.7979 -8.2278,25.232 -2.8834,-13.8308 -9.2906,-27.1953 -23.4485,-39.5297 4.2423,8.5249 6.372,16.0744 6.389,22.6466 20.4956,24.2591 33.0316,61.099605 44.0566,84.910905 6.2944,13.1457 9.8198,27.8703 9.8198,43.4177 0,27.7336 -11.2164,52.8472 -29.3598,71.0524 -3.5308,2.8517 -6.9438,5.8445 -10.2294,8.97 -5.9037,5.6157 -11.3967,11.6597 -16.4293,18.0816"
       style="fill:#c4cfa1;fill-opacity:1;fill-rule:evenodd;stroke:none"
       id="path3733"
       inkscape:connector-curvature="0" /><path
       d="m 147.3719,281.56955 c -8.375,12.9574 -19.6376,16.8979 -31.1681,20.0041 5.999,-6.5197 14.5987,-13.9011 15.7499,-24.77 -21.3582,12.2494 -42.798595,15.9826 -58.675195,12.7446 11.8735,-4.4045 22.5116,-10.3876 28.741295,-22.0091 -24.881095,9.5834 -37.296295,4.3223 -54.110495,-3.3128 10.5726,-2.7766 18.2335,-2.9327 29.281,-11.2601 -19.4672,5.1636 -48.4109,-14.3705 -57.0861,-26.9606 19.9625,6.7496 30.8461,12.1828 47.1359,0.508 -21.9472,-3.3571 -35.043,-13.1502 -50.0856,-28.7819 13.1871,3.8157 26.4592,4.3504 39.9912,-5.3798 -13.989,-5.6501 -22.8008,-14.0423 -26.4396,-25.1737 10.9437,5.1424 16.7527,5.7818 28.6926,3.407 -11.8747,-12.64 -14.8493,-26.0292 -15.2949,-42.8389 6.8621,6.3839 14.6106,10.7425 24.311,10.6441 -7.8123,-12.3228 -11.9211,-25.8443 -7.8811,-42.002405 3.4596,8.386305 8.291,15.599705 18.0093,18.612605 -6.5353,-15.846505 -8.2176,-32.245805 0.7758,-49.858005 1.179,9.5621 3.3316,18.6574 12.2857,24.4834 -4.544,-13.4634 -0.1528,-27.5556 7.117799,-36.8986 2.167596,10.7989 1.545996,18.896 11.208496,24.7864 -0.6886,-12.507 1.4972,-23.3957 10.0116,-30.7258 -1.6466,10.4216 1.1733,18.7979 8.2279,25.232 2.8834,-13.8308 9.2905,-27.1953 23.4485,-39.5297 -4.2424,8.5249 -6.372,16.0744 -6.3891,22.6466 -20.4956,24.2591 -33.0315,61.099605 -44.0566,84.910905 -6.294295,13.1457 -9.819795,27.8703 -9.819795,43.4177 0,27.7336 11.216395,52.8472 29.359895,71.0524 3.5308,2.8517 6.9437,5.8445 10.2294,8.97 5.9037,5.6157 11.3967,11.6597 16.4293,18.0816"
       style="fill:#c4cfa1;fill-opacity:1;fill-rule:evenodd;stroke:none"
       id="path3735"
       inkscape:connector-curvature="0" /><path
       d="m 23.605905,201.72575 c 6.258,4.0695 21.1765,9.7416 35.1878,10.9409 1.751,0.1505 3.4104,0.1783 4.9791,0.1066 -4.5947,2.3667 -10.0335,4.2772 -16.4432,5.5568 11.4826,3.6844 22.6332,2.0497 32.2659,-1.7734 -3.9246,6.7405 -8.8894,12.2074 -14.3626,14.5375 3.3469,-1.0315 10.7161,-3.7267 18.6001,-7.3443 -14.0828,13.8487 -42.8428,12.6768 -54.6607,6.6226 6.2552,4.0708 25.0537,13.0173 39.0801,13.9969 0.4263,0.0295 0.8597,0.0281 1.2983,-0.002 -2.7565,1.8698 -5.4627,3.2602 -7.9736,4.0006 4.2089,-0.7815 17.0118,-1.0273 29.1756,-4.2934 -9.5908,10.8281 -25.5685,19.9131 -36.2889,20.5716 7.4583,0.3147 28.1897,-1.5667 40.7585,-7.8724 0.9788,-0.4918 1.9523,-1.0655 2.9005,-1.7036 -3.6797,5.69 -8.1301,10.2135 -12.9759,12.2766 4.0433,-1.2453 13.958899,-4.919 23.561595,-9.7175 -4.2588,12.0059 -12.253095,23.8008 -19.865195,28.6183 4.5816,-2.2736 16.757195,-10.47 26.532195,-19.1316 -4.1278,8.0224 -9.6956,14.7289 -15.917896,17.3787 5.852696,-1.8043 24.011996,-8.6976 35.717696,-16.7199 -1.4137,-1.4454 -2.8531,-2.8661 -4.3183,-4.2596 -3.2896,-3.1297 -6.7074,-6.1268 -10.2436,-8.9824 -8.9399,-8.9706 -16.1989,-19.6175 -21.268096,-31.4258 4.354296,-8.666 11.027696,-17.5456 18.364296,-23.8464 -3.8381,13.4609 -4.3277,27.684 -5.2662,32.3501 0.8654,-2.778 2.4559,-5.7617 4.5802,-8.7934 -0.0408,0.4865 -0.0533,0.97 -0.0238,1.442 0.6503,11.9585 6.4528,27.1137 11.1178,36.7016 0.5794,0.5267 1.1556,1.0582 1.728,1.5928 -4.4507,-15.1367 -3.4643,-41.6483 10.3325,-55.2538 -4.1547,8.6984 -7.2768,16.8392 -8.4784,20.5399 2.6824,-6.041 8.8421,-11.4636 16.3998,-15.7114 -4.4127,10.6379 -6.4204,23.0043 -2.5231,35.8286 1.5302,-7.1042 3.7469,-13.1137 6.4573,-18.18 -0.1077,1.7421 -0.1029,3.5863 0.0338,5.5332 1.0913,15.5888 7.1427,32.2687 11.5597,39.2896 v -3e-4 c -3.7741,-15.1719 -1.5316,-40.801 9.5017,-54.2784 2.6218,12.456 7.162,23.8697 10.7305,29.5441 -2.3918,-9.6142 -2.5781,-23.057 0.0219,-35.5453 -0.116,1.7963 -0.1165,3.7072 0.028,5.7229 1.0934,15.5897 7.1397,32.2673 11.56,39.2904 -6.4134,-15.6917 -7.6773,-42.116 9.2103,-54.5899 0.7552,3.0858 2.052,6.3995 4.0235,9.8609 7.7329,13.5805 20.4041,25.9966 27.4244,30.4175 -8.3189,-10.0568 -16.0129,-28.4947 -15.9361,-44.1615 1.4944,3.2269 3.7443,6.6004 6.9191,9.9473 10.7506,11.3414 26.0192,20.3788 33.8916,22.9884 -8.0465,-5.9692 -16.9127,-16.8259 -22.2563,-28.4374 7.8622,12.4299 23.332,22.8668 29.6995,27.1403 -12.0249,-9.9374 -17.9408,-22.6846 -18.7648,-35.068 11.7604,9.7342 27.2268,16.7791 35.1008,18.5105 -6.1177,-3.6195 -12.9004,-9.6463 -18.6539,-16.7675 0.6026,0.4485 1.2285,0.8901 1.8799,1.3295 6.5353,4.3614 14.0542,7.8982 20.9648,10.4408 l 0.0278,-0.0983 c -4.7285,16.7377 -13.6732,31.7058 -25.6133,43.687 -3.5363,2.8556 -6.954,5.8527 -10.2436,8.9824 -1.4652,1.3935 -2.9047,2.8142 -4.3183,4.2596 11.7057,8.0223 29.865,14.9156 35.7177,16.7199 -6.2224,-2.6498 -11.7902,-9.3563 -15.918,-17.3787 9.775,8.6616 21.9507,16.858 26.5323,19.1316 -7.6122,-4.8175 -15.6064,-16.6124 -19.8652,-28.6183 9.6027,4.7985 19.5182,8.4722 23.5616,9.7175 -4.8458,-2.0631 -9.2962,-6.5866 -12.9759,-12.2766 0.9482,0.6381 1.9216,1.2118 2.9004,1.7036 12.5688,6.3057 33.3003,8.1871 40.7585,7.8724 -10.7203,-0.6585 -26.6981,-9.7435 -36.2888,-20.5716 12.1637,3.2661 24.9667,3.5119 29.1756,4.2934 -2.5109,-0.7404 -5.2172,-2.1308 -7.9736,-4.0006 0.4385,0.0304 0.8719,0.0318 1.2983,0.002 14.0264,-0.9796 32.8249,-9.9261 39.0801,-13.9969 -11.8179,6.0542 -40.578,7.2261 -54.6608,-6.6226 7.884,3.6176 15.2533,6.3128 18.6001,7.3443 -5.4731,-2.3301 -10.438,-7.797 -14.3625,-14.5375 9.6326,3.8231 20.7833,5.4578 32.2659,1.7734 -6.4097,-1.2796 -11.8486,-3.1901 -16.4432,-5.5568 1.5687,0.0717 3.2281,0.0439 4.979,-0.1066 14.0114,-1.1993 28.9298,-6.8714 35.1879,-10.9409 l -9e-4,-0.001 c -13.5975,3.6051 -36.6859,1.9403 -48.9636,-7.8009 11.1685,-2.5302 21.3769,-6.7717 26.4291,-10.0605 -8.6142,2.2834 -20.7074,2.6391 -31.978,0.4703 1.6181,0.0808 3.3378,0.0544 5.1503,-0.1015 14.0117,-1.199 28.9318,-6.8711 35.1873,-10.942 -14.0303,5.9862 -37.7864,7.4863 -49.2395,-7.5331 2.7672,-0.7242 5.7297,-1.936 8.8172,-3.7576 12.1096,-7.1441 23.1046,-18.716 26.9844,-25.0928 -8.9328,7.6258 -25.4163,14.8019 -39.5099,14.9479 2.8823,-1.3898 5.8859,-3.4582 8.8549,-6.3609 10.0553,-9.8289 17.9705,-23.6911 20.2124,-30.8086 -5.2596,7.321 -14.9031,15.4459 -25.2771,20.4131 11.0753,-7.2434 20.2513,-21.3052 24.0086,-27.093 -8.7757,10.9531 -20.1605,16.4523 -31.2913,17.3676 8.5957,-10.7169 14.7191,-24.726 16.1688,-31.839005 -3.1726,5.5553 -8.5,11.743105 -14.8283,17.016405 0.396,-0.5471 0.7869,-1.1152 1.169,-1.7099 7.6263,-11.815105 12.268,-27.089005 12.8761,-34.526805 -5.0655,12.0092 -18.6974,27.690505 -32.7745,32.912505 0.9391,-1.0704 1.8632,-2.2539 2.7556,-3.5516 7.9761,-11.581505 13.0725,-26.708305 13.9033,-34.125405 -3.5776,7.8162 -10.9255,17.1173 -19.5961,23.9221 9.1757,-8.3443 16.4534,-19.0811 18.9147,-25.2099 -6.0009,6.7887 -16.6425,13.6967 -27.8065,17.1544 4.9612,-10.4592 7.6264,-21.8483 7.7743,-28.0125 -2.4882,6.5041 -7.5217,14.0343 -13.9138,20.4182 -2.49,-4.4175 -5.1191,-8.7131 -7.9104,-12.7981 l 0.008,0.011 c -1.2711,-8.1093 -3.4813,-15.2804 -5.544,-19.3183 0.46,3.5027 0.4699,7.5489 0.0309,11.8167 -12.6692,-15.9712 -28.4551,-27.2401 -49.0139,-27.2401 -20.6649,0 -36.413,11.1062 -49.0255,26.9524 -0.4096,-4.1618 -0.3895,-8.1051 0.0601,-11.529 -2.0245,3.9622 -4.1904,10.9428 -5.4714,18.8659 -2.8619,4.1763 -5.5503,8.5814 -8.0949,13.1191 -6.3352,-6.3584 -11.3216,-13.8345 -13.794,-20.2978 0.148,6.1642 2.8131,17.5533 7.7743,28.0125 -11.1639,-3.4577 -21.8055,-10.3657 -27.806395,-17.1544 2.4613,6.1288 9.738995,16.8656 18.914695,25.2099 -8.6706,-6.8048 -16.018596,-16.1059 -19.596195,-23.9221 0.8309,7.4171 5.927295,22.5439 13.903395,34.125405 0.8923,1.2977 1.8164,2.4812 2.7555,3.5516 -14.077095,-5.222 -27.708895,-20.903305 -32.774395,-32.912505 0.608,7.4378 5.2498,22.7117 12.8761,34.526805 0.3821,0.5947 0.773,1.1628 1.169,1.7099 -6.3284,-5.2733 -11.6558,-11.461105 -14.8283,-17.016405 1.4496,7.113005 7.573,21.122105 16.1688,31.839005 -11.1308,-0.9153 -22.5156,-6.4145 -31.2914,-17.3676 3.7574,5.7878 12.9334,19.8496 24.0086,27.093 -10.3739,-4.9672 -20.0174,-13.0921 -25.2771,-20.4131 2.2419,7.1175 10.1571,20.9797 20.2125,30.8086 2.969,2.9027 5.9726,4.9711 8.8548,6.3609 -14.0935,-0.146 -30.577,-7.3221 -39.5098,-14.9479 3.8798,6.3768 14.8748,17.9487 26.9844,25.0928 3.0875,1.8216 6.05,3.0334 8.8171,3.7576 -11.4531,15.0194 -35.2091,13.5193 -49.2394,7.5331 6.2554,4.0709 21.1756,9.743 35.1873,10.942 1.8124,0.1559 3.5322,0.1823 5.1502,0.1015 -11.2705,2.1688 -23.3637,1.8131 -31.9779,-0.4703 5.0522,3.2888 15.2606,7.5303 26.4291,10.0605 -12.2777,9.7412 -35.3662,11.406 -48.9637,7.8009 z m 73.0409,14.3822 c -1.4976,-4.3631 -2.7037,-8.8611 -3.5955,-13.4717 2.6932,-4.384 7.170795,-8.3823 12.563995,-11.755 -0.7248,1.044 -1.3782,2.1144 -1.9409,3.1947 -3.2417,6.2203 -5.519895,14.2835 -7.027595,22.032 z m -3.7489,-14.2869 c -1.0638,-5.7484 -1.6378,-11.6683 -1.6803,-17.7146 3.7635,-1.9672 7.742199,-3.6836 11.735695,-5.0315 -4.433096,8.5431 -8.056395,17.3231 -10.055395,22.7461 z M 243.7941,61.186945 c 0.2029,0.2758 0.4047,0.553 0.6057,0.8311 -0.201,-0.2781 -0.4031,-0.5553 -0.6057,-0.8311 z m 1.3501,1.8717 c 0.2466,0.3486 0.4924,0.699 0.737,1.0508 -0.2446,-0.3518 -0.4904,-0.7022 -0.737,-1.0508 z m 47.641,119.722105 c -2.5251,-2.2964 -5.0023,-4.7784 -7.3077,-7.3936 2.2241,2.9245 4.6996,5.7203 7.3077,8.3129 l 0.002,-0.3192 z m -0.0258,2.9284 c -0.005,0.209 -0.0102,0.4173 -0.0164,0.6259 0.006,-0.2086 0.0119,-0.4169 0.0164,-0.6259 z m -0.1476,3.6375 c -0.0165,0.2826 -0.0343,0.5649 -0.053,0.847 0.0187,-0.2821 0.0365,-0.5644 0.053,-0.847 z m -0.0876,1.3425 c -0.0207,0.2882 -0.0423,0.5762 -0.0655,0.8645 0.023,-0.2877 0.0448,-0.5763 0.0655,-0.8645 z m -0.0757,0.9875 c -6.188,-2.6435 -12.6981,-6.0735 -18.4059,-10.1341 -1.4301,-1.0171 -2.7261,-2.0631 -3.9016,-3.1289 3.4767,9.8345 11.4961,19.5443 20.2586,26.8671 0.9819,-4.432 1.6716,-8.9737 2.0489,-13.6041 z m -2.149,14.0511 c -0.047,0.2083 -0.0946,0.417 -0.1431,0.6248 0.0485,-0.2075 0.0967,-0.4162 0.1431,-0.6248 z m -43.1929,63.8294 c 2.1456,10.9063 6.7604,21.4951 12.2369,26.9807 -3.9668,-3.2255 -11.9143,-11.3544 -18.2066,-20.3513 1.9312,-2.2626 3.9223,-4.4734 5.9697,-6.6294 z m -110.2133,0 c -2.1455,10.9063 -6.7603,21.4951 -12.2368,26.9807 3.9668,-3.2255 11.9143,-11.3544 18.2066,-20.3513 -1.9312,-2.2626 -3.9223,-4.4734 -5.9698,-6.6294"
       style="fill:#4d533c;fill-opacity:1;fill-rule:evenodd;stroke:none"
       id="path3737"
       inkscape:connector-curvature="0" /></g></svg>