<?xml version="1.0" encoding="UTF-8" standalone="no"?>
<!-- Created with Inkscape (http://www.inkscape.org/) -->

<svg
   xmlns:dc="http://purl.org/dc/elements/1.1/"
   xmlns:cc="http://creativecommons.org/ns#"
   xmlns:rdf="http://www.w3.org/1999/02/22-rdf-syntax-ns#"
   xmlns:svg="http://www.w3.org/2000/svg"
   xmlns="http://www.w3.org/2000/svg"
   xmlns:sodipodi="http://sodipodi.sourceforge.net/DTD/sodipodi-0.dtd"
   xmlns:inkscape="http://www.inkscape.org/namespaces/inkscape"
   width="600"
   height="400"
   viewBox="0 0 158.74999 105.83334"
   version="1.1"
   id="svg8"
   inkscape:version="0.92.1 r15371"
   sodipodi:docname="logo.svg"
   inkscape:export-filename="D:\logo.png"
   inkscape:export-xdpi="96"
   inkscape:export-ydpi="96">
  <defs
     id="defs2" />
  <sodipodi:namedview
     id="base"
     pagecolor="#ffffff"
     bordercolor="#666666"
     borderopacity="1.0"
     inkscape:pageopacity="0.0"
     inkscape:pageshadow="2"
     inkscape:zoom="1.4"
     inkscape:cx="290.69485"
     inkscape:cy="219.81076"
     inkscape:document-units="mm"
     inkscape:current-layer="layer1"
     showgrid="false"
     units="px"
     inkscape:window-width="1280"
     inkscape:window-height="972"
     inkscape:window-x="1272"
     inkscape:window-y="-8"
     inkscape:window-maximized="1" />
  <metadata
     id="metadata5">
    <rdf:RDF>
      <cc:Work
         rdf:about="">
        <dc:format>image/svg+xml</dc:format>
        <dc:type
           rdf:resource="http://purl.org/dc/dcmitype/StillImage" />
        <dc:title></dc:title>
      </cc:Work>
    </rdf:RDF>
  </metadata>
  <g
     inkscape:label="Layer 1"
     inkscape:groupmode="layer"
     id="layer1"
     transform="translate(0,-191.16666)">
    <path
       style="fill:#aaff66;stroke-width:0.1645011;fill-opacity:1"
       d="m 58.659584,289.24806 c -1.64282,-0.26617 -3.055017,-0.74166 -5.481384,-1.8456 -1.966797,-0.89485 -3.714307,-1.93476 -3.819402,-2.27285 -0.03041,-0.0978 0.461439,-0.38062 1.093008,-0.6284 3.873297,-1.51964 6.912373,-5.06677 7.483698,-8.73477 0.226034,-1.45116 0.05866,-3.56352 -0.388561,-4.904 -0.767779,-2.30127 -2.629784,-4.20786 -5.550157,-5.68307 -2.06943,-1.04536 -5.430365,-1.43125 -8.195151,-0.94093 -1.630641,0.28919 -6.265346,1.47415 -7.052964,1.80323 -2.201166,0.9197 -5.284961,3.51595 -7.643779,6.4353 -1.971427,2.4399 -4.366963,6.42035 -5.494202,9.12925 -0.343333,0.82508 -0.94331,1.481 -2.317314,2.53341 -1.363856,1.04463 -2.641873,1.60075 -4.593381,1.99878 -1.575464,0.32133 -2.417979,0.24307 -3.648183,-0.33891 -1.005511,-0.47569 -1.41014,-1.10605 -1.41014,-2.19683 0,-1.47265 0.88236,-3.0052 2.99278,-5.1981 0.989116,-1.02777 2.172806,-3.1863 3.341073,-6.09265 0.664591,-1.65334 1.66131,-5.091 1.883977,-6.4978 0.276785,-1.74872 0.208033,-4.23594 -0.16667,-6.02951 -1.318832,-6.31282 -1.448037,-7.2182 -1.294289,-9.0695 0.197919,-2.38318 0.392795,-3.46649 1.065674,-5.92402 1.264771,-4.61928 1.444576,-5.11049 3.560412,-9.7264 1.215275,-2.65125 2.398934,-4.65371 3.892432,-6.58503 0.329431,-0.42601 1.051183,-1.36068 1.60389,-2.07706 1.313323,-1.70222 4.478107,-4.99684 5.994729,-6.24066 0.659822,-0.54114 1.760655,-1.4684 2.446296,-2.06058 1.86597,-1.61161 3.974338,-3.28259 4.141838,-3.28259 0.206605,0 0.205397,0.009 -0.345688,2.68866 -0.553366,2.69035 -1.334679,7.38183 -1.244398,7.47212 0.03236,0.0324 0.899353,-0.45303 1.926631,-1.07866 3.050736,-1.85796 7.322472,-3.86429 10.01058,-4.70172 2.580455,-0.80389 4.976624,-1.427 5.084816,-1.32226 0.03712,0.0359 -0.04313,0.19537 -0.178422,0.35425 -0.846063,0.99374 -4.076933,6.66419 -5.422918,9.51767 -0.773022,1.63882 -1.950995,4.65734 -1.950995,4.99939 0,0.0808 0.906814,-0.29034 2.01514,-0.82486 4.494822,-2.16775 10.43916,-3.71401 15.501538,-4.0323 l 1.806829,-0.1136 -1.148821,1.21117 c -2.355865,2.48371 -5.245306,6.5409 -6.654873,9.34439 -0.699469,1.39116 -2.081747,4.66099 -2.323021,5.49518 -0.12664,0.43784 -0.109278,0.46191 0.265255,0.36791 0.22042,-0.0554 1.16386,-0.46049 2.096527,-0.90036 2.634615,-1.24258 5.485246,-2.41383 8.703553,-3.57607 1.554387,-0.56135 5.833489,-1.63253 8.457526,-2.11717 2.647653,-0.489 2.94017,-0.5042 2.39452,-0.12441 -0.506875,0.3528 -2.722693,3.10014 -3.682323,4.56561 -1.11246,1.69885 -2.275272,3.77367 -2.950209,5.26404 -0.532298,1.17541 -1.451487,3.74595 -1.451487,4.05913 0,0.0661 0.8698,-0.28161 1.932892,-0.77278 5.6899,-2.62884 11.878551,-4.61252 19.94576,-6.39335 1.774126,-0.39164 4.292737,-0.77405 4.413197,-0.67007 0.0296,0.0256 -0.19857,0.33071 -0.50714,0.67804 -1.544924,1.73896 -3.345022,4.61873 -4.351953,6.96219 -0.733955,1.70816 -1.363618,3.38752 -1.363618,3.63687 0,0.0705 1.128889,-0.41428 2.508643,-1.07735 2.480194,-1.19192 5.348998,-2.31625 9.664435,-3.78767 2.25424,-0.76862 3.40285,-1.06304 7.43151,-1.90489 2.33404,-0.48774 6.4606,-0.9577 6.65983,-0.75846 0.0627,0.0627 -0.0735,0.31681 -0.30272,0.56468 -0.86915,0.9399 -2.44219,3.22562 -3.22644,4.68821 -0.86032,1.60452 -2.0897,4.53652 -1.95755,4.66867 0.043,0.043 0.44769,-0.14931 0.89942,-0.42726 1.17441,-0.72263 4.37695,-2.21885 5.61386,-2.62279 2.59352,-0.84699 5.135,-0.99257 7.17199,-0.41082 1.34273,0.38347 1.33278,0.36044 0.73984,1.71141 -1.38898,3.16466 -1.98983,5.32848 -2.55003,9.18338 -0.83611,5.7535 -0.94705,11.21387 -0.26459,13.02331 0.74111,1.96491 2.65969,3.42094 4.98119,3.78026 1.55529,0.24072 5.341,-0.0553 7.62166,-0.59596 0.99523,-0.23593 1.93906,-0.49633 2.0974,-0.57866 0.41811,-0.21742 0.35621,0.0472 -0.18624,0.796 -1.99442,2.75323 -6.05756,5.1812 -10.86838,6.49452 -3.23872,0.88416 -3.07656,0.86362 -6.83488,0.86562 -4.02648,0.002 -5.19163,-0.15169 -8.68858,-1.14719 -2.17056,-0.6179 -5.76514,-2.28496 -7.06185,-3.27507 -1.41525,-1.08062 -1.61808,-2.59369 -0.64395,-4.80366 0.83161,-1.88664 1.2217,-3.79534 1.22162,-5.97739 -7e-5,-2.46358 -0.22005,-3.56333 -1.05012,-5.24995 -0.82092,-1.66803 -2.38054,-3.31946 -3.76856,-3.99039 -1.833657,-0.88637 -3.449687,-1.19933 -6.164245,-1.1938 -2.337757,0.005 -2.554016,0.0334 -4.112525,0.54472 -2.86311,0.93935 -7.670883,3.88337 -9.525844,5.83311 -1.607737,1.68987 -3.640564,4.72305 -5.000823,7.46168 -3.328821,6.70197 -4.643365,8.81036 -6.671273,10.7 -1.252937,1.16751 -1.938668,1.55982 -3.230475,1.84813 -1.25739,0.28063 -6.364325,0.33082 -7.925451,0.0779 z M 30.990686,258.76969 c 1.34486,-0.69152 1.871627,-1.61991 1.871627,-3.29863 0,-1.49916 -0.657833,-2.21706 -2.228888,-2.4324 -2.230299,-0.30569 -4.021058,0.90991 -4.343288,2.94832 -0.241336,1.52669 0.327022,2.58689 1.606431,2.9966 0.963717,0.30861 2.251016,0.21963 3.094118,-0.21389 z m 14.37371,22.50513 c -1.807099,-0.31298 -4.185717,-1.55195 -5.912412,-3.07965 l -0.73063,-0.64643 0.97738,-0.66421 c 1.245437,-0.84639 2.179767,-1.75607 3.134185,-3.0515 1.471986,-1.99793 2.00033,-3.3881 2.149645,-5.65613 l 0.09895,-1.503 0.925591,-0.10471 c 2.382996,-0.26961 5.99766,0.99371 7.890828,2.75783 1.681258,1.56665 2.197684,5.6445 1.012226,7.99287 -1.418039,2.80913 -3.786388,4.14625 -7.266486,4.10248 -0.84646,-0.0106 -1.87213,-0.077 -2.279272,-0.14755 z m 55.272374,-3.14988 c -3.978639,-0.9028 -5.19266,-1.38204 -6.093499,-2.40545 -1.701716,-1.93325 -1.498975,-4.67744 0.710539,-9.61749 l 0.496629,-1.11039 h 0.681341 c 0.937358,0 2.459433,0.41825 3.415253,0.93847 1.704557,0.92774 3.153987,3.07842 3.675337,5.45352 0.41163,1.87522 0.19562,3.97899 -0.59804,5.82468 -0.30093,0.69984 -0.62414,1.26377 -0.71823,1.25319 -0.0941,-0.0106 -0.8003,-0.16202 -1.56933,-0.33653 z m 27.88294,-26.37974 c -0.54286,-0.21093 -1.13506,-0.43206 -1.31601,-0.49141 -0.29807,-0.0978 -0.26552,-0.16461 0.34609,-0.71097 0.88335,-0.78911 2.86821,-1.76543 4.91736,-2.41878 l 1.64444,-0.5243 -1.06868,-0.69656 c -2.01491,-1.31328 -8.91719,-4.44822 -9.79378,-4.44822 -0.63857,0 -0.21967,-0.37712 1.34624,-1.212 2.58769,-1.37963 5.09454,-2.32133 8.12521,-3.05222 2.34476,-0.56547 5.38936,-1.18593 6.73845,-1.37324 0.30924,-0.043 -0.34361,-0.42868 -2.63202,-1.55513 -6.68596,-3.29109 -11.4032,-4.88094 -19.041,-6.41735 -0.74643,-0.15015 -1.35714,-0.32924 -1.35714,-0.39799 0,-0.15491 1.82129,-1.62164 3.41047,-2.74653 2.58653,-1.83086 6.23588,-3.66527 8.72675,-4.38667 0.56837,-0.16461 0.97551,-0.35416 0.90476,-0.42121 -0.22708,-0.21524 -1.86777,-0.64502 -4.65242,-1.21871 -3.84927,-0.79302 -5.71107,-1.03699 -9.45881,-1.23946 -3.83488,-0.20719 -7.19929,-0.0961 -10.1937,0.3365 -1.17323,0.1695 -2.1646,0.27672 -2.20307,0.23826 -0.14384,-0.14384 2.56387,-3.29488 4.64611,-5.40684 1.90437,-1.93153 3.61998,-3.34723 5.99202,-4.94454 0.48474,-0.32642 0.64078,-0.51314 0.49351,-0.59051 -0.79253,-0.41639 -7.06561,-0.6335 -9.60692,-0.33249 -0.71557,0.0848 -2.18935,0.23832 -3.27505,0.34126 -3.79402,0.3597 -8.938813,1.16845 -14.785592,2.32423 -1.798787,0.35559 -3.302647,0.61439 -3.341924,0.57512 -0.165766,-0.16577 2.889765,-5.60526 4.432092,-7.89005 0.355886,-0.52721 0.621928,-0.98346 0.591197,-1.01389 -0.03072,-0.0304 -0.870135,0.077 -1.865367,0.23877 -2.02491,0.3291 -4.342685,0.92907 -6.415805,1.66079 -4.836369,1.70703 -13.54567,5.87884 -17.64189,8.45057 -1.379426,0.86605 -2.555906,1.57464 -2.614401,1.57464 -0.490177,0 1.10491,-8.45165 1.996064,-10.57621 0.11873,-0.28306 0.09813,-0.28322 -0.513476,-0.004 -1.110451,0.50744 -5.796875,3.33457 -7.526466,4.54042 -1.785307,1.24469 -6.496812,4.89085 -8.450433,6.53964 -0.655948,0.55361 -1.1942,0.90813 -1.196112,0.78785 -0.0019,-0.1203 0.121355,-0.96127 0.273939,-1.86883 l 0.277422,-1.65011 1.722437,-1.39316 c 2.660134,-2.15159 7.447048,-5.59861 9.326862,-6.71621 2.365892,-1.40658 6.945168,-3.63291 8.963668,-4.35791 0.931514,-0.33459 1.724745,-0.57724 1.762745,-0.53925 0.03799,0.038 -0.261504,0.72735 -0.665565,1.53187 -0.851556,1.69556 -2.17678,5.73653 -2.390754,7.29009 -0.081,0.58809 -0.122909,1.09596 -0.09314,1.12862 0.02979,0.0327 1.779359,-0.79445 3.887967,-1.83799 9.92241,-4.9106 16.305998,-6.88642 24.931077,-7.71657 2.53594,-0.24408 2.698681,-0.13487 1.377752,0.92461 -0.979833,0.78591 -2.741525,2.74107 -3.57225,3.96456 -0.730408,1.07574 -2.041386,3.3375 -2.041386,3.52188 0,0.0947 0.202199,0.13871 0.452374,0.0986 0.24881,-0.0399 1.747825,-0.2655 3.331149,-0.50126 1.583325,-0.23576 3.656037,-0.56554 4.60603,-0.73284 7.315286,-1.2883 15.409516,-1.39376 20.069146,-0.26149 0.49761,0.12092 1.47959,0.34894 2.18217,0.5067 0.70259,0.15777 1.31509,0.34779 1.36112,0.42228 0.046,0.0745 -0.26972,0.3391 -0.70167,0.58805 -1.37508,0.79254 -4.17737,2.70177 -6.17084,4.20427 -1.84358,1.38952 -4.87012,4.16074 -4.71428,4.31658 0.0406,0.0406 0.77516,0.006 1.6323,-0.0768 2.01769,-0.19509 6.4353,-0.19591 8.22071,-0.001 5.73478,0.62439 8.69287,1.24884 13.16009,2.77813 2.62901,0.89999 5.75753,2.26276 5.75753,2.50793 0,0.0691 -0.42565,0.21022 -0.94588,0.31367 -2.80257,0.55735 -8.2179,2.35442 -10.63521,3.52928 -1.21214,0.58912 -3.2867,1.89111 -3.18127,1.99656 0.0331,0.0332 0.7959,0.25075 1.69493,0.4835 7.90169,2.04565 18.58807,6.96049 22.85525,10.5115 l 0.4935,0.41066 -1.31601,0.009 c -1.24162,0.009 -5.36375,0.37482 -6.64925,0.59066 -2.90065,0.48703 -6.32357,1.32442 -7.78026,1.90341 -0.93038,0.36979 -1.75195,0.72779 -1.82571,0.79557 -0.0738,0.0678 0.18533,0.25031 0.57575,0.40563 1.06065,0.42195 6.79122,3.63284 8.11933,4.54935 1.34144,0.92569 3.52987,2.73706 3.52987,2.9217 0,0.0694 -0.5737,0.0254 -1.27488,-0.0976 -2.70562,-0.47471 -7.50628,0.47331 -9.81679,1.93859 -0.8935,0.56664 -0.87191,0.56594 -2.15067,0.0691 z m -23.24279,-8.16429 c 0.20497,-0.36468 1.49902,-1.76386 2.87567,-3.10929 l 2.503,-2.44623 -0.52676,-0.0883 c -2.91838,-0.48911 -8.19563,-0.55766 -12.432743,-0.1615 -3.903662,0.36499 -8.308377,1.28813 -10.542933,2.20958 -0.664959,0.2742 -1.229902,0.47767 -1.255419,0.45216 -0.0255,-0.0255 0.152743,-0.35321 0.396145,-0.72821 0.967587,-1.49069 3.217054,-4.06866 6.176398,-7.07838 l 3.108988,-3.1619 -3.023161,0.0935 c -2.89127,0.0894 -4.361984,0.25748 -11.165964,1.27619 -3.223733,0.48266 -6.976987,1.25989 -8.794284,1.82112 -0.720223,0.22242 -1.326477,0.38741 -1.347237,0.36665 -0.104833,-0.10483 3.006651,-4.27297 4.205856,-5.63414 0.324157,-0.36794 1.181028,-1.36729 1.904162,-2.22077 0.723127,-0.85348 1.678467,-1.94124 2.122977,-2.41724 0.444504,-0.476 0.772496,-0.90116 0.728856,-0.94479 -0.124489,-0.1245 -8.197794,0.374 -10.664417,0.65847 -5.441636,0.62759 -7.080513,0.87704 -9.350003,1.42315 -0.754438,0.18154 -1.399667,0.3021 -1.433846,0.26793 -0.09892,-0.0989 1.860492,-3.22061 2.838181,-4.52172 1.064169,-1.41619 1.486376,-1.69465 5.988128,-3.94945 4.159078,-2.08316 8.044088,-3.64846 8.044088,-3.24102 0,0.0525 -0.432785,0.73723 -0.961744,1.52164 -0.52896,0.78441 -1.1945,1.81483 -1.478986,2.28982 -0.602734,1.00635 -0.655429,0.98373 1.453722,0.6243 0.769043,-0.13106 2.175525,-0.31821 3.125518,-0.41589 1.726665,-0.17755 5.08459,-0.61069 8.446925,-1.08956 0.981547,-0.13979 2.758163,-0.32633 3.948031,-0.41452 1.189869,-0.0882 2.608183,-0.22253 3.151819,-0.29851 0.543628,-0.076 1.94914,-0.14978 3.123343,-0.16402 l 2.134923,-0.0259 -1.653111,1.69398 c -1.850879,1.89663 -3.55823,3.92096 -4.758565,5.642 -0.441713,0.63332 -1.096894,1.50353 -1.455958,1.93379 -0.359064,0.43025 -0.622409,0.80541 -0.585207,0.83367 0.03721,0.0283 1.363083,-0.0816 2.946401,-0.24406 3.421983,-0.35119 16.999817,-0.51262 17.835337,-0.21204 l 0.48045,0.17285 -1.54971,1.04936 c -2.46071,1.6662 -7.02263,4.89769 -8.45877,5.99187 -0.97959,0.74632 -1.23191,1.01182 -0.98701,1.03857 0.18095,0.0198 1.97743,0.11053 3.99217,0.2017 3.46186,0.15664 5.25981,0.33333 9.49693,0.93324 0.99523,0.14091 2.47574,0.32688 3.29002,0.41325 1.61505,0.17132 1.94026,0.24219 4.56491,0.99473 0.9726,0.27888 1.76838,0.57148 1.76838,0.65023 0,0.0788 -0.0825,0.14318 -0.18342,0.14318 -0.10089,0 -1.04312,0.42444 -2.09386,0.9432 -2.02316,0.99884 -3.76061,2.19435 -5.78327,3.97939 -0.67857,0.59884 -1.35206,1.17947 -1.49664,1.29028 -0.14459,0.11081 -0.92186,0.31534 -1.72726,0.45449 -1.40895,0.24345 -3.85465,0.85058 -6.19856,1.53878 l -1.11514,0.32742 z"
       id="path21"
       inkscape:connector-curvature="0" />
  </g>
</svg>
